%TF.GenerationSoftware,KiCad,Pcbnew,9.0.5*%
%TF.CreationDate,2025-11-30T19:44:01-05:00*%
%TF.ProjectId,composite_vr,636f6d70-6f73-4697-9465-5f76722e6b69,0*%
%TF.SameCoordinates,Original*%
%TF.FileFunction,Copper,L2,Inr*%
%TF.FilePolarity,Positive*%
%FSLAX46Y46*%
G04 Gerber Fmt 4.6, Leading zero omitted, Abs format (unit mm)*
G04 Created by KiCad (PCBNEW 9.0.5) date 2025-11-30 19:44:01*
%MOMM*%
%LPD*%
G01*
G04 APERTURE LIST*
%TA.AperFunction,HeatsinkPad*%
%ADD10O,1.100000X2.600000*%
%TD*%
%TA.AperFunction,HeatsinkPad*%
%ADD11O,1.100000X2.100000*%
%TD*%
%TA.AperFunction,ComponentPad*%
%ADD12C,0.600000*%
%TD*%
%TA.AperFunction,ComponentPad*%
%ADD13R,1.700000X1.700000*%
%TD*%
%TA.AperFunction,ComponentPad*%
%ADD14C,1.700000*%
%TD*%
%TA.AperFunction,ComponentPad*%
%ADD15C,4.700000*%
%TD*%
%TA.AperFunction,HeatsinkPad*%
%ADD16O,2.100000X1.100000*%
%TD*%
%TA.AperFunction,HeatsinkPad*%
%ADD17O,2.600000X1.100000*%
%TD*%
%TA.AperFunction,ComponentPad*%
%ADD18O,1.500000X3.300000*%
%TD*%
%TA.AperFunction,ComponentPad*%
%ADD19O,1.500000X2.300000*%
%TD*%
%TA.AperFunction,ViaPad*%
%ADD20C,0.450000*%
%TD*%
%TA.AperFunction,ViaPad*%
%ADD21C,0.650000*%
%TD*%
G04 APERTURE END LIST*
D10*
%TO.N,GND*%
%TO.C,J5*%
X78040000Y-68200000D03*
D11*
X78040000Y-62840000D03*
D10*
X69400000Y-68200000D03*
D11*
X69400000Y-62840000D03*
%TD*%
D12*
%TO.N,GND*%
%TO.C,U11*%
X81500000Y-64080000D03*
X81500000Y-65800000D03*
X81980000Y-64940000D03*
X82460000Y-64080000D03*
X82460000Y-65800000D03*
%TD*%
D13*
%TO.N,GND*%
%TO.C,J2*%
X96630000Y-42230000D03*
D14*
%TO.N,Net-(J2-Pin_2)*%
X94090000Y-42230000D03*
%TO.N,GND*%
X91550000Y-42230000D03*
%TO.N,Net-(J2-Pin_4)*%
X89010000Y-42230000D03*
%TD*%
D13*
%TO.N,GND*%
%TO.C,J1*%
X55990000Y-42230000D03*
D14*
%TO.N,Net-(J1-Pin_2)*%
X53450000Y-42230000D03*
%TO.N,GND*%
X50910000Y-42230000D03*
%TO.N,Net-(J1-Pin_2)*%
X48370000Y-42230000D03*
%TD*%
D15*
%TO.N,GND*%
%TO.C,H1*%
X43500000Y-43500000D03*
%TD*%
%TO.N,GND*%
%TO.C,H4*%
X101500000Y-66500000D03*
%TD*%
D16*
%TO.N,GND*%
%TO.C,J3*%
X97840000Y-62900000D03*
D17*
X103200000Y-62900000D03*
D16*
X97840000Y-54260000D03*
D17*
X103200000Y-54260000D03*
%TD*%
D15*
%TO.N,GND*%
%TO.C,H3*%
X43500000Y-66500000D03*
%TD*%
D18*
%TO.N,GND*%
%TO.C,J4*%
X64150000Y-60455000D03*
X49650000Y-60455000D03*
D19*
X64150000Y-66415000D03*
X49650000Y-66415000D03*
%TD*%
D15*
%TO.N,GND*%
%TO.C,H2*%
X101500000Y-43500000D03*
%TD*%
D20*
%TO.N,L_D6*%
X74154346Y-45152589D03*
%TO.N,L_D3*%
X74043379Y-43180000D03*
%TO.N,GND*%
X72037690Y-44852329D03*
X68145000Y-51605000D03*
X65222855Y-53685000D03*
%TO.N,+1.8V*%
X70742470Y-48570993D03*
%TO.N,Net-(U3A-PROGRAM_B_0)*%
X67043509Y-51548616D03*
%TO.N,+1.0V*%
X69931250Y-47530001D03*
%TO.N,GND*%
X73161723Y-43851969D03*
%TO.N,L_D5*%
X74135465Y-44210887D03*
%TO.N,+1.8V*%
X69278563Y-51642746D03*
%TO.N,GND*%
X95999999Y-64399999D03*
X91423381Y-64387521D03*
X86695000Y-68543813D03*
%TO.N,/Power/USB_Hub/USB_UP_N*%
X92000000Y-67675000D03*
%TO.N,/Power/USB_Hub/USB_UP_P*%
X92000000Y-67075000D03*
%TO.N,Net-(J3-CC2)*%
X98162988Y-57874171D03*
%TO.N,GND*%
X59600000Y-64100000D03*
%TO.N,+3.3V*%
X57614318Y-51481607D03*
%TO.N,Net-(U11-EN2)*%
X84875842Y-68400000D03*
%TO.N,GND*%
X88100000Y-65200000D03*
X90000000Y-65200000D03*
X89000000Y-65200000D03*
D21*
%TO.N,VBUS*%
X71822022Y-61035000D03*
D20*
%TO.N,Net-(J5-CC2)*%
X74417693Y-63151955D03*
%TO.N,Net-(U12-VBUS_DET)*%
X89514041Y-69375000D03*
%TO.N,Net-(U11-EN2)*%
X82810000Y-69010000D03*
%TO.N,VBUS*%
X84853989Y-69575000D03*
%TO.N,Net-(U12-RESET_N)*%
X89050367Y-68875000D03*
D21*
%TO.N,VBUS*%
X75200000Y-60600000D03*
D20*
%TO.N,USB_RP2040_N*%
X90300000Y-62646500D03*
%TO.N,Net-(U12-RBIAS)*%
X90800000Y-64400000D03*
%TO.N,GND*%
X84000000Y-66500000D03*
X90000000Y-66200000D03*
D21*
%TO.N,VBUS*%
X78800000Y-64400000D03*
D20*
%TO.N,GND*%
X93110000Y-68550000D03*
D21*
X80100000Y-63500000D03*
D20*
%TO.N,Net-(U11-EN1)*%
X79814876Y-65575410D03*
X87100000Y-64400000D03*
%TO.N,/Power/USB_Hub/FAULT1_N*%
X84800000Y-63400000D03*
X86337314Y-63900000D03*
D21*
%TO.N,5V_CRT*%
X84331309Y-64172453D03*
%TO.N,GND*%
X95600000Y-63500000D03*
D20*
X91800000Y-68400000D03*
X89025000Y-66175000D03*
%TO.N,+3.3V*%
X90500001Y-63500001D03*
%TO.N,GND*%
X88100000Y-66200000D03*
X91700000Y-62500000D03*
%TO.N,+3.3V*%
X86200000Y-66000000D03*
%TO.N,GND*%
X85949000Y-65191051D03*
%TO.N,+3.3V*%
X93369496Y-69420870D03*
%TO.N,/Power/USB_Hub/USB_UP_N*%
X73493158Y-63196151D03*
%TO.N,+3.3V*%
X83112500Y-59100000D03*
%TO.N,GND*%
X82600000Y-47200000D03*
X80366960Y-45336020D03*
X84300000Y-52300000D03*
%TO.N,+3.3V*%
X85300000Y-50500000D03*
%TO.N,GND*%
X86350000Y-48850000D03*
%TO.N,+3.3V*%
X80800000Y-48200000D03*
%TO.N,GND*%
X82700000Y-45600000D03*
X81800000Y-45800000D03*
%TO.N,+3.3V*%
X78700000Y-47100000D03*
X81200000Y-45800000D03*
%TO.N,GND*%
X79900000Y-49400000D03*
%TO.N,+3.3V*%
X79300000Y-50700000D03*
X81117304Y-50595293D03*
%TO.N,GND*%
X80200000Y-50600000D03*
X81966495Y-42735001D03*
%TO.N,+3.3V*%
X81787671Y-41305932D03*
%TO.N,GND*%
X77515000Y-45500000D03*
X88500000Y-52800000D03*
%TO.N,+3.3V*%
X87532072Y-54189467D03*
%TO.N,GND*%
X87562500Y-55561900D03*
%TO.N,+3.3V*%
X87500000Y-57500000D03*
X80459528Y-59105318D03*
%TO.N,GND*%
X84500000Y-53800000D03*
X82100000Y-53800000D03*
X83300000Y-53800000D03*
X83300000Y-56200000D03*
X84500000Y-56200000D03*
X84500000Y-55000000D03*
X82100000Y-56200000D03*
X82100000Y-55000000D03*
X83312500Y-55000000D03*
X82400000Y-49400000D03*
%TO.N,+3.3V*%
X82487075Y-50012925D03*
%TO.N,GND*%
X78212396Y-53585000D03*
%TO.N,+3.3V*%
X78200000Y-54200000D03*
%TO.N,GND*%
X84700000Y-60700000D03*
X81129859Y-61265645D03*
%TO.N,+3.3V*%
X78700000Y-58200000D03*
%TO.N,GND*%
X78374267Y-56253212D03*
%TO.N,+3.3V*%
X89950000Y-49750000D03*
%TO.N,GND*%
X87600000Y-51000000D03*
X89700000Y-45700000D03*
%TO.N,+3.3V*%
X89900000Y-46700000D03*
%TO.N,GND*%
X96600000Y-47000000D03*
X98500000Y-46900000D03*
X96500000Y-49000000D03*
X98900000Y-51500000D03*
X102700000Y-48100000D03*
%TO.N,+3.3V*%
X103400000Y-50200000D03*
%TO.N,GND*%
X104400000Y-50200000D03*
X104400000Y-48200000D03*
X102710808Y-49105122D03*
%TO.N,+3.3V*%
X103200000Y-47500000D03*
%TO.N,GND*%
X104200000Y-47500000D03*
X93200000Y-53800000D03*
%TO.N,+3.3V*%
X50600000Y-51250000D03*
D21*
%TO.N,GND*%
X42500000Y-50800000D03*
D20*
X65183788Y-49190886D03*
%TO.N,USB_RP2040_P*%
X83300000Y-62046500D03*
%TO.N,USB_RP2040_N*%
X83300000Y-62646500D03*
%TO.N,USB_RP2040_P*%
X90300000Y-62046500D03*
D21*
%TO.N,VBUS*%
X42306000Y-63206000D03*
X42400000Y-57400000D03*
D20*
X46425738Y-49583990D03*
D21*
X42300000Y-51900000D03*
%TO.N,GND*%
X96674318Y-55596761D03*
X96700000Y-61600000D03*
%TO.N,VBUS_EXT*%
X86700000Y-60600000D03*
D20*
%TO.N,GND*%
X57874000Y-61270998D03*
X53013000Y-61420002D03*
X59600000Y-61500000D03*
%TO.N,TDI_RP2040*%
X67600000Y-55470000D03*
%TO.N,TDO_RP2040*%
X65124308Y-54659809D03*
%TO.N,Net-(U8-GPIO19)*%
X80687500Y-53242697D03*
%TO.N,TCK_RP2040*%
X67159019Y-41720490D03*
%TO.N,TMS_RP2040*%
X66150000Y-52810000D03*
D21*
%TO.N,VBUS_EXT*%
X96400000Y-60180000D03*
X96500000Y-57000000D03*
D20*
%TO.N,GND*%
X70965707Y-41545788D03*
%TO.N,+1.8V*%
X71316053Y-50499998D03*
%TO.N,Net-(U8-GPIO18)*%
X80904975Y-52683496D03*
%TO.N,TCK_RP2040*%
X77600000Y-51900000D03*
%TO.N,TMS_RP2040*%
X77472524Y-52537380D03*
%TO.N,Net-(U2-~{CE})*%
X78900000Y-41300000D03*
%TO.N,Net-(U2-~{WP}(IO2))*%
X78900000Y-43400000D03*
%TO.N,Net-(U2-~{HOLD}(IO3))*%
X81300000Y-42400000D03*
%TO.N,Net-(U3A-INIT_B_0)*%
X68963913Y-55673476D03*
%TO.N,Net-(U3A-DONE_0)*%
X69431394Y-54555721D03*
%TO.N,Net-(U8-RUN)*%
X81425136Y-52297046D03*
%TO.N,+3.3V*%
X83176664Y-52339791D03*
%TO.N,/RP2040/IMU/I2C_SCL_RP2040*%
X87515000Y-49900000D03*
X87600000Y-48400000D03*
%TO.N,/RP2040/IMU/I2C_SDA_RP2040*%
X86920059Y-48417500D03*
X86900000Y-49900000D03*
X85953339Y-55812710D03*
X97200000Y-50300000D03*
%TO.N,/RP2040/IMU/I2C_SCL_RP2040*%
X97100000Y-49700000D03*
X86005650Y-55164816D03*
%TO.N,+1.8V*%
X85100000Y-40800000D03*
%TO.N,GND*%
X86100000Y-40800000D03*
%TO.N,Net-(U1-SCL)*%
X86200000Y-42100000D03*
%TO.N,Net-(U1-SDA)*%
X85100000Y-42200000D03*
D21*
%TO.N,GND*%
X76900000Y-61600000D03*
X70572797Y-61700000D03*
D20*
X77500000Y-57525000D03*
%TO.N,R_Sync*%
X74850000Y-49560000D03*
%TO.N,R_D7*%
X75040000Y-51770000D03*
%TO.N,R_D6*%
X75032907Y-53343418D03*
%TO.N,R_D5*%
X74250000Y-53540000D03*
%TO.N,R_D4*%
X73900000Y-55400000D03*
%TO.N,R_D3*%
X72900000Y-55500000D03*
%TO.N,R_D2*%
X71863565Y-54527199D03*
%TO.N,R_D1*%
X71100000Y-54400000D03*
%TO.N,R_D0*%
X70100000Y-54500000D03*
%TO.N,GND*%
X70620000Y-57710000D03*
%TO.N,+1.0V*%
X66820000Y-44570000D03*
X67028174Y-46747724D03*
%TO.N,GND*%
X67019700Y-47767880D03*
X62019700Y-46232120D03*
X64021531Y-45763353D03*
X66200000Y-40425000D03*
%TO.N,L_Sync*%
X74921586Y-47654732D03*
%TO.N,L_D4*%
X75060000Y-42880000D03*
%TO.N,L_D7*%
X74342851Y-46514298D03*
%TO.N,GND*%
X75142751Y-45696101D03*
%TO.N,L_D2*%
X73200000Y-41700000D03*
%TO.N,L_D1*%
X71069652Y-42587622D03*
%TO.N,L_D0*%
X70456090Y-42431451D03*
%TO.N,GND*%
X78800000Y-44600000D03*
%TO.N,FLASH_SCLK*%
X75920677Y-41423432D03*
X79062936Y-41929249D03*
%TO.N,GND*%
X49400000Y-47000000D03*
D21*
%TO.N,+1.0V*%
X51500000Y-48300000D03*
%TO.N,+1.8V*%
X48448469Y-52859543D03*
%TO.N,+3.3V*%
X48450000Y-58400000D03*
D20*
%TO.N,Net-(U5-PG)*%
X46600000Y-53450000D03*
X45916257Y-49900900D03*
%TO.N,Net-(U10-EN)*%
X46650000Y-59200000D03*
X45900000Y-55500000D03*
%TO.N,GND*%
X47200000Y-48900000D03*
X47200000Y-54500000D03*
X47200000Y-60200000D03*
D21*
%TO.N,5V_CRT*%
X46450000Y-45250000D03*
%TO.N,GND*%
X42550000Y-62000000D03*
X42550000Y-56400000D03*
X45076513Y-49668049D03*
X45200000Y-55200000D03*
X45200000Y-60950000D03*
D20*
X49400000Y-45500000D03*
%TO.N,Net-(J4-SCL)*%
X53589999Y-56910001D03*
%TO.N,Net-(J4-SDA)*%
X53400000Y-57800000D03*
%TO.N,HDMI_SCL*%
X61000000Y-45000000D03*
%TO.N,HDMI_SDA*%
X61000000Y-44000000D03*
%TO.N,GND*%
X53300000Y-50500000D03*
%TO.N,5V_HDMI*%
X53300000Y-52700000D03*
%TO.N,+3.3V*%
X51000000Y-50300000D03*
%TO.N,GND*%
X47400000Y-51700000D03*
X50400000Y-53800000D03*
X52800000Y-53900000D03*
X74240000Y-51500000D03*
X75130000Y-54870000D03*
X72000000Y-51700000D03*
X64921561Y-51535935D03*
X73000000Y-47500000D03*
%TO.N,+3.3V*%
X73980000Y-47500000D03*
%TO.N,GND*%
X72316053Y-50500001D03*
%TO.N,+3.3V*%
X73300000Y-50500000D03*
%TO.N,GND*%
X72200000Y-53500000D03*
%TO.N,+3.3V*%
X73209595Y-53484176D03*
%TO.N,GND*%
X64100000Y-47500000D03*
%TO.N,+3.3V*%
X62983988Y-47474571D03*
%TO.N,GND*%
X61943180Y-51404748D03*
X64000000Y-50500000D03*
%TO.N,+3.3V*%
X62972055Y-50500000D03*
%TO.N,GND*%
X63900000Y-53500000D03*
%TO.N,+3.3V*%
X62997398Y-53598609D03*
%TO.N,GND*%
X63200000Y-54500000D03*
%TO.N,+3.3V*%
X62200000Y-54500000D03*
%TO.N,GND*%
X70110014Y-51519537D03*
X71096843Y-51604993D03*
X67946689Y-49520033D03*
%TO.N,+1.0V*%
X68797643Y-50592930D03*
%TO.N,GND*%
X66100000Y-51530000D03*
%TO.N,+1.0V*%
X66182857Y-50774378D03*
%TO.N,GND*%
X66801416Y-50408341D03*
%TO.N,+1.0V*%
X67030000Y-48700000D03*
%TO.N,GND*%
X69175607Y-48756474D03*
X62300000Y-43592930D03*
X69180000Y-42350000D03*
X66376788Y-42416215D03*
X67260002Y-42660000D03*
X61000000Y-42074000D03*
X74900000Y-41600000D03*
X69600000Y-43510000D03*
X68829480Y-43581350D03*
X67440000Y-43540000D03*
X64367880Y-42580300D03*
X66303686Y-43550297D03*
X65200000Y-44625003D03*
X67849661Y-44559223D03*
%TO.N,+1.0V*%
X67272519Y-45633560D03*
%TO.N,GND*%
X66158057Y-45441943D03*
X64946531Y-46507693D03*
%TO.N,+3.3V*%
X68112125Y-53425546D03*
%TO.N,GND*%
X68127290Y-46335548D03*
X69367880Y-46580300D03*
X69758725Y-45447341D03*
%TO.N,+1.0V*%
X69128268Y-45733325D03*
X68305647Y-45400000D03*
X65100002Y-45624998D03*
X64947036Y-48480198D03*
X65280576Y-50462788D03*
X69240995Y-49525026D03*
%TO.N,GND*%
X69206173Y-53700000D03*
%TO.N,+1.8V*%
X69975002Y-46500002D03*
%TO.N,+3.3V*%
X66218102Y-53494755D03*
%TO.N,/Power/USB_Hub/USB_TRACKER_P*%
X96893068Y-58963244D03*
X96704998Y-58010000D03*
%TO.N,/Power/USB_Hub/USB_TRACKER_N*%
X97310404Y-58450453D03*
X98170000Y-58869315D03*
%TO.N,/Power/USB_Hub/USB_UP_P*%
X73400000Y-61900000D03*
%TO.N,/Power/USB_Hub/USB_UP_N*%
X73900000Y-62250372D03*
%TO.N,GND*%
X61919935Y-55342981D03*
%TO.N,+3.3V*%
X57700000Y-46800000D03*
X58600000Y-53700000D03*
X68773610Y-58435000D03*
X57700000Y-48200000D03*
X57700000Y-50700000D03*
X57700000Y-49300000D03*
X66200000Y-58000000D03*
%TD*%
%TA.AperFunction,Conductor*%
%TO.N,GND*%
G36*
X84795196Y-40220185D02*
G01*
X84840951Y-40272989D01*
X84850895Y-40342147D01*
X84821870Y-40405703D01*
X84813559Y-40413534D01*
X84813783Y-40413758D01*
X84719506Y-40508034D01*
X84719504Y-40508037D01*
X84656905Y-40616463D01*
X84640702Y-40676931D01*
X84624500Y-40737399D01*
X84624500Y-40862601D01*
X84656905Y-40983536D01*
X84719505Y-41091964D01*
X84808036Y-41180495D01*
X84916464Y-41243095D01*
X85037399Y-41275500D01*
X85037401Y-41275500D01*
X85162599Y-41275500D01*
X85162601Y-41275500D01*
X85283536Y-41243095D01*
X85391964Y-41180495D01*
X85480495Y-41091964D01*
X85543095Y-40983536D01*
X85575500Y-40862601D01*
X85575500Y-40737399D01*
X85543095Y-40616464D01*
X85480495Y-40508036D01*
X85391964Y-40419505D01*
X85386217Y-40413758D01*
X85388228Y-40411746D01*
X85355152Y-40366443D01*
X85351000Y-40296697D01*
X85385215Y-40235778D01*
X85446934Y-40203028D01*
X85471843Y-40200500D01*
X101960118Y-40200500D01*
X101996519Y-40200500D01*
X102003472Y-40200695D01*
X102306503Y-40217713D01*
X102320301Y-40219267D01*
X102616080Y-40269522D01*
X102629634Y-40272615D01*
X102713222Y-40296697D01*
X102917927Y-40355672D01*
X102931051Y-40360265D01*
X103208222Y-40475072D01*
X103220744Y-40481101D01*
X103423184Y-40592986D01*
X103483328Y-40626227D01*
X103495102Y-40633625D01*
X103739789Y-40807239D01*
X103750657Y-40815907D01*
X103974352Y-41015815D01*
X103984184Y-41025647D01*
X104084506Y-41137906D01*
X104175649Y-41239895D01*
X104184092Y-41249342D01*
X104192762Y-41260213D01*
X104213023Y-41288768D01*
X104366374Y-41504897D01*
X104373772Y-41516671D01*
X104518894Y-41779248D01*
X104524927Y-41791777D01*
X104639734Y-42068948D01*
X104644327Y-42082072D01*
X104727383Y-42370363D01*
X104730477Y-42383920D01*
X104780730Y-42679688D01*
X104782287Y-42693506D01*
X104799305Y-42996527D01*
X104799500Y-43003480D01*
X104799500Y-53332804D01*
X104779815Y-53399843D01*
X104727011Y-53445598D01*
X104657853Y-53455542D01*
X104606610Y-53435906D01*
X104447373Y-53329508D01*
X104447358Y-53329500D01*
X104256274Y-53250350D01*
X104256266Y-53250348D01*
X104053420Y-53210000D01*
X103450000Y-53210000D01*
X103450000Y-53960000D01*
X102950000Y-53960000D01*
X102950000Y-53210000D01*
X102346579Y-53210000D01*
X102143733Y-53250348D01*
X102143725Y-53250350D01*
X101952641Y-53329500D01*
X101952631Y-53329505D01*
X101780664Y-53444410D01*
X101780660Y-53444413D01*
X101634413Y-53590660D01*
X101634410Y-53590664D01*
X101519505Y-53762631D01*
X101519500Y-53762641D01*
X101440351Y-53953723D01*
X101440350Y-53953725D01*
X101429157Y-54010000D01*
X102283012Y-54010000D01*
X102265795Y-54019940D01*
X102209940Y-54075795D01*
X102170444Y-54144204D01*
X102150000Y-54220504D01*
X102150000Y-54299496D01*
X102170444Y-54375796D01*
X102209940Y-54444205D01*
X102265795Y-54500060D01*
X102283012Y-54510000D01*
X101429157Y-54510000D01*
X101440350Y-54566274D01*
X101440351Y-54566276D01*
X101519500Y-54757358D01*
X101519505Y-54757368D01*
X101634410Y-54929335D01*
X101634413Y-54929339D01*
X101780660Y-55075586D01*
X101780664Y-55075589D01*
X101952631Y-55190494D01*
X101952641Y-55190499D01*
X102143725Y-55269649D01*
X102143733Y-55269651D01*
X102346579Y-55309999D01*
X102346583Y-55310000D01*
X102950000Y-55310000D01*
X102950000Y-54560000D01*
X103450000Y-54560000D01*
X103450000Y-55310000D01*
X104053417Y-55310000D01*
X104053420Y-55309999D01*
X104256266Y-55269651D01*
X104256274Y-55269649D01*
X104447358Y-55190499D01*
X104447368Y-55190494D01*
X104606609Y-55084093D01*
X104673287Y-55063215D01*
X104740667Y-55081700D01*
X104787357Y-55133678D01*
X104799500Y-55187195D01*
X104799500Y-61972804D01*
X104779815Y-62039843D01*
X104727011Y-62085598D01*
X104657853Y-62095542D01*
X104606610Y-62075906D01*
X104447373Y-61969508D01*
X104447358Y-61969500D01*
X104256274Y-61890350D01*
X104256266Y-61890348D01*
X104053420Y-61850000D01*
X103450000Y-61850000D01*
X103450000Y-62600000D01*
X102950000Y-62600000D01*
X102950000Y-61850000D01*
X102346579Y-61850000D01*
X102143733Y-61890348D01*
X102143725Y-61890350D01*
X101952641Y-61969500D01*
X101952631Y-61969505D01*
X101780664Y-62084410D01*
X101780660Y-62084413D01*
X101634413Y-62230660D01*
X101634410Y-62230664D01*
X101519505Y-62402631D01*
X101519500Y-62402641D01*
X101440351Y-62593723D01*
X101440350Y-62593725D01*
X101429157Y-62650000D01*
X102283012Y-62650000D01*
X102265795Y-62659940D01*
X102209940Y-62715795D01*
X102170444Y-62784204D01*
X102150000Y-62860504D01*
X102150000Y-62939496D01*
X102170444Y-63015796D01*
X102209940Y-63084205D01*
X102265795Y-63140060D01*
X102283012Y-63150000D01*
X101429157Y-63150000D01*
X101440350Y-63206274D01*
X101440351Y-63206276D01*
X101519500Y-63397358D01*
X101519505Y-63397368D01*
X101634410Y-63569335D01*
X101634413Y-63569339D01*
X101780660Y-63715586D01*
X101780664Y-63715589D01*
X101952631Y-63830494D01*
X101952641Y-63830499D01*
X102143725Y-63909649D01*
X102143733Y-63909651D01*
X102346579Y-63949999D01*
X102346583Y-63950000D01*
X102950000Y-63950000D01*
X102950000Y-63200000D01*
X103450000Y-63200000D01*
X103450000Y-63950000D01*
X104053417Y-63950000D01*
X104053420Y-63949999D01*
X104256266Y-63909651D01*
X104256274Y-63909649D01*
X104447358Y-63830499D01*
X104447368Y-63830494D01*
X104606609Y-63724093D01*
X104673287Y-63703215D01*
X104740667Y-63721700D01*
X104787357Y-63773678D01*
X104799500Y-63827195D01*
X104799500Y-66996519D01*
X104799305Y-67003472D01*
X104782287Y-67306493D01*
X104780730Y-67320311D01*
X104730477Y-67616079D01*
X104727383Y-67629636D01*
X104644327Y-67917927D01*
X104639734Y-67931051D01*
X104524927Y-68208222D01*
X104518894Y-68220751D01*
X104373772Y-68483328D01*
X104366374Y-68495102D01*
X104192763Y-68739785D01*
X104184092Y-68750657D01*
X103984184Y-68974352D01*
X103974352Y-68984184D01*
X103750657Y-69184092D01*
X103739785Y-69192763D01*
X103495102Y-69366374D01*
X103483328Y-69373772D01*
X103220751Y-69518894D01*
X103208222Y-69524927D01*
X102931051Y-69639734D01*
X102917927Y-69644327D01*
X102629636Y-69727383D01*
X102616079Y-69730477D01*
X102320311Y-69780730D01*
X102306493Y-69782287D01*
X102003472Y-69799305D01*
X101996519Y-69799500D01*
X93914728Y-69799500D01*
X93847689Y-69779815D01*
X93801934Y-69727011D01*
X93791990Y-69657853D01*
X93807340Y-69613502D01*
X93811319Y-69606609D01*
X93812591Y-69604406D01*
X93844996Y-69483471D01*
X93844996Y-69358269D01*
X93812591Y-69237334D01*
X93749991Y-69128906D01*
X93661460Y-69040375D01*
X93553032Y-68977775D01*
X93553033Y-68977775D01*
X93512720Y-68966973D01*
X93432097Y-68945370D01*
X93306895Y-68945370D01*
X93226271Y-68966973D01*
X93185959Y-68977775D01*
X93077533Y-69040374D01*
X93077530Y-69040376D01*
X92989002Y-69128904D01*
X92989000Y-69128907D01*
X92926401Y-69237333D01*
X92914155Y-69283036D01*
X92893996Y-69358269D01*
X92893996Y-69483471D01*
X92914110Y-69558536D01*
X92926401Y-69604407D01*
X92926403Y-69604410D01*
X92931652Y-69613502D01*
X92948123Y-69681402D01*
X92925270Y-69747429D01*
X92870348Y-69790618D01*
X92824264Y-69799500D01*
X90032790Y-69799500D01*
X89965751Y-69779815D01*
X89919996Y-69727011D01*
X89910052Y-69657853D01*
X89925403Y-69613501D01*
X89941942Y-69584852D01*
X89957136Y-69558536D01*
X89989541Y-69437601D01*
X89989541Y-69312399D01*
X89957136Y-69191464D01*
X89894536Y-69083036D01*
X89806005Y-68994505D01*
X89697577Y-68931905D01*
X89697578Y-68931905D01*
X89666348Y-68923537D01*
X89615925Y-68910026D01*
X89556267Y-68873661D01*
X89530050Y-68819691D01*
X89527970Y-68820249D01*
X89517318Y-68780495D01*
X89493462Y-68691464D01*
X89430862Y-68583036D01*
X89342331Y-68494505D01*
X89233903Y-68431905D01*
X89233904Y-68431905D01*
X89193591Y-68421103D01*
X89112968Y-68399500D01*
X88987766Y-68399500D01*
X88907142Y-68421103D01*
X88866830Y-68431905D01*
X88758404Y-68494504D01*
X88758401Y-68494506D01*
X88669873Y-68583034D01*
X88669871Y-68583037D01*
X88607272Y-68691463D01*
X88600152Y-68718034D01*
X88574867Y-68812399D01*
X88574867Y-68937601D01*
X88607272Y-69058536D01*
X88669872Y-69166964D01*
X88758403Y-69255495D01*
X88866831Y-69318095D01*
X88948481Y-69339973D01*
X89008140Y-69376337D01*
X89032842Y-69417156D01*
X89038541Y-69432738D01*
X89038541Y-69437601D01*
X89070946Y-69558536D01*
X89108055Y-69622812D01*
X89111748Y-69632909D01*
X89113347Y-69657474D01*
X89119152Y-69681401D01*
X89115577Y-69691729D01*
X89116287Y-69702631D01*
X89104352Y-69724160D01*
X89096299Y-69747428D01*
X89087709Y-69754182D01*
X89082412Y-69763739D01*
X89060731Y-69775398D01*
X89041378Y-69790618D01*
X89027433Y-69793305D01*
X89020876Y-69796832D01*
X89012516Y-69796180D01*
X88995292Y-69799500D01*
X85447708Y-69799500D01*
X85380669Y-69779815D01*
X85334914Y-69727011D01*
X85324970Y-69657853D01*
X85327934Y-69643405D01*
X85329488Y-69637603D01*
X85329489Y-69637600D01*
X85329489Y-69512400D01*
X85322281Y-69485500D01*
X85297084Y-69391464D01*
X85234484Y-69283036D01*
X85145953Y-69194505D01*
X85037525Y-69131905D01*
X85037520Y-69131903D01*
X84970859Y-69114041D01*
X84970856Y-69114040D01*
X84916590Y-69099500D01*
X84791388Y-69099500D01*
X84756090Y-69108958D01*
X84756089Y-69108958D01*
X84670452Y-69131905D01*
X84562026Y-69194504D01*
X84562023Y-69194506D01*
X84473495Y-69283034D01*
X84473493Y-69283037D01*
X84410894Y-69391463D01*
X84410894Y-69391464D01*
X84386241Y-69483471D01*
X84378489Y-69512400D01*
X84378489Y-69637603D01*
X84380044Y-69643405D01*
X84378382Y-69713255D01*
X84339221Y-69771118D01*
X84274992Y-69798623D01*
X84260270Y-69799500D01*
X78967195Y-69799500D01*
X78900156Y-69779815D01*
X78854401Y-69727011D01*
X78844457Y-69657853D01*
X78864093Y-69606609D01*
X78970494Y-69447368D01*
X78970499Y-69447358D01*
X79049649Y-69256274D01*
X79049651Y-69256266D01*
X79089999Y-69053420D01*
X79090000Y-69053417D01*
X79090000Y-68947399D01*
X82334500Y-68947399D01*
X82334500Y-69072601D01*
X82366905Y-69193536D01*
X82429505Y-69301964D01*
X82518036Y-69390495D01*
X82626464Y-69453095D01*
X82747399Y-69485500D01*
X82747401Y-69485500D01*
X82872599Y-69485500D01*
X82872601Y-69485500D01*
X82993536Y-69453095D01*
X83101964Y-69390495D01*
X83190495Y-69301964D01*
X83253095Y-69193536D01*
X83285500Y-69072601D01*
X83285500Y-68947399D01*
X83253095Y-68826464D01*
X83190495Y-68718036D01*
X83101964Y-68629505D01*
X82993536Y-68566905D01*
X82993537Y-68566905D01*
X82953224Y-68556103D01*
X82872601Y-68534500D01*
X82747399Y-68534500D01*
X82666775Y-68556103D01*
X82626463Y-68566905D01*
X82518037Y-68629504D01*
X82518034Y-68629506D01*
X82429506Y-68718034D01*
X82429504Y-68718037D01*
X82366905Y-68826463D01*
X82357662Y-68860958D01*
X82334500Y-68947399D01*
X79090000Y-68947399D01*
X79090000Y-68450000D01*
X78340000Y-68450000D01*
X78340000Y-68337399D01*
X84400342Y-68337399D01*
X84400342Y-68462601D01*
X84432747Y-68583536D01*
X84495347Y-68691964D01*
X84583878Y-68780495D01*
X84692306Y-68843095D01*
X84813241Y-68875500D01*
X84938443Y-68875500D01*
X85059378Y-68843095D01*
X85167806Y-68780495D01*
X85256337Y-68691964D01*
X85318937Y-68583536D01*
X85351342Y-68462601D01*
X85351342Y-68337399D01*
X85318937Y-68216464D01*
X85256337Y-68108036D01*
X85167806Y-68019505D01*
X85059378Y-67956905D01*
X85059379Y-67956905D01*
X85019066Y-67946103D01*
X84938443Y-67924500D01*
X84813241Y-67924500D01*
X84732617Y-67946103D01*
X84692305Y-67956905D01*
X84583879Y-68019504D01*
X84583876Y-68019506D01*
X84495348Y-68108034D01*
X84495346Y-68108037D01*
X84432747Y-68216463D01*
X84432747Y-68216464D01*
X84400342Y-68337399D01*
X78340000Y-68337399D01*
X78340000Y-67950000D01*
X79090000Y-67950000D01*
X79090000Y-67346583D01*
X79089999Y-67346579D01*
X79049651Y-67143733D01*
X79049649Y-67143725D01*
X79011541Y-67051724D01*
X78995252Y-67012399D01*
X91524500Y-67012399D01*
X91524500Y-67137601D01*
X91543884Y-67209940D01*
X91556905Y-67258536D01*
X91588350Y-67313001D01*
X91604821Y-67380901D01*
X91588350Y-67436999D01*
X91556905Y-67491463D01*
X91556905Y-67491464D01*
X91524500Y-67612399D01*
X91524500Y-67737601D01*
X91556905Y-67858536D01*
X91619505Y-67966964D01*
X91708036Y-68055495D01*
X91816464Y-68118095D01*
X91937399Y-68150500D01*
X91937401Y-68150500D01*
X92062599Y-68150500D01*
X92062601Y-68150500D01*
X92183536Y-68118095D01*
X92291964Y-68055495D01*
X92380495Y-67966964D01*
X92443095Y-67858536D01*
X92475500Y-67737601D01*
X92475500Y-67612399D01*
X92443095Y-67491464D01*
X92411649Y-67436998D01*
X92395177Y-67369100D01*
X92411650Y-67313001D01*
X92443095Y-67258536D01*
X92475500Y-67137601D01*
X92475500Y-67012399D01*
X92443095Y-66891464D01*
X92380495Y-66783036D01*
X92291964Y-66694505D01*
X92183536Y-66631905D01*
X92183537Y-66631905D01*
X92143224Y-66621103D01*
X92062601Y-66599500D01*
X91937399Y-66599500D01*
X91856775Y-66621103D01*
X91816463Y-66631905D01*
X91708037Y-66694504D01*
X91708034Y-66694506D01*
X91619506Y-66783034D01*
X91619504Y-66783037D01*
X91556905Y-66891463D01*
X91556905Y-66891464D01*
X91524500Y-67012399D01*
X78995252Y-67012399D01*
X78970499Y-66952640D01*
X78970494Y-66952631D01*
X78855589Y-66780664D01*
X78855586Y-66780660D01*
X78709339Y-66634413D01*
X78709335Y-66634410D01*
X78537368Y-66519505D01*
X78537358Y-66519500D01*
X78346272Y-66440349D01*
X78346267Y-66440347D01*
X78290000Y-66429155D01*
X78290000Y-67283011D01*
X78280060Y-67265795D01*
X78224205Y-67209940D01*
X78155796Y-67170444D01*
X78079496Y-67150000D01*
X78000504Y-67150000D01*
X77924204Y-67170444D01*
X77855795Y-67209940D01*
X77799940Y-67265795D01*
X77790000Y-67283011D01*
X77790000Y-66429156D01*
X77789999Y-66429155D01*
X77733732Y-66440347D01*
X77733727Y-66440349D01*
X77542641Y-66519500D01*
X77542631Y-66519505D01*
X77370664Y-66634410D01*
X77370660Y-66634413D01*
X77224413Y-66780660D01*
X77224410Y-66780664D01*
X77109505Y-66952631D01*
X77109500Y-66952641D01*
X77030350Y-67143725D01*
X77030348Y-67143733D01*
X76990000Y-67346579D01*
X76990000Y-67950000D01*
X77740000Y-67950000D01*
X77740000Y-68450000D01*
X76990000Y-68450000D01*
X76990000Y-69053420D01*
X77030348Y-69256266D01*
X77030350Y-69256274D01*
X77109500Y-69447358D01*
X77109505Y-69447368D01*
X77215907Y-69606609D01*
X77236785Y-69673287D01*
X77218300Y-69740667D01*
X77166322Y-69787357D01*
X77112805Y-69799500D01*
X70327195Y-69799500D01*
X70260156Y-69779815D01*
X70214401Y-69727011D01*
X70204457Y-69657853D01*
X70224093Y-69606609D01*
X70330494Y-69447368D01*
X70330499Y-69447358D01*
X70409649Y-69256274D01*
X70409651Y-69256266D01*
X70449999Y-69053420D01*
X70450000Y-69053417D01*
X70450000Y-68450000D01*
X69700000Y-68450000D01*
X69700000Y-67950000D01*
X70450000Y-67950000D01*
X70450000Y-67346583D01*
X70449999Y-67346579D01*
X70409651Y-67143733D01*
X70409649Y-67143725D01*
X70330499Y-66952641D01*
X70330494Y-66952631D01*
X70215589Y-66780664D01*
X70215586Y-66780660D01*
X70069339Y-66634413D01*
X70069335Y-66634410D01*
X69897368Y-66519505D01*
X69897358Y-66519500D01*
X69706272Y-66440349D01*
X69706267Y-66440347D01*
X69650000Y-66429155D01*
X69650000Y-67283011D01*
X69640060Y-67265795D01*
X69584205Y-67209940D01*
X69515796Y-67170444D01*
X69439496Y-67150000D01*
X69360504Y-67150000D01*
X69284204Y-67170444D01*
X69215795Y-67209940D01*
X69159940Y-67265795D01*
X69150000Y-67283011D01*
X69150000Y-66429156D01*
X69149999Y-66429155D01*
X69093732Y-66440347D01*
X69093727Y-66440349D01*
X68902641Y-66519500D01*
X68902631Y-66519505D01*
X68730664Y-66634410D01*
X68730660Y-66634413D01*
X68584413Y-66780660D01*
X68584410Y-66780664D01*
X68469505Y-66952631D01*
X68469500Y-66952641D01*
X68390350Y-67143725D01*
X68390348Y-67143733D01*
X68350000Y-67346579D01*
X68350000Y-67950000D01*
X69100000Y-67950000D01*
X69100000Y-68450000D01*
X68350000Y-68450000D01*
X68350000Y-69053420D01*
X68390348Y-69256266D01*
X68390350Y-69256274D01*
X68469500Y-69447358D01*
X68469505Y-69447368D01*
X68575907Y-69606609D01*
X68596785Y-69673287D01*
X68578300Y-69740667D01*
X68526322Y-69787357D01*
X68472805Y-69799500D01*
X43003481Y-69799500D01*
X42996528Y-69799305D01*
X42693506Y-69782287D01*
X42679688Y-69780730D01*
X42383920Y-69730477D01*
X42370363Y-69727383D01*
X42082072Y-69644327D01*
X42068948Y-69639734D01*
X41791777Y-69524927D01*
X41779248Y-69518894D01*
X41516671Y-69373772D01*
X41504897Y-69366374D01*
X41262668Y-69194504D01*
X41260213Y-69192762D01*
X41249342Y-69184092D01*
X41025647Y-68984184D01*
X41015815Y-68974352D01*
X40842572Y-68780495D01*
X40815904Y-68750653D01*
X40807236Y-68739785D01*
X40791804Y-68718036D01*
X40633625Y-68495102D01*
X40626227Y-68483328D01*
X40545575Y-68337400D01*
X40481101Y-68220744D01*
X40475072Y-68208222D01*
X40360265Y-67931051D01*
X40355672Y-67917927D01*
X40272616Y-67629636D01*
X40269522Y-67616079D01*
X40248349Y-67491461D01*
X40219267Y-67320301D01*
X40217713Y-67306503D01*
X40200695Y-67003472D01*
X40200500Y-66996519D01*
X40200500Y-65916617D01*
X48400000Y-65916617D01*
X48400000Y-66165000D01*
X49200000Y-66165000D01*
X49200000Y-66665000D01*
X48400000Y-66665000D01*
X48400000Y-66913382D01*
X48430778Y-67107705D01*
X48491581Y-67294835D01*
X48580904Y-67470143D01*
X48696555Y-67629321D01*
X48835678Y-67768444D01*
X48994856Y-67884095D01*
X49170162Y-67973418D01*
X49357283Y-68034218D01*
X49400000Y-68040984D01*
X49400000Y-67190277D01*
X49476306Y-67234333D01*
X49590756Y-67265000D01*
X49709244Y-67265000D01*
X49823694Y-67234333D01*
X49900000Y-67190277D01*
X49900000Y-68040983D01*
X49942716Y-68034218D01*
X50129837Y-67973418D01*
X50305143Y-67884095D01*
X50464321Y-67768444D01*
X50603444Y-67629321D01*
X50719095Y-67470143D01*
X50808418Y-67294835D01*
X50869221Y-67107705D01*
X50900000Y-66913382D01*
X50900000Y-66665000D01*
X50100000Y-66665000D01*
X50100000Y-66165000D01*
X50900000Y-66165000D01*
X50900000Y-65916617D01*
X62900000Y-65916617D01*
X62900000Y-66165000D01*
X63700000Y-66165000D01*
X63700000Y-66665000D01*
X62900000Y-66665000D01*
X62900000Y-66913382D01*
X62930778Y-67107705D01*
X62991581Y-67294835D01*
X63080904Y-67470143D01*
X63196555Y-67629321D01*
X63335678Y-67768444D01*
X63494856Y-67884095D01*
X63670162Y-67973418D01*
X63857283Y-68034218D01*
X63900000Y-68040984D01*
X63900000Y-67190277D01*
X63976306Y-67234333D01*
X64090756Y-67265000D01*
X64209244Y-67265000D01*
X64323694Y-67234333D01*
X64400000Y-67190277D01*
X64400000Y-68040983D01*
X64442716Y-68034218D01*
X64629837Y-67973418D01*
X64805143Y-67884095D01*
X64964321Y-67768444D01*
X65103444Y-67629321D01*
X65219095Y-67470143D01*
X65308418Y-67294835D01*
X65369221Y-67107705D01*
X65400000Y-66913382D01*
X65400000Y-66665000D01*
X64600000Y-66665000D01*
X64600000Y-66165000D01*
X65400000Y-66165000D01*
X65400000Y-65916617D01*
X65369221Y-65722296D01*
X65310964Y-65543000D01*
X65310963Y-65542997D01*
X65310963Y-65542995D01*
X65308419Y-65535165D01*
X65297028Y-65512809D01*
X79339376Y-65512809D01*
X79339376Y-65638011D01*
X79371781Y-65758946D01*
X79434381Y-65867374D01*
X79522912Y-65955905D01*
X79631340Y-66018505D01*
X79752275Y-66050910D01*
X79752277Y-66050910D01*
X79877475Y-66050910D01*
X79877477Y-66050910D01*
X79998412Y-66018505D01*
X80106840Y-65955905D01*
X80195371Y-65867374D01*
X80257971Y-65758946D01*
X80268085Y-65721202D01*
X80700000Y-65721202D01*
X80700000Y-65878797D01*
X80730741Y-66033343D01*
X80730743Y-66033351D01*
X80784153Y-66162293D01*
X81146446Y-65800001D01*
X81146446Y-65799999D01*
X80784153Y-65437705D01*
X80730743Y-65566648D01*
X80730741Y-65566656D01*
X80700000Y-65721202D01*
X80268085Y-65721202D01*
X80290376Y-65638011D01*
X80290376Y-65512809D01*
X80257971Y-65391874D01*
X80195371Y-65283446D01*
X80106840Y-65194915D01*
X79998412Y-65132315D01*
X79998413Y-65132315D01*
X79958100Y-65121513D01*
X79877477Y-65099910D01*
X79752275Y-65099910D01*
X79671651Y-65121513D01*
X79631339Y-65132315D01*
X79522913Y-65194914D01*
X79522910Y-65194916D01*
X79434382Y-65283444D01*
X79434380Y-65283447D01*
X79371781Y-65391873D01*
X79371781Y-65391874D01*
X79339376Y-65512809D01*
X65297028Y-65512809D01*
X65219095Y-65359856D01*
X65103444Y-65200678D01*
X64964321Y-65061555D01*
X64805143Y-64945904D01*
X64629835Y-64856581D01*
X64442705Y-64795778D01*
X64400000Y-64789014D01*
X64400000Y-65639722D01*
X64323694Y-65595667D01*
X64209244Y-65565000D01*
X64090756Y-65565000D01*
X63976306Y-65595667D01*
X63900000Y-65639722D01*
X63900000Y-64789014D01*
X63899999Y-64789014D01*
X63857294Y-64795778D01*
X63670164Y-64856581D01*
X63494856Y-64945904D01*
X63335678Y-65061555D01*
X63196555Y-65200678D01*
X63080904Y-65359856D01*
X62991581Y-65535164D01*
X62930778Y-65722294D01*
X62900000Y-65916617D01*
X50900000Y-65916617D01*
X50869221Y-65722294D01*
X50808418Y-65535164D01*
X50719095Y-65359856D01*
X50603444Y-65200678D01*
X50464321Y-65061555D01*
X50305143Y-64945904D01*
X50129835Y-64856581D01*
X49942705Y-64795778D01*
X49900000Y-64789014D01*
X49900000Y-65639722D01*
X49823694Y-65595667D01*
X49709244Y-65565000D01*
X49590756Y-65565000D01*
X49476306Y-65595667D01*
X49400000Y-65639722D01*
X49400000Y-64789014D01*
X49399999Y-64789014D01*
X49357294Y-64795778D01*
X49170164Y-64856581D01*
X48994856Y-64945904D01*
X48835678Y-65061555D01*
X48696555Y-65200678D01*
X48580904Y-65359856D01*
X48491581Y-65535164D01*
X48430778Y-65722294D01*
X48400000Y-65916617D01*
X40200500Y-65916617D01*
X40200500Y-63130234D01*
X41730500Y-63130234D01*
X41730500Y-63281766D01*
X41744895Y-63335491D01*
X41769719Y-63428136D01*
X41794208Y-63470551D01*
X41845485Y-63559365D01*
X41952635Y-63666515D01*
X42083865Y-63742281D01*
X42230234Y-63781500D01*
X42230236Y-63781500D01*
X42381764Y-63781500D01*
X42381766Y-63781500D01*
X42528135Y-63742281D01*
X42659365Y-63666515D01*
X42766515Y-63559365D01*
X42842281Y-63428135D01*
X42881500Y-63281766D01*
X42881500Y-63130234D01*
X42842281Y-62983865D01*
X42833585Y-62968804D01*
X42832129Y-62966281D01*
X42766515Y-62852635D01*
X42659365Y-62745485D01*
X42569268Y-62693467D01*
X42528136Y-62669719D01*
X42454542Y-62650000D01*
X42381766Y-62630500D01*
X42230234Y-62630500D01*
X42083863Y-62669719D01*
X41952635Y-62745485D01*
X41952632Y-62745487D01*
X41845487Y-62852632D01*
X41845485Y-62852635D01*
X41769719Y-62983863D01*
X41732706Y-63122000D01*
X41730500Y-63130234D01*
X40200500Y-63130234D01*
X40200500Y-59137399D01*
X46174500Y-59137399D01*
X46174500Y-59262601D01*
X46206905Y-59383536D01*
X46269505Y-59491964D01*
X46358036Y-59580495D01*
X46466464Y-59643095D01*
X46587399Y-59675500D01*
X46587401Y-59675500D01*
X46712599Y-59675500D01*
X46712601Y-59675500D01*
X46833536Y-59643095D01*
X46941964Y-59580495D01*
X47030495Y-59491964D01*
X47093095Y-59383536D01*
X47125500Y-59262601D01*
X47125500Y-59137399D01*
X47093095Y-59016464D01*
X47030495Y-58908036D01*
X46941964Y-58819505D01*
X46833536Y-58756905D01*
X46833537Y-58756905D01*
X46772977Y-58740678D01*
X46712601Y-58724500D01*
X46587399Y-58724500D01*
X46527023Y-58740678D01*
X46466463Y-58756905D01*
X46358037Y-58819504D01*
X46358034Y-58819506D01*
X46269506Y-58908034D01*
X46269504Y-58908037D01*
X46206905Y-59016463D01*
X46191177Y-59075160D01*
X46174500Y-59137399D01*
X40200500Y-59137399D01*
X40200500Y-58324234D01*
X47874500Y-58324234D01*
X47874500Y-58475766D01*
X47880350Y-58497599D01*
X47913719Y-58622136D01*
X47944529Y-58675500D01*
X47989485Y-58753365D01*
X48096635Y-58860515D01*
X48193541Y-58916464D01*
X48220304Y-58931916D01*
X48227865Y-58936281D01*
X48374234Y-58975500D01*
X48374235Y-58975500D01*
X48382084Y-58977603D01*
X48381440Y-58980006D01*
X48433880Y-59003191D01*
X48472363Y-59061507D01*
X48473210Y-59131372D01*
X48471749Y-59136199D01*
X48430778Y-59262293D01*
X48430778Y-59262294D01*
X48400000Y-59456617D01*
X48400000Y-60205000D01*
X49200000Y-60205000D01*
X49200000Y-60705000D01*
X48400000Y-60705000D01*
X48400000Y-61453382D01*
X48430778Y-61647705D01*
X48491581Y-61834835D01*
X48580904Y-62010143D01*
X48696555Y-62169321D01*
X48835678Y-62308444D01*
X48994856Y-62424095D01*
X49170162Y-62513418D01*
X49357283Y-62574218D01*
X49400000Y-62580984D01*
X49400000Y-61730277D01*
X49476306Y-61774333D01*
X49590756Y-61805000D01*
X49709244Y-61805000D01*
X49823694Y-61774333D01*
X49900000Y-61730277D01*
X49900000Y-62580983D01*
X49942716Y-62574218D01*
X50129837Y-62513418D01*
X50305143Y-62424095D01*
X50464321Y-62308444D01*
X50603444Y-62169321D01*
X50719095Y-62010143D01*
X50808418Y-61834835D01*
X50869221Y-61647705D01*
X50900000Y-61453382D01*
X50900000Y-60705000D01*
X50100000Y-60705000D01*
X50100000Y-60205000D01*
X50900000Y-60205000D01*
X50900000Y-59456617D01*
X62900000Y-59456617D01*
X62900000Y-60205000D01*
X63700000Y-60205000D01*
X63700000Y-60705000D01*
X62900000Y-60705000D01*
X62900000Y-61453382D01*
X62930778Y-61647705D01*
X62991581Y-61834835D01*
X63080904Y-62010143D01*
X63196555Y-62169321D01*
X63335678Y-62308444D01*
X63494856Y-62424095D01*
X63670162Y-62513418D01*
X63857283Y-62574218D01*
X63900000Y-62580984D01*
X63900000Y-61730277D01*
X63976306Y-61774333D01*
X64090756Y-61805000D01*
X64209244Y-61805000D01*
X64323694Y-61774333D01*
X64400000Y-61730277D01*
X64400000Y-62580983D01*
X64442716Y-62574218D01*
X64629837Y-62513418D01*
X64805143Y-62424095D01*
X64964321Y-62308444D01*
X65036186Y-62236579D01*
X68350000Y-62236579D01*
X68350000Y-62590000D01*
X69100000Y-62590000D01*
X69100000Y-63090000D01*
X68350000Y-63090000D01*
X68350000Y-63443420D01*
X68390348Y-63646266D01*
X68390350Y-63646274D01*
X68469500Y-63837358D01*
X68469505Y-63837368D01*
X68584410Y-64009335D01*
X68584413Y-64009339D01*
X68730660Y-64155586D01*
X68730664Y-64155589D01*
X68902631Y-64270494D01*
X68902641Y-64270499D01*
X69093723Y-64349648D01*
X69093725Y-64349649D01*
X69150000Y-64360842D01*
X69150000Y-63506988D01*
X69159940Y-63524205D01*
X69215795Y-63580060D01*
X69284204Y-63619556D01*
X69360504Y-63640000D01*
X69439496Y-63640000D01*
X69515796Y-63619556D01*
X69584205Y-63580060D01*
X69640060Y-63524205D01*
X69650000Y-63506988D01*
X69650000Y-64360842D01*
X69706274Y-64349649D01*
X69706276Y-64349648D01*
X69897358Y-64270499D01*
X69897368Y-64270494D01*
X70069335Y-64155589D01*
X70069339Y-64155586D01*
X70215586Y-64009339D01*
X70215589Y-64009335D01*
X70330494Y-63837368D01*
X70330499Y-63837358D01*
X70409649Y-63646274D01*
X70409651Y-63646266D01*
X70449999Y-63443420D01*
X70450000Y-63443417D01*
X70450000Y-63090000D01*
X69700000Y-63090000D01*
X69700000Y-62590000D01*
X70450000Y-62590000D01*
X70450000Y-62236583D01*
X70449999Y-62236579D01*
X70409651Y-62033733D01*
X70409649Y-62033725D01*
X70344617Y-61876724D01*
X70330499Y-61842640D01*
X70330494Y-61842631D01*
X70326998Y-61837399D01*
X72924500Y-61837399D01*
X72924500Y-61962601D01*
X72956905Y-62083536D01*
X73019505Y-62191964D01*
X73108036Y-62280495D01*
X73216464Y-62343095D01*
X73337399Y-62375500D01*
X73351592Y-62375500D01*
X73363109Y-62378882D01*
X73375061Y-62377741D01*
X73396015Y-62388544D01*
X73418631Y-62395185D01*
X73428043Y-62405056D01*
X73437163Y-62409758D01*
X73458977Y-62437498D01*
X73489552Y-62490455D01*
X73516110Y-62536456D01*
X73532581Y-62604357D01*
X73509728Y-62670383D01*
X73454807Y-62713573D01*
X73438236Y-62717910D01*
X73438407Y-62718548D01*
X73430558Y-62720651D01*
X73430557Y-62720651D01*
X73358517Y-62739954D01*
X73309621Y-62753056D01*
X73201195Y-62815655D01*
X73201192Y-62815657D01*
X73112664Y-62904185D01*
X73112662Y-62904188D01*
X73050063Y-63012614D01*
X73046210Y-63026993D01*
X73017658Y-63133550D01*
X73017658Y-63258752D01*
X73050063Y-63379687D01*
X73112663Y-63488115D01*
X73201194Y-63576646D01*
X73309622Y-63639246D01*
X73430557Y-63671651D01*
X73430559Y-63671651D01*
X73555757Y-63671651D01*
X73555759Y-63671651D01*
X73676694Y-63639246D01*
X73785122Y-63576646D01*
X73873653Y-63488115D01*
X73873656Y-63488108D01*
X73877775Y-63482743D01*
X73934204Y-63441542D01*
X74003950Y-63437389D01*
X74063830Y-63470551D01*
X74125729Y-63532450D01*
X74234157Y-63595050D01*
X74355092Y-63627455D01*
X74355094Y-63627455D01*
X74480292Y-63627455D01*
X74480294Y-63627455D01*
X74601229Y-63595050D01*
X74709657Y-63532450D01*
X74798188Y-63443919D01*
X74860788Y-63335491D01*
X74893193Y-63214556D01*
X74893193Y-63089354D01*
X74860788Y-62968419D01*
X74798188Y-62859991D01*
X74709657Y-62771460D01*
X74601229Y-62708860D01*
X74601230Y-62708860D01*
X74560917Y-62698058D01*
X74480294Y-62676455D01*
X74417835Y-62676455D01*
X74350796Y-62656770D01*
X74305041Y-62603966D01*
X74295097Y-62534808D01*
X74310448Y-62490455D01*
X74343095Y-62433908D01*
X74375500Y-62312973D01*
X74375500Y-62236579D01*
X76990000Y-62236579D01*
X76990000Y-62590000D01*
X77740000Y-62590000D01*
X77740000Y-63090000D01*
X76990000Y-63090000D01*
X76990000Y-63443420D01*
X77030348Y-63646266D01*
X77030350Y-63646274D01*
X77109500Y-63837358D01*
X77109505Y-63837368D01*
X77224410Y-64009335D01*
X77224413Y-64009339D01*
X77370660Y-64155586D01*
X77370664Y-64155589D01*
X77542631Y-64270494D01*
X77542641Y-64270499D01*
X77733723Y-64349648D01*
X77733725Y-64349649D01*
X77790000Y-64360842D01*
X77790000Y-63506988D01*
X77799940Y-63524205D01*
X77855795Y-63580060D01*
X77924204Y-63619556D01*
X78000504Y-63640000D01*
X78079496Y-63640000D01*
X78155796Y-63619556D01*
X78224205Y-63580060D01*
X78280060Y-63524205D01*
X78290000Y-63506988D01*
X78290000Y-64099119D01*
X78273388Y-64161118D01*
X78263719Y-64177864D01*
X78263719Y-64177865D01*
X78224500Y-64324234D01*
X78224500Y-64475765D01*
X78263719Y-64622136D01*
X78269973Y-64632968D01*
X78339485Y-64753365D01*
X78446635Y-64860515D01*
X78577865Y-64936281D01*
X78724234Y-64975500D01*
X78724236Y-64975500D01*
X78875764Y-64975500D01*
X78875766Y-64975500D01*
X79022135Y-64936281D01*
X79153365Y-64860515D01*
X79260515Y-64753365D01*
X79336281Y-64622135D01*
X79375500Y-64475766D01*
X79375500Y-64324234D01*
X79336281Y-64177865D01*
X79325272Y-64158797D01*
X79266566Y-64057115D01*
X79262552Y-64050163D01*
X79260515Y-64046635D01*
X79215082Y-64001202D01*
X80700000Y-64001202D01*
X80700000Y-64158797D01*
X80730741Y-64313343D01*
X80730743Y-64313351D01*
X80784153Y-64442293D01*
X81146446Y-64080001D01*
X81146446Y-64079999D01*
X80784153Y-63717705D01*
X80730743Y-63846648D01*
X80730741Y-63846656D01*
X80700000Y-64001202D01*
X79215082Y-64001202D01*
X79153365Y-63939485D01*
X79065828Y-63888945D01*
X79017613Y-63838377D01*
X79004391Y-63769770D01*
X79013268Y-63734104D01*
X79049650Y-63646270D01*
X79049651Y-63646266D01*
X79089999Y-63443420D01*
X79090000Y-63443417D01*
X79090000Y-63364153D01*
X81137705Y-63364153D01*
X81589095Y-63815542D01*
X81622580Y-63876865D01*
X81617596Y-63946556D01*
X81602374Y-63970242D01*
X81584968Y-63952836D01*
X81529837Y-63930000D01*
X81470163Y-63930000D01*
X81415032Y-63952836D01*
X81372836Y-63995032D01*
X81350000Y-64050163D01*
X81350000Y-64109837D01*
X81372836Y-64164968D01*
X81415032Y-64207164D01*
X81470163Y-64230000D01*
X81529837Y-64230000D01*
X81584968Y-64207164D01*
X81601082Y-64191049D01*
X81622580Y-64230418D01*
X81617596Y-64300110D01*
X81589095Y-64344457D01*
X81137706Y-64795845D01*
X81139850Y-64806624D01*
X81145666Y-64815675D01*
X81157855Y-64825497D01*
X81164168Y-64844463D01*
X81174977Y-64861283D01*
X81178939Y-64888842D01*
X81179921Y-64891791D01*
X81180000Y-64896218D01*
X81180000Y-64983779D01*
X81160315Y-65050818D01*
X81141008Y-65067547D01*
X81137705Y-65084152D01*
X81589095Y-65535542D01*
X81622580Y-65596865D01*
X81617596Y-65666557D01*
X81602374Y-65690242D01*
X81584968Y-65672836D01*
X81529837Y-65650000D01*
X81470163Y-65650000D01*
X81415032Y-65672836D01*
X81372836Y-65715032D01*
X81350000Y-65770163D01*
X81350000Y-65829837D01*
X81372836Y-65884968D01*
X81415032Y-65927164D01*
X81470163Y-65950000D01*
X81529837Y-65950000D01*
X81584968Y-65927164D01*
X81601082Y-65911049D01*
X81622580Y-65950418D01*
X81617596Y-66020110D01*
X81589095Y-66064457D01*
X81137705Y-66515845D01*
X81266652Y-66569257D01*
X81266656Y-66569258D01*
X81421202Y-66599999D01*
X81421206Y-66600000D01*
X81578794Y-66600000D01*
X81578797Y-66599999D01*
X81733343Y-66569258D01*
X81733351Y-66569256D01*
X81878939Y-66508952D01*
X81878947Y-66508947D01*
X81911109Y-66487458D01*
X81977786Y-66466580D01*
X82045166Y-66485064D01*
X82048891Y-66487458D01*
X82081052Y-66508947D01*
X82081060Y-66508952D01*
X82226648Y-66569256D01*
X82226656Y-66569258D01*
X82381202Y-66599999D01*
X82381206Y-66600000D01*
X82538794Y-66600000D01*
X82538797Y-66599999D01*
X82693343Y-66569258D01*
X82693347Y-66569257D01*
X82822293Y-66515845D01*
X82370904Y-66064457D01*
X82337419Y-66003134D01*
X82342403Y-65933443D01*
X82357624Y-65909756D01*
X82375032Y-65927164D01*
X82430163Y-65950000D01*
X82489837Y-65950000D01*
X82544968Y-65927164D01*
X82587164Y-65884968D01*
X82610000Y-65829837D01*
X82610000Y-65799999D01*
X82813553Y-65799999D01*
X82813553Y-65800001D01*
X83175845Y-66162293D01*
X83229257Y-66033347D01*
X83229258Y-66033343D01*
X83248343Y-65937399D01*
X85724500Y-65937399D01*
X85724500Y-66062601D01*
X85756905Y-66183536D01*
X85819505Y-66291964D01*
X85908036Y-66380495D01*
X86016464Y-66443095D01*
X86137399Y-66475500D01*
X86137401Y-66475500D01*
X86262599Y-66475500D01*
X86262601Y-66475500D01*
X86383536Y-66443095D01*
X86491964Y-66380495D01*
X86580495Y-66291964D01*
X86643095Y-66183536D01*
X86675500Y-66062601D01*
X86675500Y-65937399D01*
X86643095Y-65816464D01*
X86580495Y-65708036D01*
X86491964Y-65619505D01*
X86383536Y-65556905D01*
X86383537Y-65556905D01*
X86343224Y-65546103D01*
X86262601Y-65524500D01*
X86137399Y-65524500D01*
X86056775Y-65546103D01*
X86016463Y-65556905D01*
X85908037Y-65619504D01*
X85908034Y-65619506D01*
X85819506Y-65708034D01*
X85819504Y-65708037D01*
X85756905Y-65816463D01*
X85750248Y-65841306D01*
X85724500Y-65937399D01*
X83248343Y-65937399D01*
X83254766Y-65905109D01*
X83254771Y-65905081D01*
X83260000Y-65878791D01*
X83260000Y-65721206D01*
X83259999Y-65721202D01*
X83229258Y-65566656D01*
X83229257Y-65566652D01*
X83175845Y-65437706D01*
X82813553Y-65799999D01*
X82610000Y-65799999D01*
X82610000Y-65770163D01*
X82587164Y-65715032D01*
X82544968Y-65672836D01*
X82489837Y-65650000D01*
X82430163Y-65650000D01*
X82375032Y-65672836D01*
X82358916Y-65688951D01*
X82337418Y-65649580D01*
X82342402Y-65579888D01*
X82370903Y-65535541D01*
X82822293Y-65084151D01*
X82820149Y-65073372D01*
X82814331Y-65064319D01*
X82802143Y-65054497D01*
X82795830Y-65035531D01*
X82785023Y-65018714D01*
X82781059Y-64991149D01*
X82780079Y-64988203D01*
X82780000Y-64983779D01*
X82780000Y-64896218D01*
X82799685Y-64829179D01*
X82818989Y-64812451D01*
X82822292Y-64795845D01*
X82370904Y-64344457D01*
X82337419Y-64283134D01*
X82342403Y-64213442D01*
X82357624Y-64189756D01*
X82375032Y-64207164D01*
X82430163Y-64230000D01*
X82489837Y-64230000D01*
X82544968Y-64207164D01*
X82587164Y-64164968D01*
X82610000Y-64109837D01*
X82610000Y-64079999D01*
X82813553Y-64079999D01*
X82813553Y-64080001D01*
X83175845Y-64442293D01*
X83229257Y-64313347D01*
X83229258Y-64313343D01*
X83259999Y-64158797D01*
X83260000Y-64158794D01*
X83260000Y-64096687D01*
X83755809Y-64096687D01*
X83755809Y-64248219D01*
X83761779Y-64270499D01*
X83795028Y-64394589D01*
X83829763Y-64454751D01*
X83870794Y-64525818D01*
X83977944Y-64632968D01*
X84109174Y-64708734D01*
X84255543Y-64747953D01*
X84255545Y-64747953D01*
X84407073Y-64747953D01*
X84407075Y-64747953D01*
X84553444Y-64708734D01*
X84684674Y-64632968D01*
X84791824Y-64525818D01*
X84867590Y-64394588D01*
X84906809Y-64248219D01*
X84906809Y-64096687D01*
X84880644Y-63999036D01*
X84882307Y-63929188D01*
X84921470Y-63871326D01*
X84968323Y-63847171D01*
X84983536Y-63843095D01*
X84993402Y-63837399D01*
X85861814Y-63837399D01*
X85861814Y-63962601D01*
X85894219Y-64083536D01*
X85956819Y-64191964D01*
X86045350Y-64280495D01*
X86153778Y-64343095D01*
X86274713Y-64375500D01*
X86274715Y-64375500D01*
X86399913Y-64375500D01*
X86399915Y-64375500D01*
X86469195Y-64356936D01*
X86539042Y-64358599D01*
X86596905Y-64397761D01*
X86621786Y-64454914D01*
X86622397Y-64454751D01*
X86623488Y-64458823D01*
X86624225Y-64460516D01*
X86624498Y-64462595D01*
X86641439Y-64525817D01*
X86656905Y-64583536D01*
X86719505Y-64691964D01*
X86808036Y-64780495D01*
X86916464Y-64843095D01*
X87037399Y-64875500D01*
X87037401Y-64875500D01*
X87162599Y-64875500D01*
X87162601Y-64875500D01*
X87283536Y-64843095D01*
X87391964Y-64780495D01*
X87480495Y-64691964D01*
X87543095Y-64583536D01*
X87575500Y-64462601D01*
X87575500Y-64337399D01*
X87543095Y-64216464D01*
X87480495Y-64108036D01*
X87391964Y-64019505D01*
X87283536Y-63956905D01*
X87283537Y-63956905D01*
X87232001Y-63943096D01*
X87162601Y-63924500D01*
X87037399Y-63924500D01*
X87037398Y-63924500D01*
X86968119Y-63943063D01*
X86898269Y-63941400D01*
X86840407Y-63902237D01*
X86815529Y-63845084D01*
X86814917Y-63845249D01*
X86813821Y-63841160D01*
X86813087Y-63839473D01*
X86812814Y-63837401D01*
X86812814Y-63837400D01*
X86812814Y-63837399D01*
X86780409Y-63716464D01*
X86717809Y-63608036D01*
X86629278Y-63519505D01*
X86520850Y-63456905D01*
X86520851Y-63456905D01*
X86470513Y-63443417D01*
X86399915Y-63424500D01*
X86274713Y-63424500D01*
X86204115Y-63443417D01*
X86153777Y-63456905D01*
X86045351Y-63519504D01*
X86045348Y-63519506D01*
X85956820Y-63608034D01*
X85956818Y-63608037D01*
X85894219Y-63716463D01*
X85887301Y-63742281D01*
X85861814Y-63837399D01*
X84993402Y-63837399D01*
X85091964Y-63780495D01*
X85180495Y-63691964D01*
X85243095Y-63583536D01*
X85275500Y-63462601D01*
X85275500Y-63337399D01*
X85243095Y-63216464D01*
X85180495Y-63108036D01*
X85091964Y-63019505D01*
X84983536Y-62956905D01*
X84983537Y-62956905D01*
X84943224Y-62946103D01*
X84862601Y-62924500D01*
X84737399Y-62924500D01*
X84656775Y-62946103D01*
X84616463Y-62956905D01*
X84508037Y-63019504D01*
X84508034Y-63019506D01*
X84419506Y-63108034D01*
X84419504Y-63108037D01*
X84356905Y-63216463D01*
X84356905Y-63216464D01*
X84325012Y-63335491D01*
X84324500Y-63337400D01*
X84324500Y-63462604D01*
X84325041Y-63466714D01*
X84324500Y-63470183D01*
X84324500Y-63470729D01*
X84324415Y-63470729D01*
X84314275Y-63535749D01*
X84267895Y-63588004D01*
X84234196Y-63602672D01*
X84109174Y-63636172D01*
X84109172Y-63636172D01*
X84109172Y-63636173D01*
X83977944Y-63711938D01*
X83977941Y-63711940D01*
X83870796Y-63819085D01*
X83870794Y-63819088D01*
X83795028Y-63950316D01*
X83769260Y-64046487D01*
X83755809Y-64096687D01*
X83260000Y-64096687D01*
X83260000Y-64001206D01*
X83259999Y-64001202D01*
X83229258Y-63846656D01*
X83229257Y-63846652D01*
X83175845Y-63717706D01*
X82813553Y-64079999D01*
X82610000Y-64079999D01*
X82610000Y-64050163D01*
X82587164Y-63995032D01*
X82544968Y-63952836D01*
X82489837Y-63930000D01*
X82430163Y-63930000D01*
X82375032Y-63952836D01*
X82358916Y-63968951D01*
X82337419Y-63929581D01*
X82342403Y-63859889D01*
X82370904Y-63815542D01*
X82822293Y-63364153D01*
X82693351Y-63310743D01*
X82693343Y-63310741D01*
X82538797Y-63280000D01*
X82381202Y-63280000D01*
X82226656Y-63310741D01*
X82226648Y-63310743D01*
X82081058Y-63371048D01*
X82048888Y-63392543D01*
X81982210Y-63413419D01*
X81914831Y-63394933D01*
X81911112Y-63392543D01*
X81878941Y-63371048D01*
X81733351Y-63310743D01*
X81733343Y-63310741D01*
X81578797Y-63280000D01*
X81421202Y-63280000D01*
X81266656Y-63310741D01*
X81266648Y-63310743D01*
X81137705Y-63364153D01*
X79090000Y-63364153D01*
X79090000Y-63090000D01*
X78340000Y-63090000D01*
X78340000Y-62590000D01*
X79090000Y-62590000D01*
X79090000Y-62236583D01*
X79089999Y-62236579D01*
X79049651Y-62033733D01*
X79049649Y-62033726D01*
X79045299Y-62023222D01*
X79045298Y-62023221D01*
X79029010Y-61983899D01*
X82824500Y-61983899D01*
X82824500Y-62109101D01*
X82846704Y-62191965D01*
X82856905Y-62230036D01*
X82888350Y-62284501D01*
X82904821Y-62352401D01*
X82888350Y-62408499D01*
X82856905Y-62462963D01*
X82856905Y-62462964D01*
X82824500Y-62583899D01*
X82824500Y-62709101D01*
X82856905Y-62830036D01*
X82919505Y-62938464D01*
X83008036Y-63026995D01*
X83116464Y-63089595D01*
X83237399Y-63122000D01*
X83237401Y-63122000D01*
X83362599Y-63122000D01*
X83362601Y-63122000D01*
X83483536Y-63089595D01*
X83591964Y-63026995D01*
X83680495Y-62938464D01*
X83743095Y-62830036D01*
X83775500Y-62709101D01*
X83775500Y-62583899D01*
X83743095Y-62462964D01*
X83711649Y-62408498D01*
X83695177Y-62340600D01*
X83711650Y-62284501D01*
X83743095Y-62230036D01*
X83775500Y-62109101D01*
X83775500Y-61983899D01*
X89824500Y-61983899D01*
X89824500Y-62109101D01*
X89846704Y-62191965D01*
X89856905Y-62230036D01*
X89888350Y-62284501D01*
X89904821Y-62352401D01*
X89888350Y-62408499D01*
X89856905Y-62462963D01*
X89856905Y-62462964D01*
X89824500Y-62583899D01*
X89824500Y-62709101D01*
X89856905Y-62830036D01*
X89919505Y-62938464D01*
X90008036Y-63026995D01*
X90062645Y-63058523D01*
X90110860Y-63109089D01*
X90124084Y-63177696D01*
X90108033Y-63227909D01*
X90056906Y-63316464D01*
X90051296Y-63337400D01*
X90024501Y-63437400D01*
X90024501Y-63562602D01*
X90056906Y-63683537D01*
X90119506Y-63791965D01*
X90208037Y-63880496D01*
X90316465Y-63943096D01*
X90332078Y-63947279D01*
X90391735Y-63983641D01*
X90422266Y-64046487D01*
X90413972Y-64115863D01*
X90407371Y-64129052D01*
X90356905Y-64216463D01*
X90356905Y-64216464D01*
X90324500Y-64337399D01*
X90324500Y-64462601D01*
X90356905Y-64583536D01*
X90419505Y-64691964D01*
X90508036Y-64780495D01*
X90616464Y-64843095D01*
X90737399Y-64875500D01*
X90737401Y-64875500D01*
X90862599Y-64875500D01*
X90862601Y-64875500D01*
X90983536Y-64843095D01*
X91091964Y-64780495D01*
X91180495Y-64691964D01*
X91243095Y-64583536D01*
X91275500Y-64462601D01*
X91275500Y-64337399D01*
X91243095Y-64216464D01*
X91180495Y-64108036D01*
X91091964Y-64019505D01*
X90983536Y-63956905D01*
X90983537Y-63956905D01*
X90978505Y-63955557D01*
X90967921Y-63952720D01*
X90908263Y-63916356D01*
X90877734Y-63853509D01*
X90886029Y-63784134D01*
X90892626Y-63770954D01*
X90943096Y-63683537D01*
X90975501Y-63562602D01*
X90975501Y-63437400D01*
X90943096Y-63316465D01*
X90880496Y-63208037D01*
X90791965Y-63119506D01*
X90728443Y-63082832D01*
X90720498Y-63076285D01*
X90706432Y-63055546D01*
X90689140Y-63037411D01*
X90687157Y-63027128D01*
X90681279Y-63018460D01*
X90680658Y-62993408D01*
X90675916Y-62968804D01*
X90679751Y-62956804D01*
X90679549Y-62948612D01*
X90685496Y-62938832D01*
X90691966Y-62918594D01*
X90743095Y-62830036D01*
X90775500Y-62709101D01*
X90775500Y-62650000D01*
X96319157Y-62650000D01*
X97173012Y-62650000D01*
X97155795Y-62659940D01*
X97099940Y-62715795D01*
X97060444Y-62784204D01*
X97040000Y-62860504D01*
X97040000Y-62939496D01*
X97060444Y-63015796D01*
X97099940Y-63084205D01*
X97155795Y-63140060D01*
X97173012Y-63150000D01*
X96319157Y-63150000D01*
X96330350Y-63206274D01*
X96330351Y-63206276D01*
X96409500Y-63397358D01*
X96409505Y-63397368D01*
X96524410Y-63569335D01*
X96524413Y-63569339D01*
X96670660Y-63715586D01*
X96670664Y-63715589D01*
X96842631Y-63830494D01*
X96842641Y-63830499D01*
X97033725Y-63909649D01*
X97033733Y-63909651D01*
X97236579Y-63949999D01*
X97236583Y-63950000D01*
X97590000Y-63950000D01*
X97590000Y-63200000D01*
X98090000Y-63200000D01*
X98090000Y-63950000D01*
X98443417Y-63950000D01*
X98443420Y-63949999D01*
X98646266Y-63909651D01*
X98646274Y-63909649D01*
X98837358Y-63830499D01*
X98837368Y-63830494D01*
X99009335Y-63715589D01*
X99009339Y-63715586D01*
X99155586Y-63569339D01*
X99155589Y-63569335D01*
X99270494Y-63397368D01*
X99270499Y-63397358D01*
X99349648Y-63206276D01*
X99349649Y-63206274D01*
X99360843Y-63150000D01*
X98506988Y-63150000D01*
X98524205Y-63140060D01*
X98580060Y-63084205D01*
X98619556Y-63015796D01*
X98640000Y-62939496D01*
X98640000Y-62860504D01*
X98619556Y-62784204D01*
X98580060Y-62715795D01*
X98524205Y-62659940D01*
X98506988Y-62650000D01*
X99360843Y-62650000D01*
X99349649Y-62593725D01*
X99349648Y-62593723D01*
X99270499Y-62402641D01*
X99270494Y-62402631D01*
X99155589Y-62230664D01*
X99155586Y-62230660D01*
X99009339Y-62084413D01*
X99009335Y-62084410D01*
X98837368Y-61969505D01*
X98837358Y-61969500D01*
X98646274Y-61890350D01*
X98646266Y-61890348D01*
X98443420Y-61850000D01*
X98090000Y-61850000D01*
X98090000Y-62600000D01*
X97590000Y-62600000D01*
X97590000Y-61850000D01*
X97236579Y-61850000D01*
X97033733Y-61890348D01*
X97033725Y-61890350D01*
X96842641Y-61969500D01*
X96842631Y-61969505D01*
X96670664Y-62084410D01*
X96670660Y-62084413D01*
X96524413Y-62230660D01*
X96524410Y-62230664D01*
X96409505Y-62402631D01*
X96409500Y-62402641D01*
X96330351Y-62593723D01*
X96330350Y-62593725D01*
X96319157Y-62650000D01*
X90775500Y-62650000D01*
X90775500Y-62583899D01*
X90743095Y-62462964D01*
X90711649Y-62408498D01*
X90695177Y-62340600D01*
X90711650Y-62284501D01*
X90743095Y-62230036D01*
X90775500Y-62109101D01*
X90775500Y-61983899D01*
X90743095Y-61862964D01*
X90680495Y-61754536D01*
X90591964Y-61666005D01*
X90483536Y-61603405D01*
X90483537Y-61603405D01*
X90443224Y-61592603D01*
X90362601Y-61571000D01*
X90237399Y-61571000D01*
X90156775Y-61592603D01*
X90116463Y-61603405D01*
X90008037Y-61666004D01*
X90008034Y-61666006D01*
X89919506Y-61754534D01*
X89919504Y-61754537D01*
X89856905Y-61862963D01*
X89855052Y-61869878D01*
X89824500Y-61983899D01*
X83775500Y-61983899D01*
X83743095Y-61862964D01*
X83680495Y-61754536D01*
X83591964Y-61666005D01*
X83483536Y-61603405D01*
X83483537Y-61603405D01*
X83443224Y-61592603D01*
X83362601Y-61571000D01*
X83237399Y-61571000D01*
X83156775Y-61592603D01*
X83116463Y-61603405D01*
X83008037Y-61666004D01*
X83008034Y-61666006D01*
X82919506Y-61754534D01*
X82919504Y-61754537D01*
X82856905Y-61862963D01*
X82855052Y-61869878D01*
X82824500Y-61983899D01*
X79029010Y-61983899D01*
X78970499Y-61842641D01*
X78970494Y-61842631D01*
X78855589Y-61670664D01*
X78855586Y-61670660D01*
X78709339Y-61524413D01*
X78709335Y-61524410D01*
X78537368Y-61409505D01*
X78537358Y-61409500D01*
X78346272Y-61330349D01*
X78346267Y-61330347D01*
X78290000Y-61319155D01*
X78290000Y-62173011D01*
X78280060Y-62155795D01*
X78224205Y-62099940D01*
X78155796Y-62060444D01*
X78079496Y-62040000D01*
X78000504Y-62040000D01*
X77924204Y-62060444D01*
X77855795Y-62099940D01*
X77799940Y-62155795D01*
X77790000Y-62173011D01*
X77790000Y-61319156D01*
X77789999Y-61319155D01*
X77733732Y-61330347D01*
X77733727Y-61330349D01*
X77542641Y-61409500D01*
X77542631Y-61409505D01*
X77370664Y-61524410D01*
X77370660Y-61524413D01*
X77224413Y-61670660D01*
X77224410Y-61670664D01*
X77109505Y-61842631D01*
X77109500Y-61842641D01*
X77030350Y-62033725D01*
X77030348Y-62033733D01*
X76990000Y-62236579D01*
X74375500Y-62236579D01*
X74375500Y-62187771D01*
X74343095Y-62066836D01*
X74280495Y-61958408D01*
X74191964Y-61869877D01*
X74083536Y-61807277D01*
X74083537Y-61807277D01*
X74043224Y-61796475D01*
X73962601Y-61774872D01*
X73962599Y-61774872D01*
X73948408Y-61774872D01*
X73881369Y-61755187D01*
X73841021Y-61712872D01*
X73780495Y-61608036D01*
X73691964Y-61519505D01*
X73583536Y-61456905D01*
X73583537Y-61456905D01*
X73543224Y-61446103D01*
X73462601Y-61424500D01*
X73337399Y-61424500D01*
X73256775Y-61446103D01*
X73216463Y-61456905D01*
X73108037Y-61519504D01*
X73108034Y-61519506D01*
X73019506Y-61608034D01*
X73019504Y-61608037D01*
X72956905Y-61716463D01*
X72956905Y-61716464D01*
X72924500Y-61837399D01*
X70326998Y-61837399D01*
X70215589Y-61670664D01*
X70215586Y-61670660D01*
X70069339Y-61524413D01*
X70069335Y-61524410D01*
X69897368Y-61409505D01*
X69897358Y-61409500D01*
X69706272Y-61330349D01*
X69706267Y-61330347D01*
X69650000Y-61319155D01*
X69650000Y-62173011D01*
X69640060Y-62155795D01*
X69584205Y-62099940D01*
X69515796Y-62060444D01*
X69439496Y-62040000D01*
X69360504Y-62040000D01*
X69284204Y-62060444D01*
X69215795Y-62099940D01*
X69159940Y-62155795D01*
X69150000Y-62173011D01*
X69150000Y-61319156D01*
X69149999Y-61319155D01*
X69093732Y-61330347D01*
X69093727Y-61330349D01*
X68902641Y-61409500D01*
X68902631Y-61409505D01*
X68730664Y-61524410D01*
X68730660Y-61524413D01*
X68584413Y-61670660D01*
X68584410Y-61670664D01*
X68469505Y-61842631D01*
X68469500Y-61842641D01*
X68390350Y-62033725D01*
X68390348Y-62033733D01*
X68350000Y-62236579D01*
X65036186Y-62236579D01*
X65103443Y-62169322D01*
X65103448Y-62169316D01*
X65111956Y-62157607D01*
X65111956Y-62157606D01*
X65219095Y-62010143D01*
X65308418Y-61834835D01*
X65369221Y-61647705D01*
X65400000Y-61453382D01*
X65400000Y-60959234D01*
X71246522Y-60959234D01*
X71246522Y-61110766D01*
X71253359Y-61136281D01*
X71285741Y-61257136D01*
X71321548Y-61319155D01*
X71361507Y-61388365D01*
X71468657Y-61495515D01*
X71599887Y-61571281D01*
X71746256Y-61610500D01*
X71746258Y-61610500D01*
X71897786Y-61610500D01*
X71897788Y-61610500D01*
X72044157Y-61571281D01*
X72175387Y-61495515D01*
X72282537Y-61388365D01*
X72358303Y-61257135D01*
X72397522Y-61110766D01*
X72397522Y-60959234D01*
X72358303Y-60812865D01*
X72282537Y-60681635D01*
X72175387Y-60574485D01*
X72088350Y-60524234D01*
X74624500Y-60524234D01*
X74624500Y-60675765D01*
X74663719Y-60822136D01*
X74701602Y-60887750D01*
X74739485Y-60953365D01*
X74846635Y-61060515D01*
X74977865Y-61136281D01*
X75124234Y-61175500D01*
X75124236Y-61175500D01*
X75275764Y-61175500D01*
X75275766Y-61175500D01*
X75422135Y-61136281D01*
X75553365Y-61060515D01*
X75660515Y-60953365D01*
X75736281Y-60822135D01*
X75775500Y-60675766D01*
X75775500Y-60524234D01*
X86124500Y-60524234D01*
X86124500Y-60675765D01*
X86163719Y-60822136D01*
X86201602Y-60887750D01*
X86239485Y-60953365D01*
X86346635Y-61060515D01*
X86477865Y-61136281D01*
X86624234Y-61175500D01*
X86624236Y-61175500D01*
X86775764Y-61175500D01*
X86775766Y-61175500D01*
X86922135Y-61136281D01*
X87053365Y-61060515D01*
X87160515Y-60953365D01*
X87236281Y-60822135D01*
X87275500Y-60675766D01*
X87275500Y-60524234D01*
X87236281Y-60377865D01*
X87160515Y-60246635D01*
X87053365Y-60139485D01*
X86992309Y-60104234D01*
X95824500Y-60104234D01*
X95824500Y-60255765D01*
X95863719Y-60402136D01*
X95896839Y-60459500D01*
X95939485Y-60533365D01*
X96046635Y-60640515D01*
X96177865Y-60716281D01*
X96324234Y-60755500D01*
X96324236Y-60755500D01*
X96475764Y-60755500D01*
X96475766Y-60755500D01*
X96622135Y-60716281D01*
X96753365Y-60640515D01*
X96860515Y-60533365D01*
X96936281Y-60402135D01*
X96975500Y-60255766D01*
X96975500Y-60104234D01*
X96936281Y-59957865D01*
X96860515Y-59826635D01*
X96753365Y-59719485D01*
X96677181Y-59675500D01*
X96622136Y-59643719D01*
X96548950Y-59624109D01*
X96475766Y-59604500D01*
X96324234Y-59604500D01*
X96177863Y-59643719D01*
X96046635Y-59719485D01*
X96046632Y-59719487D01*
X95939487Y-59826632D01*
X95939485Y-59826635D01*
X95863719Y-59957863D01*
X95824500Y-60104234D01*
X86992309Y-60104234D01*
X86987750Y-60101602D01*
X86922136Y-60063719D01*
X86848950Y-60044109D01*
X86775766Y-60024500D01*
X86624234Y-60024500D01*
X86477863Y-60063719D01*
X86346635Y-60139485D01*
X86346632Y-60139487D01*
X86239487Y-60246632D01*
X86239485Y-60246635D01*
X86163719Y-60377863D01*
X86124500Y-60524234D01*
X75775500Y-60524234D01*
X75736281Y-60377865D01*
X75660515Y-60246635D01*
X75553365Y-60139485D01*
X75487750Y-60101602D01*
X75422136Y-60063719D01*
X75348950Y-60044109D01*
X75275766Y-60024500D01*
X75124234Y-60024500D01*
X74977863Y-60063719D01*
X74846635Y-60139485D01*
X74846632Y-60139487D01*
X74739487Y-60246632D01*
X74739485Y-60246635D01*
X74663719Y-60377863D01*
X74624500Y-60524234D01*
X72088350Y-60524234D01*
X72044158Y-60498719D01*
X71970972Y-60479109D01*
X71897788Y-60459500D01*
X71746256Y-60459500D01*
X71599885Y-60498719D01*
X71468657Y-60574485D01*
X71468654Y-60574487D01*
X71361509Y-60681632D01*
X71361507Y-60681635D01*
X71285741Y-60812863D01*
X71248095Y-60953364D01*
X71246522Y-60959234D01*
X65400000Y-60959234D01*
X65400000Y-60705000D01*
X64600000Y-60705000D01*
X64600000Y-60205000D01*
X65400000Y-60205000D01*
X65400000Y-59456617D01*
X65369221Y-59262296D01*
X65308416Y-59075160D01*
X65291886Y-59042717D01*
X79984028Y-59042717D01*
X79984028Y-59167919D01*
X80016433Y-59288854D01*
X80079033Y-59397282D01*
X80167564Y-59485813D01*
X80275992Y-59548413D01*
X80396927Y-59580818D01*
X80396929Y-59580818D01*
X80522127Y-59580818D01*
X80522129Y-59580818D01*
X80643064Y-59548413D01*
X80751492Y-59485813D01*
X80840023Y-59397282D01*
X80902623Y-59288854D01*
X80935028Y-59167919D01*
X80935028Y-59042717D01*
X80933603Y-59037399D01*
X82637000Y-59037399D01*
X82637000Y-59162601D01*
X82669405Y-59283536D01*
X82732005Y-59391964D01*
X82820536Y-59480495D01*
X82928964Y-59543095D01*
X83049899Y-59575500D01*
X83049901Y-59575500D01*
X83175099Y-59575500D01*
X83175101Y-59575500D01*
X83296036Y-59543095D01*
X83404464Y-59480495D01*
X83492995Y-59391964D01*
X83555595Y-59283536D01*
X83588000Y-59162601D01*
X83588000Y-59037399D01*
X83555595Y-58916464D01*
X83492995Y-58808036D01*
X83404464Y-58719505D01*
X83296036Y-58656905D01*
X83296037Y-58656905D01*
X83244497Y-58643095D01*
X83175101Y-58624500D01*
X83049899Y-58624500D01*
X82980503Y-58643095D01*
X82928963Y-58656905D01*
X82820537Y-58719504D01*
X82820534Y-58719506D01*
X82732006Y-58808034D01*
X82732004Y-58808037D01*
X82669405Y-58916463D01*
X82664095Y-58936280D01*
X82637000Y-59037399D01*
X80933603Y-59037399D01*
X80902623Y-58921782D01*
X80840023Y-58813354D01*
X80751492Y-58724823D01*
X80643064Y-58662223D01*
X80643065Y-58662223D01*
X80602752Y-58651421D01*
X80522129Y-58629818D01*
X80396927Y-58629818D01*
X80316303Y-58651421D01*
X80275991Y-58662223D01*
X80167565Y-58724822D01*
X80167562Y-58724824D01*
X80079034Y-58813352D01*
X80079032Y-58813355D01*
X80016433Y-58921781D01*
X80012548Y-58936280D01*
X79984028Y-59042717D01*
X65291886Y-59042717D01*
X65219095Y-58899856D01*
X65103444Y-58740678D01*
X64964321Y-58601555D01*
X64805143Y-58485904D01*
X64629835Y-58396581D01*
X64442705Y-58335778D01*
X64400000Y-58329014D01*
X64400000Y-59179722D01*
X64323694Y-59135667D01*
X64209244Y-59105000D01*
X64090756Y-59105000D01*
X63976306Y-59135667D01*
X63900000Y-59179722D01*
X63900000Y-58329014D01*
X63899999Y-58329014D01*
X63857294Y-58335778D01*
X63670164Y-58396581D01*
X63494856Y-58485904D01*
X63335678Y-58601555D01*
X63196555Y-58740678D01*
X63080904Y-58899856D01*
X62991581Y-59075164D01*
X62930778Y-59262294D01*
X62900000Y-59456617D01*
X50900000Y-59456617D01*
X50869221Y-59262294D01*
X50808418Y-59075164D01*
X50719095Y-58899856D01*
X50603444Y-58740678D01*
X50464321Y-58601555D01*
X50305143Y-58485904D01*
X50129835Y-58396581D01*
X49942705Y-58335778D01*
X49900000Y-58329014D01*
X49900000Y-59179722D01*
X49823694Y-59135667D01*
X49709244Y-59105000D01*
X49590756Y-59105000D01*
X49476306Y-59135667D01*
X49400000Y-59179722D01*
X49400000Y-58329014D01*
X49399999Y-58329014D01*
X49357294Y-58335778D01*
X49179191Y-58393647D01*
X49109350Y-58395642D01*
X49049517Y-58359561D01*
X49021099Y-58307812D01*
X48986281Y-58177865D01*
X48979507Y-58166133D01*
X48936686Y-58091965D01*
X48910515Y-58046635D01*
X48803365Y-57939485D01*
X48701192Y-57880495D01*
X48672136Y-57863719D01*
X48644515Y-57856318D01*
X48525766Y-57824500D01*
X48374234Y-57824500D01*
X48227863Y-57863719D01*
X48096635Y-57939485D01*
X48096632Y-57939487D01*
X47989487Y-58046632D01*
X47989485Y-58046635D01*
X47913719Y-58177863D01*
X47893998Y-58251464D01*
X47874500Y-58324234D01*
X40200500Y-58324234D01*
X40200500Y-57324234D01*
X41824500Y-57324234D01*
X41824500Y-57475765D01*
X41863719Y-57622136D01*
X41867974Y-57629505D01*
X41939485Y-57753365D01*
X42046635Y-57860515D01*
X42177865Y-57936281D01*
X42324234Y-57975500D01*
X42324236Y-57975500D01*
X42475764Y-57975500D01*
X42475766Y-57975500D01*
X42622135Y-57936281D01*
X42753365Y-57860515D01*
X42860515Y-57753365D01*
X42869733Y-57737399D01*
X52924500Y-57737399D01*
X52924500Y-57862601D01*
X52956905Y-57983536D01*
X53019505Y-58091964D01*
X53108036Y-58180495D01*
X53216464Y-58243095D01*
X53337399Y-58275500D01*
X53337401Y-58275500D01*
X53462599Y-58275500D01*
X53462601Y-58275500D01*
X53583536Y-58243095D01*
X53691964Y-58180495D01*
X53780495Y-58091964D01*
X53843095Y-57983536D01*
X53855458Y-57937399D01*
X65724500Y-57937399D01*
X65724500Y-58062601D01*
X65756905Y-58183536D01*
X65819505Y-58291964D01*
X65908036Y-58380495D01*
X66016464Y-58443095D01*
X66137399Y-58475500D01*
X66137401Y-58475500D01*
X66262599Y-58475500D01*
X66262601Y-58475500D01*
X66383536Y-58443095D01*
X66491964Y-58380495D01*
X66500060Y-58372399D01*
X68298110Y-58372399D01*
X68298110Y-58497601D01*
X68330515Y-58618536D01*
X68393115Y-58726964D01*
X68481646Y-58815495D01*
X68590074Y-58878095D01*
X68711009Y-58910500D01*
X68711011Y-58910500D01*
X68836209Y-58910500D01*
X68836211Y-58910500D01*
X68957146Y-58878095D01*
X69065574Y-58815495D01*
X69154105Y-58726964D01*
X69216705Y-58618536D01*
X69249110Y-58497601D01*
X69249110Y-58372399D01*
X69216705Y-58251464D01*
X69154105Y-58143036D01*
X69148468Y-58137399D01*
X78224500Y-58137399D01*
X78224500Y-58262601D01*
X78256905Y-58383536D01*
X78319505Y-58491964D01*
X78408036Y-58580495D01*
X78516464Y-58643095D01*
X78637399Y-58675500D01*
X78637401Y-58675500D01*
X78762599Y-58675500D01*
X78762601Y-58675500D01*
X78883536Y-58643095D01*
X78991964Y-58580495D01*
X79080495Y-58491964D01*
X79143095Y-58383536D01*
X79175500Y-58262601D01*
X79175500Y-58137399D01*
X79143095Y-58016464D01*
X79080495Y-57908036D01*
X78991964Y-57819505D01*
X78883536Y-57756905D01*
X78883537Y-57756905D01*
X78843224Y-57746103D01*
X78762601Y-57724500D01*
X78637399Y-57724500D01*
X78556775Y-57746103D01*
X78516463Y-57756905D01*
X78408037Y-57819504D01*
X78408034Y-57819506D01*
X78319506Y-57908034D01*
X78319504Y-57908037D01*
X78256905Y-58016463D01*
X78246712Y-58054504D01*
X78224500Y-58137399D01*
X69148468Y-58137399D01*
X69065574Y-58054505D01*
X68957146Y-57991905D01*
X68957147Y-57991905D01*
X68916834Y-57981103D01*
X68836211Y-57959500D01*
X68711009Y-57959500D01*
X68630385Y-57981103D01*
X68590073Y-57991905D01*
X68481647Y-58054504D01*
X68481644Y-58054506D01*
X68393116Y-58143034D01*
X68393114Y-58143037D01*
X68330515Y-58251463D01*
X68316984Y-58301962D01*
X68298110Y-58372399D01*
X66500060Y-58372399D01*
X66580495Y-58291964D01*
X66643095Y-58183536D01*
X66675500Y-58062601D01*
X66675500Y-57937399D01*
X66643095Y-57816464D01*
X66580495Y-57708036D01*
X66491964Y-57619505D01*
X66383536Y-57556905D01*
X66383537Y-57556905D01*
X66374711Y-57554540D01*
X66262601Y-57524500D01*
X66137399Y-57524500D01*
X66079393Y-57540043D01*
X66016463Y-57556905D01*
X65908037Y-57619504D01*
X65908034Y-57619506D01*
X65819506Y-57708034D01*
X65819504Y-57708037D01*
X65756905Y-57816463D01*
X65745102Y-57860512D01*
X65724500Y-57937399D01*
X53855458Y-57937399D01*
X53875500Y-57862601D01*
X53875500Y-57737399D01*
X53843095Y-57616464D01*
X53780495Y-57508036D01*
X53780494Y-57508035D01*
X53776431Y-57500997D01*
X53778158Y-57499999D01*
X53756851Y-57444895D01*
X53758388Y-57437399D01*
X87024500Y-57437399D01*
X87024500Y-57562601D01*
X87056905Y-57683536D01*
X87119505Y-57791964D01*
X87208036Y-57880495D01*
X87316464Y-57943095D01*
X87437399Y-57975500D01*
X87437401Y-57975500D01*
X87562599Y-57975500D01*
X87562601Y-57975500D01*
X87683536Y-57943095D01*
X87791964Y-57880495D01*
X87880495Y-57791964D01*
X87943095Y-57683536D01*
X87975500Y-57562601D01*
X87975500Y-57437399D01*
X87943095Y-57316464D01*
X87880495Y-57208036D01*
X87791964Y-57119505D01*
X87683536Y-57056905D01*
X87683537Y-57056905D01*
X87651674Y-57048367D01*
X87562601Y-57024500D01*
X87437399Y-57024500D01*
X87394922Y-57035882D01*
X87316463Y-57056905D01*
X87208037Y-57119504D01*
X87208034Y-57119506D01*
X87119506Y-57208034D01*
X87119504Y-57208037D01*
X87056905Y-57316463D01*
X87047017Y-57353365D01*
X87024500Y-57437399D01*
X53758388Y-57437399D01*
X53770884Y-57376449D01*
X53818420Y-57327181D01*
X53881963Y-57290496D01*
X53970494Y-57201965D01*
X54033094Y-57093537D01*
X54065499Y-56972602D01*
X54065499Y-56924234D01*
X95924500Y-56924234D01*
X95924500Y-57075766D01*
X95936220Y-57119505D01*
X95963719Y-57222136D01*
X95988530Y-57265109D01*
X96039485Y-57353365D01*
X96146635Y-57460515D01*
X96257460Y-57524500D01*
X96284381Y-57540043D01*
X96332597Y-57590610D01*
X96345819Y-57659217D01*
X96326034Y-57709535D01*
X96328567Y-57710997D01*
X96261903Y-57826463D01*
X96261903Y-57826464D01*
X96229498Y-57947399D01*
X96229498Y-58072601D01*
X96261903Y-58193536D01*
X96324503Y-58301964D01*
X96413034Y-58390495D01*
X96413035Y-58390496D01*
X96413037Y-58390497D01*
X96514200Y-58448903D01*
X96562415Y-58499469D01*
X96575639Y-58568076D01*
X96549671Y-58632941D01*
X96539883Y-58643970D01*
X96512572Y-58671281D01*
X96449973Y-58779707D01*
X96439309Y-58819505D01*
X96417568Y-58900643D01*
X96417568Y-59025845D01*
X96449973Y-59146780D01*
X96512573Y-59255208D01*
X96601104Y-59343739D01*
X96709532Y-59406339D01*
X96830467Y-59438744D01*
X96830469Y-59438744D01*
X96955667Y-59438744D01*
X96955669Y-59438744D01*
X97076604Y-59406339D01*
X97185032Y-59343739D01*
X97273563Y-59255208D01*
X97336163Y-59146780D01*
X97368568Y-59025845D01*
X97368568Y-59022289D01*
X97369416Y-59019398D01*
X97369629Y-59017786D01*
X97369880Y-59017819D01*
X97374339Y-59002634D01*
X97375238Y-58982168D01*
X97383983Y-58969789D01*
X97388253Y-58955250D01*
X97403733Y-58941836D01*
X97415555Y-58925104D01*
X97433399Y-58916130D01*
X97441057Y-58909495D01*
X97446055Y-58907343D01*
X97453107Y-58904489D01*
X97493940Y-58893548D01*
X97526262Y-58874886D01*
X97534264Y-58871649D01*
X97560777Y-58869018D01*
X97586676Y-58862735D01*
X97595014Y-58865620D01*
X97603792Y-58864750D01*
X97627519Y-58876870D01*
X97652703Y-58885587D01*
X97658156Y-58892521D01*
X97666013Y-58896535D01*
X97679422Y-58919562D01*
X97695894Y-58940508D01*
X97700550Y-58954496D01*
X97726905Y-59052851D01*
X97789505Y-59161279D01*
X97878036Y-59249810D01*
X97986464Y-59312410D01*
X98107399Y-59344815D01*
X98107401Y-59344815D01*
X98232599Y-59344815D01*
X98232601Y-59344815D01*
X98353536Y-59312410D01*
X98461964Y-59249810D01*
X98550495Y-59161279D01*
X98613095Y-59052851D01*
X98645500Y-58931916D01*
X98645500Y-58806714D01*
X98613095Y-58685779D01*
X98550495Y-58577351D01*
X98461964Y-58488820D01*
X98461963Y-58488819D01*
X98441673Y-58477105D01*
X98393458Y-58426538D01*
X98380236Y-58357930D01*
X98406204Y-58293066D01*
X98441678Y-58262329D01*
X98454952Y-58254666D01*
X98543483Y-58166135D01*
X98606083Y-58057707D01*
X98638488Y-57936772D01*
X98638488Y-57811570D01*
X98606083Y-57690635D01*
X98543483Y-57582207D01*
X98454952Y-57493676D01*
X98346524Y-57431076D01*
X98346525Y-57431076D01*
X98274780Y-57411852D01*
X98225589Y-57398671D01*
X98100387Y-57398671D01*
X98051196Y-57411852D01*
X97979451Y-57431076D01*
X97871025Y-57493675D01*
X97871022Y-57493677D01*
X97782494Y-57582205D01*
X97782492Y-57582208D01*
X97719893Y-57690634D01*
X97687488Y-57811571D01*
X97687488Y-57904328D01*
X97667803Y-57971367D01*
X97614999Y-58017122D01*
X97545841Y-58027066D01*
X97501492Y-58011718D01*
X97493940Y-58007358D01*
X97493941Y-58007358D01*
X97453628Y-57996556D01*
X97373005Y-57974953D01*
X97283029Y-57974953D01*
X97215990Y-57955268D01*
X97170235Y-57902464D01*
X97163256Y-57883053D01*
X97148093Y-57826464D01*
X97085493Y-57718036D01*
X96996962Y-57629505D01*
X96996961Y-57629504D01*
X96971986Y-57615085D01*
X96938737Y-57595889D01*
X96890523Y-57545324D01*
X96877299Y-57476718D01*
X96903267Y-57411852D01*
X96913050Y-57400829D01*
X96960515Y-57353365D01*
X97036281Y-57222135D01*
X97075500Y-57075766D01*
X97075500Y-56924234D01*
X97036281Y-56777865D01*
X96960515Y-56646635D01*
X96853365Y-56539485D01*
X96787750Y-56501602D01*
X96722136Y-56463719D01*
X96648950Y-56444109D01*
X96575766Y-56424500D01*
X96424234Y-56424500D01*
X96277863Y-56463719D01*
X96146635Y-56539485D01*
X96146632Y-56539487D01*
X96039487Y-56646632D01*
X96039485Y-56646635D01*
X95963719Y-56777863D01*
X95951223Y-56824500D01*
X95924500Y-56924234D01*
X54065499Y-56924234D01*
X54065499Y-56847400D01*
X54033094Y-56726465D01*
X53970494Y-56618037D01*
X53881963Y-56529506D01*
X53773535Y-56466906D01*
X53773536Y-56466906D01*
X53733223Y-56456104D01*
X53652600Y-56434501D01*
X53527398Y-56434501D01*
X53446774Y-56456104D01*
X53406462Y-56466906D01*
X53298036Y-56529505D01*
X53298033Y-56529507D01*
X53209505Y-56618035D01*
X53209503Y-56618038D01*
X53146904Y-56726464D01*
X53146904Y-56726465D01*
X53114499Y-56847400D01*
X53114499Y-56972602D01*
X53137088Y-57056905D01*
X53146904Y-57093537D01*
X53213568Y-57209004D01*
X53211840Y-57210001D01*
X53233148Y-57265109D01*
X53219112Y-57333554D01*
X53171579Y-57382818D01*
X53108036Y-57419504D01*
X53019506Y-57508034D01*
X53019504Y-57508037D01*
X52956905Y-57616463D01*
X52945449Y-57659217D01*
X52924500Y-57737399D01*
X42869733Y-57737399D01*
X42936281Y-57622135D01*
X42975500Y-57475766D01*
X42975500Y-57324234D01*
X42936281Y-57177865D01*
X42860515Y-57046635D01*
X42753365Y-56939485D01*
X42687750Y-56901602D01*
X42622136Y-56863719D01*
X42548950Y-56844109D01*
X42475766Y-56824500D01*
X42324234Y-56824500D01*
X42177863Y-56863719D01*
X42046635Y-56939485D01*
X42046632Y-56939487D01*
X41939487Y-57046632D01*
X41939485Y-57046635D01*
X41863719Y-57177863D01*
X41824500Y-57324234D01*
X40200500Y-57324234D01*
X40200500Y-55437399D01*
X45424500Y-55437399D01*
X45424500Y-55562601D01*
X45456905Y-55683536D01*
X45519505Y-55791964D01*
X45608036Y-55880495D01*
X45716464Y-55943095D01*
X45837399Y-55975500D01*
X45837401Y-55975500D01*
X45962599Y-55975500D01*
X45962601Y-55975500D01*
X46083536Y-55943095D01*
X46191964Y-55880495D01*
X46280495Y-55791964D01*
X46343095Y-55683536D01*
X46375500Y-55562601D01*
X46375500Y-55437399D01*
X46367461Y-55407399D01*
X67124500Y-55407399D01*
X67124500Y-55532601D01*
X67156905Y-55653536D01*
X67219505Y-55761964D01*
X67308036Y-55850495D01*
X67416464Y-55913095D01*
X67537399Y-55945500D01*
X67537401Y-55945500D01*
X67662599Y-55945500D01*
X67662601Y-55945500D01*
X67783536Y-55913095D01*
X67891964Y-55850495D01*
X67980495Y-55761964D01*
X68043095Y-55653536D01*
X68054526Y-55610875D01*
X68488413Y-55610875D01*
X68488413Y-55736077D01*
X68520818Y-55857012D01*
X68583418Y-55965440D01*
X68671949Y-56053971D01*
X68780377Y-56116571D01*
X68901312Y-56148976D01*
X68901314Y-56148976D01*
X69026512Y-56148976D01*
X69026514Y-56148976D01*
X69147449Y-56116571D01*
X69255877Y-56053971D01*
X69344408Y-55965440D01*
X69407008Y-55857012D01*
X69439413Y-55736077D01*
X69439413Y-55610875D01*
X69407008Y-55489940D01*
X69407007Y-55489938D01*
X69407003Y-55489930D01*
X69376675Y-55437399D01*
X72424500Y-55437399D01*
X72424500Y-55562601D01*
X72456905Y-55683536D01*
X72519505Y-55791964D01*
X72608036Y-55880495D01*
X72716464Y-55943095D01*
X72837399Y-55975500D01*
X72837401Y-55975500D01*
X72962599Y-55975500D01*
X72962601Y-55975500D01*
X73083536Y-55943095D01*
X73191964Y-55880495D01*
X73280495Y-55791964D01*
X73323781Y-55716988D01*
X73374347Y-55668774D01*
X73442954Y-55655550D01*
X73507819Y-55681518D01*
X73518849Y-55691308D01*
X73519505Y-55691964D01*
X73608036Y-55780495D01*
X73716464Y-55843095D01*
X73837399Y-55875500D01*
X73837401Y-55875500D01*
X73962599Y-55875500D01*
X73962601Y-55875500D01*
X74083536Y-55843095D01*
X74191964Y-55780495D01*
X74222350Y-55750109D01*
X85477839Y-55750109D01*
X85477839Y-55875311D01*
X85510244Y-55996246D01*
X85572844Y-56104674D01*
X85661375Y-56193205D01*
X85769803Y-56255805D01*
X85890738Y-56288210D01*
X85890740Y-56288210D01*
X86015938Y-56288210D01*
X86015940Y-56288210D01*
X86136875Y-56255805D01*
X86245303Y-56193205D01*
X86333834Y-56104674D01*
X86396434Y-55996246D01*
X86428839Y-55875311D01*
X86428839Y-55750109D01*
X86396434Y-55629174D01*
X86376645Y-55594899D01*
X86360175Y-55527000D01*
X86383027Y-55460973D01*
X86385658Y-55457414D01*
X86386139Y-55456785D01*
X86386145Y-55456780D01*
X86448745Y-55348352D01*
X86481150Y-55227417D01*
X86481150Y-55102215D01*
X86448745Y-54981280D01*
X86386145Y-54872852D01*
X86297614Y-54784321D01*
X86189186Y-54721721D01*
X86189187Y-54721721D01*
X86148186Y-54710735D01*
X86068251Y-54689316D01*
X85943049Y-54689316D01*
X85863114Y-54710735D01*
X85822113Y-54721721D01*
X85713687Y-54784320D01*
X85713684Y-54784322D01*
X85625156Y-54872850D01*
X85625154Y-54872853D01*
X85562555Y-54981279D01*
X85557856Y-54998815D01*
X85530150Y-55102215D01*
X85530150Y-55227417D01*
X85531171Y-55231226D01*
X85562555Y-55348353D01*
X85562557Y-55348356D01*
X85582342Y-55382626D01*
X85598813Y-55450526D01*
X85575960Y-55516553D01*
X85573342Y-55520095D01*
X85572848Y-55520738D01*
X85510244Y-55629173D01*
X85510244Y-55629174D01*
X85477839Y-55750109D01*
X74222350Y-55750109D01*
X74280495Y-55691964D01*
X74343095Y-55583536D01*
X74375500Y-55462601D01*
X74375500Y-55337399D01*
X74343095Y-55216464D01*
X74280495Y-55108036D01*
X74191964Y-55019505D01*
X74083536Y-54956905D01*
X74083537Y-54956905D01*
X74031997Y-54943095D01*
X73962601Y-54924500D01*
X73837399Y-54924500D01*
X73768003Y-54943095D01*
X73716463Y-54956905D01*
X73608037Y-55019504D01*
X73608034Y-55019506D01*
X73519506Y-55108034D01*
X73519502Y-55108039D01*
X73476218Y-55183010D01*
X73425651Y-55231226D01*
X73357044Y-55244448D01*
X73292179Y-55218480D01*
X73281150Y-55208691D01*
X73191965Y-55119506D01*
X73191964Y-55119505D01*
X73083536Y-55056905D01*
X73083537Y-55056905D01*
X73021581Y-55040304D01*
X72962601Y-55024500D01*
X72837399Y-55024500D01*
X72778419Y-55040304D01*
X72716463Y-55056905D01*
X72608037Y-55119504D01*
X72608034Y-55119506D01*
X72519506Y-55208034D01*
X72519504Y-55208037D01*
X72456905Y-55316463D01*
X72456905Y-55316464D01*
X72424500Y-55437399D01*
X69376675Y-55437399D01*
X69344412Y-55381518D01*
X69344409Y-55381514D01*
X69344408Y-55381512D01*
X69255877Y-55292981D01*
X69147449Y-55230381D01*
X69147450Y-55230381D01*
X69095507Y-55216463D01*
X69026514Y-55197976D01*
X68901312Y-55197976D01*
X68832319Y-55216463D01*
X68780376Y-55230381D01*
X68671950Y-55292980D01*
X68671947Y-55292982D01*
X68583419Y-55381510D01*
X68583417Y-55381513D01*
X68520818Y-55489939D01*
X68512563Y-55520746D01*
X68488413Y-55610875D01*
X68054526Y-55610875D01*
X68075500Y-55532601D01*
X68075500Y-55407399D01*
X68043095Y-55286464D01*
X67980495Y-55178036D01*
X67891964Y-55089505D01*
X67783536Y-55026905D01*
X67783537Y-55026905D01*
X67743224Y-55016103D01*
X67662601Y-54994500D01*
X67537399Y-54994500D01*
X67456775Y-55016103D01*
X67416463Y-55026905D01*
X67308037Y-55089504D01*
X67308034Y-55089506D01*
X67219506Y-55178034D01*
X67219504Y-55178037D01*
X67156905Y-55286463D01*
X67140702Y-55346931D01*
X67124500Y-55407399D01*
X46367461Y-55407399D01*
X46343095Y-55316464D01*
X46280495Y-55208036D01*
X46191964Y-55119505D01*
X46083536Y-55056905D01*
X46083537Y-55056905D01*
X46021581Y-55040304D01*
X45962601Y-55024500D01*
X45837399Y-55024500D01*
X45778419Y-55040304D01*
X45716463Y-55056905D01*
X45608037Y-55119504D01*
X45608034Y-55119506D01*
X45519506Y-55208034D01*
X45519504Y-55208037D01*
X45456905Y-55316463D01*
X45456905Y-55316464D01*
X45424500Y-55437399D01*
X40200500Y-55437399D01*
X40200500Y-54437399D01*
X61724500Y-54437399D01*
X61724500Y-54562601D01*
X61756905Y-54683536D01*
X61819505Y-54791964D01*
X61908036Y-54880495D01*
X62016464Y-54943095D01*
X62137399Y-54975500D01*
X62137401Y-54975500D01*
X62262599Y-54975500D01*
X62262601Y-54975500D01*
X62383536Y-54943095D01*
X62491964Y-54880495D01*
X62580495Y-54791964D01*
X62643095Y-54683536D01*
X62666227Y-54597208D01*
X64648808Y-54597208D01*
X64648808Y-54722410D01*
X64681213Y-54843345D01*
X64743813Y-54951773D01*
X64832344Y-55040304D01*
X64940772Y-55102904D01*
X65061707Y-55135309D01*
X65061709Y-55135309D01*
X65186907Y-55135309D01*
X65186909Y-55135309D01*
X65307844Y-55102904D01*
X65416272Y-55040304D01*
X65504803Y-54951773D01*
X65567403Y-54843345D01*
X65599808Y-54722410D01*
X65599808Y-54597208D01*
X65571917Y-54493120D01*
X68955894Y-54493120D01*
X68955894Y-54618322D01*
X68988299Y-54739257D01*
X69050899Y-54847685D01*
X69139430Y-54936216D01*
X69247858Y-54998816D01*
X69368793Y-55031221D01*
X69368795Y-55031221D01*
X69493993Y-55031221D01*
X69493995Y-55031221D01*
X69614930Y-54998816D01*
X69723358Y-54936216D01*
X69723360Y-54936214D01*
X69729808Y-54931267D01*
X69730816Y-54932581D01*
X69783708Y-54903694D01*
X69853400Y-54908671D01*
X69872076Y-54917468D01*
X69916464Y-54943095D01*
X70037399Y-54975500D01*
X70037401Y-54975500D01*
X70162599Y-54975500D01*
X70162601Y-54975500D01*
X70283536Y-54943095D01*
X70391964Y-54880495D01*
X70480495Y-54791964D01*
X70523781Y-54716988D01*
X70574347Y-54668774D01*
X70642954Y-54655550D01*
X70707819Y-54681518D01*
X70718849Y-54691308D01*
X70719505Y-54691964D01*
X70808036Y-54780495D01*
X70916464Y-54843095D01*
X71037399Y-54875500D01*
X71037401Y-54875500D01*
X71162599Y-54875500D01*
X71162601Y-54875500D01*
X71283536Y-54843095D01*
X71342808Y-54808874D01*
X71410707Y-54792402D01*
X71476734Y-54815255D01*
X71492488Y-54828581D01*
X71571601Y-54907694D01*
X71680029Y-54970294D01*
X71800964Y-55002699D01*
X71800966Y-55002699D01*
X71926164Y-55002699D01*
X71926166Y-55002699D01*
X72047101Y-54970294D01*
X72155529Y-54907694D01*
X72244060Y-54819163D01*
X72306660Y-54710735D01*
X72339065Y-54589800D01*
X72339065Y-54464598D01*
X72306660Y-54343663D01*
X72244060Y-54235235D01*
X72155529Y-54146704D01*
X72139412Y-54137399D01*
X77724500Y-54137399D01*
X77724500Y-54262601D01*
X77756905Y-54383536D01*
X77819505Y-54491964D01*
X77908036Y-54580495D01*
X78016464Y-54643095D01*
X78137399Y-54675500D01*
X78137401Y-54675500D01*
X78262599Y-54675500D01*
X78262601Y-54675500D01*
X78383536Y-54643095D01*
X78491964Y-54580495D01*
X78580495Y-54491964D01*
X78643095Y-54383536D01*
X78675500Y-54262601D01*
X78675500Y-54137399D01*
X78672678Y-54126866D01*
X87056572Y-54126866D01*
X87056572Y-54252068D01*
X87088977Y-54373003D01*
X87151577Y-54481431D01*
X87240108Y-54569962D01*
X87348536Y-54632562D01*
X87469471Y-54664967D01*
X87469473Y-54664967D01*
X87594671Y-54664967D01*
X87594673Y-54664967D01*
X87715608Y-54632562D01*
X87824036Y-54569962D01*
X87912567Y-54481431D01*
X87937989Y-54437399D01*
X87951112Y-54414669D01*
X87959309Y-54400468D01*
X87975167Y-54373003D01*
X88007572Y-54252068D01*
X88007572Y-54126866D01*
X87976257Y-54010000D01*
X96319157Y-54010000D01*
X97173012Y-54010000D01*
X97155795Y-54019940D01*
X97099940Y-54075795D01*
X97060444Y-54144204D01*
X97040000Y-54220504D01*
X97040000Y-54299496D01*
X97060444Y-54375796D01*
X97099940Y-54444205D01*
X97155795Y-54500060D01*
X97173012Y-54510000D01*
X96319157Y-54510000D01*
X96330350Y-54566274D01*
X96330351Y-54566276D01*
X96409500Y-54757358D01*
X96409505Y-54757368D01*
X96524410Y-54929335D01*
X96524413Y-54929339D01*
X96670660Y-55075586D01*
X96670664Y-55075589D01*
X96842631Y-55190494D01*
X96842641Y-55190499D01*
X97033725Y-55269649D01*
X97033733Y-55269651D01*
X97236579Y-55309999D01*
X97236583Y-55310000D01*
X97590000Y-55310000D01*
X97590000Y-54560000D01*
X98090000Y-54560000D01*
X98090000Y-55310000D01*
X98443417Y-55310000D01*
X98443420Y-55309999D01*
X98646266Y-55269651D01*
X98646274Y-55269649D01*
X98837358Y-55190499D01*
X98837368Y-55190494D01*
X99009335Y-55075589D01*
X99009339Y-55075586D01*
X99155586Y-54929339D01*
X99155589Y-54929335D01*
X99270494Y-54757368D01*
X99270499Y-54757358D01*
X99349648Y-54566276D01*
X99349649Y-54566274D01*
X99360843Y-54510000D01*
X98506988Y-54510000D01*
X98524205Y-54500060D01*
X98580060Y-54444205D01*
X98619556Y-54375796D01*
X98640000Y-54299496D01*
X98640000Y-54220504D01*
X98619556Y-54144204D01*
X98580060Y-54075795D01*
X98524205Y-54019940D01*
X98506988Y-54010000D01*
X99360843Y-54010000D01*
X99349649Y-53953725D01*
X99349648Y-53953723D01*
X99270499Y-53762641D01*
X99270494Y-53762631D01*
X99155589Y-53590664D01*
X99155586Y-53590660D01*
X99009339Y-53444413D01*
X99009335Y-53444410D01*
X98837368Y-53329505D01*
X98837358Y-53329500D01*
X98646274Y-53250350D01*
X98646266Y-53250348D01*
X98443420Y-53210000D01*
X98090000Y-53210000D01*
X98090000Y-53960000D01*
X97590000Y-53960000D01*
X97590000Y-53210000D01*
X97236579Y-53210000D01*
X97033733Y-53250348D01*
X97033725Y-53250350D01*
X96842641Y-53329500D01*
X96842631Y-53329505D01*
X96670664Y-53444410D01*
X96670660Y-53444413D01*
X96524413Y-53590660D01*
X96524410Y-53590664D01*
X96409505Y-53762631D01*
X96409500Y-53762641D01*
X96330351Y-53953723D01*
X96330350Y-53953725D01*
X96319157Y-54010000D01*
X87976257Y-54010000D01*
X87975167Y-54005931D01*
X87912567Y-53897503D01*
X87824036Y-53808972D01*
X87715608Y-53746372D01*
X87715609Y-53746372D01*
X87675296Y-53735570D01*
X87594673Y-53713967D01*
X87469471Y-53713967D01*
X87388847Y-53735570D01*
X87348535Y-53746372D01*
X87240109Y-53808971D01*
X87240106Y-53808973D01*
X87151578Y-53897501D01*
X87151576Y-53897504D01*
X87088977Y-54005930D01*
X87085223Y-54019940D01*
X87056572Y-54126866D01*
X78672678Y-54126866D01*
X78643095Y-54016464D01*
X78580495Y-53908036D01*
X78491964Y-53819505D01*
X78383536Y-53756905D01*
X78383537Y-53756905D01*
X78327769Y-53741962D01*
X78262601Y-53724500D01*
X78137399Y-53724500D01*
X78072231Y-53741962D01*
X78016463Y-53756905D01*
X77908037Y-53819504D01*
X77908034Y-53819506D01*
X77819506Y-53908034D01*
X77819504Y-53908037D01*
X77756905Y-54016463D01*
X77750142Y-54041703D01*
X77724500Y-54137399D01*
X72139412Y-54137399D01*
X72047101Y-54084104D01*
X72047102Y-54084104D01*
X72006789Y-54073302D01*
X71926166Y-54051699D01*
X71800964Y-54051699D01*
X71740496Y-54067901D01*
X71680027Y-54084104D01*
X71680024Y-54084106D01*
X71620755Y-54118324D01*
X71552854Y-54134795D01*
X71486828Y-54111942D01*
X71471076Y-54098617D01*
X71391965Y-54019506D01*
X71391964Y-54019505D01*
X71283536Y-53956905D01*
X71283537Y-53956905D01*
X71243224Y-53946103D01*
X71162601Y-53924500D01*
X71037399Y-53924500D01*
X70956775Y-53946103D01*
X70916463Y-53956905D01*
X70808037Y-54019504D01*
X70808034Y-54019506D01*
X70719506Y-54108034D01*
X70719502Y-54108039D01*
X70676218Y-54183010D01*
X70625651Y-54231226D01*
X70557044Y-54244448D01*
X70492179Y-54218480D01*
X70481150Y-54208691D01*
X70391965Y-54119506D01*
X70391964Y-54119505D01*
X70283536Y-54056905D01*
X70283537Y-54056905D01*
X70226802Y-54041703D01*
X70162601Y-54024500D01*
X70037399Y-54024500D01*
X69973198Y-54041703D01*
X69916463Y-54056905D01*
X69808029Y-54119508D01*
X69801586Y-54124453D01*
X69800580Y-54123141D01*
X69747659Y-54152032D01*
X69677968Y-54147040D01*
X69659316Y-54138251D01*
X69614934Y-54112628D01*
X69614931Y-54112626D01*
X69574618Y-54101824D01*
X69493995Y-54080221D01*
X69368793Y-54080221D01*
X69288169Y-54101824D01*
X69247857Y-54112626D01*
X69139431Y-54175225D01*
X69139428Y-54175227D01*
X69050900Y-54263755D01*
X69050898Y-54263758D01*
X68988299Y-54372184D01*
X68988299Y-54372185D01*
X68955894Y-54493120D01*
X65571917Y-54493120D01*
X65567403Y-54476273D01*
X65504803Y-54367845D01*
X65416272Y-54279314D01*
X65307844Y-54216714D01*
X65307845Y-54216714D01*
X65267532Y-54205912D01*
X65186909Y-54184309D01*
X65061707Y-54184309D01*
X64981083Y-54205912D01*
X64940771Y-54216714D01*
X64832345Y-54279313D01*
X64832342Y-54279315D01*
X64743814Y-54367843D01*
X64743812Y-54367846D01*
X64681213Y-54476272D01*
X64674839Y-54500060D01*
X64648808Y-54597208D01*
X62666227Y-54597208D01*
X62675500Y-54562601D01*
X62675500Y-54437399D01*
X62643095Y-54316464D01*
X62580495Y-54208036D01*
X62491964Y-54119505D01*
X62383536Y-54056905D01*
X62383537Y-54056905D01*
X62326802Y-54041703D01*
X62262601Y-54024500D01*
X62137399Y-54024500D01*
X62073198Y-54041703D01*
X62016463Y-54056905D01*
X61908037Y-54119504D01*
X61908034Y-54119506D01*
X61819506Y-54208034D01*
X61819504Y-54208037D01*
X61756905Y-54316463D01*
X61756905Y-54316464D01*
X61724500Y-54437399D01*
X40200500Y-54437399D01*
X40200500Y-53387399D01*
X46124500Y-53387399D01*
X46124500Y-53512601D01*
X46156905Y-53633536D01*
X46219505Y-53741964D01*
X46308036Y-53830495D01*
X46416464Y-53893095D01*
X46537399Y-53925500D01*
X46537401Y-53925500D01*
X46662599Y-53925500D01*
X46662601Y-53925500D01*
X46783536Y-53893095D01*
X46891964Y-53830495D01*
X46980495Y-53741964D01*
X47040865Y-53637399D01*
X58124500Y-53637399D01*
X58124500Y-53762601D01*
X58156905Y-53883536D01*
X58219505Y-53991964D01*
X58308036Y-54080495D01*
X58416464Y-54143095D01*
X58537399Y-54175500D01*
X58537401Y-54175500D01*
X58662599Y-54175500D01*
X58662601Y-54175500D01*
X58783536Y-54143095D01*
X58891964Y-54080495D01*
X58980495Y-53991964D01*
X59043095Y-53883536D01*
X59075500Y-53762601D01*
X59075500Y-53637399D01*
X59048332Y-53536008D01*
X62521898Y-53536008D01*
X62521898Y-53661210D01*
X62554303Y-53782145D01*
X62616903Y-53890573D01*
X62705434Y-53979104D01*
X62813862Y-54041704D01*
X62934797Y-54074109D01*
X62934799Y-54074109D01*
X63059997Y-54074109D01*
X63059999Y-54074109D01*
X63180934Y-54041704D01*
X63289362Y-53979104D01*
X63377893Y-53890573D01*
X63440493Y-53782145D01*
X63472898Y-53661210D01*
X63472898Y-53536008D01*
X63440493Y-53415073D01*
X63377893Y-53306645D01*
X63289362Y-53218114D01*
X63180934Y-53155514D01*
X63180935Y-53155514D01*
X63134583Y-53143094D01*
X63059999Y-53123109D01*
X62934797Y-53123109D01*
X62860213Y-53143094D01*
X62813861Y-53155514D01*
X62705435Y-53218113D01*
X62705432Y-53218115D01*
X62616904Y-53306643D01*
X62616902Y-53306646D01*
X62554303Y-53415072D01*
X62549727Y-53432151D01*
X62521898Y-53536008D01*
X59048332Y-53536008D01*
X59043095Y-53516464D01*
X58980495Y-53408036D01*
X58891964Y-53319505D01*
X58783536Y-53256905D01*
X58783537Y-53256905D01*
X58727944Y-53242009D01*
X58662601Y-53224500D01*
X58537399Y-53224500D01*
X58472056Y-53242009D01*
X58416463Y-53256905D01*
X58308037Y-53319504D01*
X58308034Y-53319506D01*
X58219506Y-53408034D01*
X58219504Y-53408037D01*
X58156905Y-53516463D01*
X58145948Y-53557354D01*
X58124500Y-53637399D01*
X47040865Y-53637399D01*
X47043095Y-53633536D01*
X47075500Y-53512601D01*
X47075500Y-53387399D01*
X47043095Y-53266464D01*
X46980495Y-53158036D01*
X46891964Y-53069505D01*
X46783536Y-53006905D01*
X46783537Y-53006905D01*
X46727769Y-52991962D01*
X46662601Y-52974500D01*
X46537399Y-52974500D01*
X46472231Y-52991962D01*
X46416463Y-53006905D01*
X46308037Y-53069504D01*
X46308034Y-53069506D01*
X46219506Y-53158034D01*
X46219504Y-53158037D01*
X46156905Y-53266463D01*
X46153059Y-53280817D01*
X46124500Y-53387399D01*
X40200500Y-53387399D01*
X40200500Y-52783777D01*
X47872969Y-52783777D01*
X47872969Y-52935309D01*
X47888150Y-52991965D01*
X47912188Y-53081679D01*
X47924891Y-53103680D01*
X47987954Y-53212908D01*
X48095104Y-53320058D01*
X48169388Y-53362946D01*
X48211741Y-53387399D01*
X48226334Y-53395824D01*
X48372703Y-53435043D01*
X48372705Y-53435043D01*
X48524233Y-53435043D01*
X48524235Y-53435043D01*
X48670604Y-53395824D01*
X48801834Y-53320058D01*
X48908984Y-53212908D01*
X48984750Y-53081678D01*
X49023969Y-52935309D01*
X49023969Y-52783777D01*
X48991169Y-52661364D01*
X48991169Y-52661362D01*
X48984750Y-52637409D01*
X48984750Y-52637408D01*
X48984745Y-52637399D01*
X52824500Y-52637399D01*
X52824500Y-52762601D01*
X52856905Y-52883536D01*
X52919505Y-52991964D01*
X53008036Y-53080495D01*
X53116464Y-53143095D01*
X53237399Y-53175500D01*
X53237401Y-53175500D01*
X53362599Y-53175500D01*
X53362601Y-53175500D01*
X53483536Y-53143095D01*
X53591964Y-53080495D01*
X53680495Y-52991964D01*
X53743095Y-52883536D01*
X53775500Y-52762601D01*
X53775500Y-52747399D01*
X65674500Y-52747399D01*
X65674500Y-52872601D01*
X65706905Y-52993536D01*
X65750764Y-53069504D01*
X65769504Y-53101962D01*
X65769506Y-53101965D01*
X65782305Y-53114764D01*
X65815790Y-53176087D01*
X65810806Y-53245779D01*
X65802012Y-53264444D01*
X65775007Y-53311218D01*
X65770107Y-53329505D01*
X65742602Y-53432154D01*
X65742602Y-53557356D01*
X65775007Y-53678291D01*
X65837607Y-53786719D01*
X65926138Y-53875250D01*
X66034566Y-53937850D01*
X66155501Y-53970255D01*
X66155503Y-53970255D01*
X66280701Y-53970255D01*
X66280703Y-53970255D01*
X66401638Y-53937850D01*
X66510066Y-53875250D01*
X66598597Y-53786719D01*
X66661197Y-53678291D01*
X66693602Y-53557356D01*
X66693602Y-53432154D01*
X66675057Y-53362945D01*
X67636625Y-53362945D01*
X67636625Y-53488147D01*
X67669030Y-53609082D01*
X67731630Y-53717510D01*
X67820161Y-53806041D01*
X67928589Y-53868641D01*
X68049524Y-53901046D01*
X68049526Y-53901046D01*
X68174724Y-53901046D01*
X68174726Y-53901046D01*
X68295661Y-53868641D01*
X68404089Y-53806041D01*
X68492620Y-53717510D01*
X68555220Y-53609082D01*
X68587625Y-53488147D01*
X68587625Y-53421575D01*
X72734095Y-53421575D01*
X72734095Y-53546777D01*
X72766500Y-53667712D01*
X72829100Y-53776140D01*
X72917631Y-53864671D01*
X73026059Y-53927271D01*
X73146994Y-53959676D01*
X73146996Y-53959676D01*
X73272194Y-53959676D01*
X73272196Y-53959676D01*
X73393131Y-53927271D01*
X73501559Y-53864671D01*
X73590090Y-53776140D01*
X73606294Y-53748072D01*
X73656858Y-53699856D01*
X73725465Y-53686631D01*
X73790330Y-53712597D01*
X73821069Y-53748071D01*
X73869500Y-53831957D01*
X73869504Y-53831962D01*
X73869505Y-53831964D01*
X73958036Y-53920495D01*
X74066464Y-53983095D01*
X74187399Y-54015500D01*
X74187401Y-54015500D01*
X74312599Y-54015500D01*
X74312601Y-54015500D01*
X74433536Y-53983095D01*
X74541964Y-53920495D01*
X74630495Y-53831964D01*
X74642893Y-53810488D01*
X74693456Y-53762273D01*
X74762062Y-53749047D01*
X74812279Y-53765098D01*
X74849371Y-53786513D01*
X74970306Y-53818918D01*
X74970308Y-53818918D01*
X75095506Y-53818918D01*
X75095508Y-53818918D01*
X75216443Y-53786513D01*
X75324871Y-53723913D01*
X75413402Y-53635382D01*
X75476002Y-53526954D01*
X75508407Y-53406019D01*
X75508407Y-53280817D01*
X75487840Y-53204061D01*
X75487840Y-53204059D01*
X75481419Y-53180096D01*
X80212000Y-53180096D01*
X80212000Y-53305298D01*
X80244405Y-53426233D01*
X80307005Y-53534661D01*
X80395536Y-53623192D01*
X80503964Y-53685792D01*
X80624899Y-53718197D01*
X80624901Y-53718197D01*
X80750099Y-53718197D01*
X80750101Y-53718197D01*
X80871036Y-53685792D01*
X80979464Y-53623192D01*
X81067995Y-53534661D01*
X81130595Y-53426233D01*
X81163000Y-53305298D01*
X81163000Y-53180096D01*
X81162999Y-53180095D01*
X81161939Y-53172039D01*
X81164467Y-53171706D01*
X81165829Y-53114592D01*
X81196259Y-53064669D01*
X81196934Y-53063993D01*
X81196939Y-53063991D01*
X81285470Y-52975460D01*
X81348070Y-52867032D01*
X81348762Y-52864448D01*
X81349939Y-52862516D01*
X81351179Y-52859525D01*
X81351645Y-52859718D01*
X81385128Y-52804790D01*
X81447976Y-52774262D01*
X81468536Y-52772546D01*
X81487735Y-52772546D01*
X81487737Y-52772546D01*
X81608672Y-52740141D01*
X81717100Y-52677541D01*
X81805631Y-52589010D01*
X81868231Y-52480582D01*
X81900636Y-52359647D01*
X81900636Y-52277190D01*
X82701164Y-52277190D01*
X82701164Y-52402392D01*
X82733569Y-52523327D01*
X82796169Y-52631755D01*
X82884700Y-52720286D01*
X82993128Y-52782886D01*
X83114063Y-52815291D01*
X83114065Y-52815291D01*
X83239263Y-52815291D01*
X83239265Y-52815291D01*
X83360200Y-52782886D01*
X83468628Y-52720286D01*
X83557159Y-52631755D01*
X83619759Y-52523327D01*
X83652164Y-52402392D01*
X83652164Y-52277190D01*
X83619759Y-52156255D01*
X83557159Y-52047827D01*
X83468628Y-51959296D01*
X83360200Y-51896696D01*
X83360201Y-51896696D01*
X83319888Y-51885894D01*
X83239265Y-51864291D01*
X83114063Y-51864291D01*
X83033439Y-51885894D01*
X82993127Y-51896696D01*
X82884701Y-51959295D01*
X82884698Y-51959297D01*
X82796170Y-52047825D01*
X82796168Y-52047828D01*
X82733569Y-52156254D01*
X82717366Y-52216722D01*
X82701164Y-52277190D01*
X81900636Y-52277190D01*
X81900636Y-52234445D01*
X81868231Y-52113510D01*
X81805631Y-52005082D01*
X81717100Y-51916551D01*
X81608672Y-51853951D01*
X81608673Y-51853951D01*
X81558775Y-51840581D01*
X81487737Y-51821546D01*
X81362535Y-51821546D01*
X81291497Y-51840581D01*
X81241599Y-51853951D01*
X81133173Y-51916550D01*
X81133170Y-51916552D01*
X81044642Y-52005080D01*
X81044640Y-52005083D01*
X80982041Y-52113509D01*
X80982040Y-52113511D01*
X80981349Y-52116093D01*
X80980171Y-52118025D01*
X80978932Y-52121017D01*
X80978465Y-52120823D01*
X80944983Y-52175752D01*
X80882135Y-52206280D01*
X80861575Y-52207996D01*
X80842374Y-52207996D01*
X80772515Y-52226715D01*
X80721438Y-52240401D01*
X80613012Y-52303000D01*
X80613009Y-52303002D01*
X80524481Y-52391530D01*
X80524479Y-52391533D01*
X80461880Y-52499959D01*
X80455619Y-52523327D01*
X80438019Y-52589011D01*
X80429475Y-52620896D01*
X80429475Y-52746095D01*
X80430536Y-52754153D01*
X80428005Y-52754486D01*
X80426649Y-52811591D01*
X80396217Y-52861521D01*
X80307003Y-52950734D01*
X80244405Y-53059160D01*
X80232476Y-53103680D01*
X80212000Y-53180096D01*
X75481419Y-53180096D01*
X75476003Y-53159886D01*
X75476002Y-53159882D01*
X75413402Y-53051454D01*
X75324871Y-52962923D01*
X75216443Y-52900323D01*
X75216444Y-52900323D01*
X75153794Y-52883536D01*
X75095508Y-52867918D01*
X74970306Y-52867918D01*
X74912020Y-52883536D01*
X74849370Y-52900323D01*
X74740944Y-52962922D01*
X74740941Y-52962924D01*
X74652413Y-53051452D01*
X74652407Y-53051460D01*
X74640011Y-53072931D01*
X74589444Y-53121146D01*
X74520837Y-53134368D01*
X74470627Y-53118319D01*
X74445274Y-53103682D01*
X74433536Y-53096905D01*
X74312601Y-53064500D01*
X74187399Y-53064500D01*
X74106775Y-53086103D01*
X74066463Y-53096905D01*
X73958037Y-53159504D01*
X73958034Y-53159506D01*
X73869506Y-53248034D01*
X73869502Y-53248039D01*
X73853299Y-53276105D01*
X73802732Y-53324321D01*
X73734125Y-53337544D01*
X73669260Y-53311576D01*
X73638524Y-53276104D01*
X73590090Y-53192212D01*
X73501559Y-53103681D01*
X73393131Y-53041081D01*
X73393132Y-53041081D01*
X73352819Y-53030279D01*
X73272196Y-53008676D01*
X73146994Y-53008676D01*
X73066370Y-53030279D01*
X73026058Y-53041081D01*
X72917632Y-53103680D01*
X72917629Y-53103682D01*
X72829101Y-53192210D01*
X72829099Y-53192213D01*
X72766500Y-53300639D01*
X72756611Y-53337544D01*
X72734095Y-53421575D01*
X68587625Y-53421575D01*
X68587625Y-53362945D01*
X68555220Y-53242010D01*
X68492620Y-53133582D01*
X68404089Y-53045051D01*
X68295661Y-52982451D01*
X68295662Y-52982451D01*
X68255349Y-52971649D01*
X68174726Y-52950046D01*
X68049524Y-52950046D01*
X67968900Y-52971649D01*
X67928588Y-52982451D01*
X67820162Y-53045050D01*
X67820159Y-53045052D01*
X67731631Y-53133580D01*
X67731629Y-53133583D01*
X67669030Y-53242009D01*
X67658631Y-53280818D01*
X67636625Y-53362945D01*
X66675057Y-53362945D01*
X66661197Y-53311219D01*
X66598597Y-53202791D01*
X66585796Y-53189990D01*
X66552311Y-53128667D01*
X66557295Y-53058975D01*
X66566083Y-53040322D01*
X66593095Y-52993536D01*
X66625500Y-52872601D01*
X66625500Y-52747399D01*
X66593095Y-52626464D01*
X66530495Y-52518036D01*
X66487238Y-52474779D01*
X76997024Y-52474779D01*
X76997024Y-52599981D01*
X77029429Y-52720916D01*
X77092029Y-52829344D01*
X77180560Y-52917875D01*
X77288988Y-52980475D01*
X77409923Y-53012880D01*
X77409925Y-53012880D01*
X77535123Y-53012880D01*
X77535125Y-53012880D01*
X77656060Y-52980475D01*
X77764488Y-52917875D01*
X77853019Y-52829344D01*
X77915619Y-52720916D01*
X77948024Y-52599981D01*
X77948024Y-52474779D01*
X77915619Y-52353844D01*
X77915617Y-52353841D01*
X77913648Y-52346491D01*
X77915311Y-52276641D01*
X77945741Y-52226717D01*
X77980495Y-52191964D01*
X78043095Y-52083536D01*
X78075500Y-51962601D01*
X78075500Y-51837399D01*
X78043095Y-51716464D01*
X77980495Y-51608036D01*
X77891964Y-51519505D01*
X77783536Y-51456905D01*
X77783537Y-51456905D01*
X77718532Y-51439487D01*
X77662601Y-51424500D01*
X77537399Y-51424500D01*
X77481468Y-51439487D01*
X77416463Y-51456905D01*
X77308037Y-51519504D01*
X77308034Y-51519506D01*
X77219506Y-51608034D01*
X77219504Y-51608037D01*
X77156905Y-51716463D01*
X77156905Y-51716464D01*
X77124500Y-51837399D01*
X77124500Y-51962601D01*
X77140748Y-52023239D01*
X77158875Y-52090888D01*
X77157212Y-52160738D01*
X77126782Y-52210662D01*
X77092030Y-52245414D01*
X77092028Y-52245417D01*
X77029429Y-52353843D01*
X77027874Y-52359647D01*
X76997024Y-52474779D01*
X66487238Y-52474779D01*
X66441964Y-52429505D01*
X66333536Y-52366905D01*
X66333537Y-52366905D01*
X66293224Y-52356103D01*
X66212601Y-52334500D01*
X66087399Y-52334500D01*
X66006775Y-52356103D01*
X65966463Y-52366905D01*
X65858037Y-52429504D01*
X65858034Y-52429506D01*
X65769506Y-52518034D01*
X65769504Y-52518037D01*
X65706905Y-52626463D01*
X65703972Y-52637409D01*
X65674500Y-52747399D01*
X53775500Y-52747399D01*
X53775500Y-52637399D01*
X53743095Y-52516464D01*
X53680495Y-52408036D01*
X53591964Y-52319505D01*
X53483536Y-52256905D01*
X53483537Y-52256905D01*
X53421943Y-52240401D01*
X53362601Y-52224500D01*
X53237399Y-52224500D01*
X53178057Y-52240401D01*
X53116463Y-52256905D01*
X53008037Y-52319504D01*
X53008034Y-52319506D01*
X52919506Y-52408034D01*
X52919504Y-52408037D01*
X52856905Y-52516463D01*
X52856483Y-52518039D01*
X52824500Y-52637399D01*
X48984745Y-52637399D01*
X48963140Y-52599979D01*
X48908984Y-52506178D01*
X48801834Y-52399028D01*
X48733621Y-52359645D01*
X48670605Y-52323262D01*
X48594984Y-52303000D01*
X48524235Y-52284043D01*
X48372703Y-52284043D01*
X48226332Y-52323262D01*
X48095104Y-52399028D01*
X48095101Y-52399030D01*
X47987956Y-52506175D01*
X47987954Y-52506178D01*
X47912188Y-52637406D01*
X47873208Y-52782885D01*
X47872969Y-52783777D01*
X40200500Y-52783777D01*
X40200500Y-51824234D01*
X41724500Y-51824234D01*
X41724500Y-51975766D01*
X41737220Y-52023239D01*
X41763719Y-52122136D01*
X41794675Y-52175752D01*
X41839485Y-52253365D01*
X41946635Y-52360515D01*
X42077865Y-52436281D01*
X42224234Y-52475500D01*
X42224236Y-52475500D01*
X42375764Y-52475500D01*
X42375766Y-52475500D01*
X42522135Y-52436281D01*
X42653365Y-52360515D01*
X42760515Y-52253365D01*
X42836281Y-52122135D01*
X42875500Y-51975766D01*
X42875500Y-51824234D01*
X42836281Y-51677865D01*
X42760515Y-51546635D01*
X42653365Y-51439485D01*
X42587750Y-51401602D01*
X42522136Y-51363719D01*
X42440234Y-51341774D01*
X42375766Y-51324500D01*
X42224234Y-51324500D01*
X42077863Y-51363719D01*
X41946635Y-51439485D01*
X41946632Y-51439487D01*
X41839487Y-51546632D01*
X41839485Y-51546635D01*
X41763719Y-51677863D01*
X41725220Y-51821546D01*
X41724500Y-51824234D01*
X40200500Y-51824234D01*
X40200500Y-51187399D01*
X50124500Y-51187399D01*
X50124500Y-51312601D01*
X50156905Y-51433536D01*
X50219505Y-51541964D01*
X50308036Y-51630495D01*
X50416464Y-51693095D01*
X50537399Y-51725500D01*
X50537401Y-51725500D01*
X50662599Y-51725500D01*
X50662601Y-51725500D01*
X50783536Y-51693095D01*
X50891964Y-51630495D01*
X50980495Y-51541964D01*
X51043095Y-51433536D01*
X51046988Y-51419006D01*
X57138818Y-51419006D01*
X57138818Y-51544208D01*
X57171223Y-51665143D01*
X57233823Y-51773571D01*
X57322354Y-51862102D01*
X57430782Y-51924702D01*
X57551717Y-51957107D01*
X57551719Y-51957107D01*
X57676917Y-51957107D01*
X57676919Y-51957107D01*
X57797854Y-51924702D01*
X57906282Y-51862102D01*
X57994813Y-51773571D01*
X58057413Y-51665143D01*
X58089818Y-51544208D01*
X58089818Y-51419006D01*
X58057413Y-51298071D01*
X58001391Y-51201037D01*
X57984920Y-51133139D01*
X58007773Y-51067112D01*
X58021088Y-51051370D01*
X58080495Y-50991964D01*
X58143095Y-50883536D01*
X58175500Y-50762601D01*
X58175500Y-50637399D01*
X58143095Y-50516464D01*
X58097447Y-50437399D01*
X62496555Y-50437399D01*
X62496555Y-50562601D01*
X62528960Y-50683536D01*
X62591560Y-50791964D01*
X62680091Y-50880495D01*
X62788519Y-50943095D01*
X62909454Y-50975500D01*
X62909456Y-50975500D01*
X63034654Y-50975500D01*
X63034656Y-50975500D01*
X63155591Y-50943095D01*
X63264019Y-50880495D01*
X63352550Y-50791964D01*
X63415150Y-50683536D01*
X63447555Y-50562601D01*
X63447555Y-50437399D01*
X63437584Y-50400187D01*
X64805076Y-50400187D01*
X64805076Y-50525389D01*
X64837481Y-50646324D01*
X64900081Y-50754752D01*
X64988612Y-50843283D01*
X65097040Y-50905883D01*
X65217975Y-50938288D01*
X65217977Y-50938288D01*
X65343175Y-50938288D01*
X65343177Y-50938288D01*
X65464112Y-50905883D01*
X65550810Y-50855828D01*
X65618708Y-50839356D01*
X65684735Y-50862209D01*
X65727926Y-50917130D01*
X65732582Y-50931120D01*
X65739761Y-50957911D01*
X65739762Y-50957914D01*
X65802362Y-51066342D01*
X65890893Y-51154873D01*
X65999321Y-51217473D01*
X66120256Y-51249878D01*
X66120258Y-51249878D01*
X66245456Y-51249878D01*
X66245458Y-51249878D01*
X66366393Y-51217473D01*
X66444480Y-51172389D01*
X66512381Y-51155917D01*
X66578408Y-51178770D01*
X66621598Y-51233691D01*
X66628239Y-51303245D01*
X66613869Y-51341774D01*
X66600415Y-51365077D01*
X66600414Y-51365078D01*
X66596742Y-51378783D01*
X66568009Y-51486015D01*
X66568009Y-51611217D01*
X66600414Y-51732152D01*
X66663014Y-51840580D01*
X66751545Y-51929111D01*
X66859973Y-51991711D01*
X66980908Y-52024116D01*
X66980910Y-52024116D01*
X67106108Y-52024116D01*
X67106110Y-52024116D01*
X67227045Y-51991711D01*
X67335473Y-51929111D01*
X67424004Y-51840580D01*
X67486604Y-51732152D01*
X67519009Y-51611217D01*
X67519009Y-51486015D01*
X67486604Y-51365080D01*
X67424004Y-51256652D01*
X67335473Y-51168121D01*
X67227045Y-51105521D01*
X67227046Y-51105521D01*
X67166508Y-51089300D01*
X67106110Y-51073116D01*
X66980908Y-51073116D01*
X66920510Y-51089300D01*
X66859971Y-51105521D01*
X66859968Y-51105523D01*
X66781883Y-51150604D01*
X66713983Y-51167075D01*
X66647956Y-51144222D01*
X66604767Y-51089300D01*
X66598126Y-51019747D01*
X66612497Y-50981218D01*
X66625952Y-50957914D01*
X66658357Y-50836979D01*
X66658357Y-50711777D01*
X66625952Y-50590842D01*
X66591015Y-50530329D01*
X68322143Y-50530329D01*
X68322143Y-50655531D01*
X68354548Y-50776466D01*
X68417148Y-50884894D01*
X68505679Y-50973425D01*
X68614107Y-51036025D01*
X68735042Y-51068430D01*
X68735044Y-51068430D01*
X68860245Y-51068430D01*
X68866790Y-51067568D01*
X68935826Y-51078330D01*
X68988084Y-51124708D01*
X69006972Y-51191976D01*
X68986494Y-51258777D01*
X68970663Y-51278187D01*
X68898066Y-51350783D01*
X68835468Y-51459209D01*
X68830423Y-51478037D01*
X68803063Y-51580145D01*
X68803063Y-51705347D01*
X68835468Y-51826282D01*
X68898068Y-51934710D01*
X68986599Y-52023241D01*
X69095027Y-52085841D01*
X69215962Y-52118246D01*
X69215964Y-52118246D01*
X69341162Y-52118246D01*
X69341164Y-52118246D01*
X69462099Y-52085841D01*
X69570527Y-52023241D01*
X69659058Y-51934710D01*
X69721658Y-51826282D01*
X69753513Y-51707399D01*
X74564500Y-51707399D01*
X74564500Y-51832601D01*
X74596905Y-51953536D01*
X74659505Y-52061964D01*
X74748036Y-52150495D01*
X74856464Y-52213095D01*
X74977399Y-52245500D01*
X74977401Y-52245500D01*
X75102599Y-52245500D01*
X75102601Y-52245500D01*
X75223536Y-52213095D01*
X75331964Y-52150495D01*
X75420495Y-52061964D01*
X75483095Y-51953536D01*
X75515500Y-51832601D01*
X75515500Y-51707399D01*
X75483095Y-51586464D01*
X75420495Y-51478036D01*
X75331964Y-51389505D01*
X75223536Y-51326905D01*
X75223537Y-51326905D01*
X75183224Y-51316103D01*
X75102601Y-51294500D01*
X74977399Y-51294500D01*
X74896775Y-51316103D01*
X74856463Y-51326905D01*
X74748037Y-51389504D01*
X74748034Y-51389506D01*
X74659506Y-51478034D01*
X74659504Y-51478037D01*
X74596905Y-51586463D01*
X74596905Y-51586464D01*
X74564500Y-51707399D01*
X69753513Y-51707399D01*
X69754063Y-51705347D01*
X69754063Y-51580145D01*
X69721658Y-51459210D01*
X69659058Y-51350782D01*
X69570527Y-51262251D01*
X69462099Y-51199651D01*
X69462100Y-51199651D01*
X69416375Y-51187399D01*
X69341164Y-51167246D01*
X69215962Y-51167246D01*
X69215961Y-51167246D01*
X69209406Y-51168109D01*
X69140371Y-51157341D01*
X69088116Y-51110959D01*
X69069233Y-51043690D01*
X69089716Y-50976890D01*
X69105534Y-50957497D01*
X69178138Y-50884894D01*
X69240738Y-50776466D01*
X69273143Y-50655531D01*
X69273143Y-50530329D01*
X69248242Y-50437397D01*
X70840553Y-50437397D01*
X70840553Y-50562599D01*
X70872958Y-50683534D01*
X70935558Y-50791962D01*
X71024089Y-50880493D01*
X71132517Y-50943093D01*
X71253452Y-50975498D01*
X71253454Y-50975498D01*
X71378652Y-50975498D01*
X71378654Y-50975498D01*
X71499589Y-50943093D01*
X71608017Y-50880493D01*
X71696548Y-50791962D01*
X71759148Y-50683534D01*
X71791553Y-50562599D01*
X71791553Y-50437399D01*
X72824500Y-50437399D01*
X72824500Y-50562601D01*
X72856905Y-50683536D01*
X72919505Y-50791964D01*
X73008036Y-50880495D01*
X73116464Y-50943095D01*
X73237399Y-50975500D01*
X73237401Y-50975500D01*
X73362599Y-50975500D01*
X73362601Y-50975500D01*
X73483536Y-50943095D01*
X73591964Y-50880495D01*
X73680495Y-50791964D01*
X73743095Y-50683536D01*
X73755458Y-50637399D01*
X78824500Y-50637399D01*
X78824500Y-50762601D01*
X78856905Y-50883536D01*
X78919505Y-50991964D01*
X79008036Y-51080495D01*
X79116464Y-51143095D01*
X79237399Y-51175500D01*
X79237401Y-51175500D01*
X79362599Y-51175500D01*
X79362601Y-51175500D01*
X79483536Y-51143095D01*
X79591964Y-51080495D01*
X79680495Y-50991964D01*
X79743095Y-50883536D01*
X79775500Y-50762601D01*
X79775500Y-50637399D01*
X79753865Y-50556657D01*
X79753865Y-50556655D01*
X79747444Y-50532692D01*
X80641804Y-50532692D01*
X80641804Y-50657894D01*
X80674209Y-50778829D01*
X80736809Y-50887257D01*
X80825340Y-50975788D01*
X80933768Y-51038388D01*
X81054703Y-51070793D01*
X81054705Y-51070793D01*
X81179903Y-51070793D01*
X81179905Y-51070793D01*
X81300840Y-51038388D01*
X81409268Y-50975788D01*
X81497799Y-50887257D01*
X81560399Y-50778829D01*
X81592804Y-50657894D01*
X81592804Y-50532692D01*
X81560399Y-50411757D01*
X81497799Y-50303329D01*
X81409268Y-50214798D01*
X81300840Y-50152198D01*
X81300841Y-50152198D01*
X81245610Y-50137399D01*
X81179905Y-50119793D01*
X81054703Y-50119793D01*
X80988998Y-50137399D01*
X80933767Y-50152198D01*
X80825341Y-50214797D01*
X80825338Y-50214799D01*
X80736810Y-50303327D01*
X80736808Y-50303330D01*
X80674209Y-50411756D01*
X80660917Y-50461363D01*
X80641804Y-50532692D01*
X79747444Y-50532692D01*
X79743096Y-50516468D01*
X79743095Y-50516464D01*
X79680495Y-50408036D01*
X79591964Y-50319505D01*
X79483536Y-50256905D01*
X79483537Y-50256905D01*
X79443224Y-50246103D01*
X79362601Y-50224500D01*
X79237399Y-50224500D01*
X79156775Y-50246103D01*
X79116463Y-50256905D01*
X79008037Y-50319504D01*
X79008034Y-50319506D01*
X78919506Y-50408034D01*
X78919504Y-50408037D01*
X78856905Y-50516463D01*
X78852556Y-50532693D01*
X78824500Y-50637399D01*
X73755458Y-50637399D01*
X73775500Y-50562601D01*
X73775500Y-50437399D01*
X73743095Y-50316464D01*
X73680495Y-50208036D01*
X73591964Y-50119505D01*
X73483536Y-50056905D01*
X73483537Y-50056905D01*
X73427769Y-50041962D01*
X73362601Y-50024500D01*
X73237399Y-50024500D01*
X73172231Y-50041962D01*
X73116463Y-50056905D01*
X73008037Y-50119504D01*
X73008034Y-50119506D01*
X72919506Y-50208034D01*
X72919504Y-50208037D01*
X72856905Y-50316463D01*
X72856905Y-50316464D01*
X72824500Y-50437399D01*
X71791553Y-50437399D01*
X71791553Y-50437397D01*
X71759148Y-50316462D01*
X71696548Y-50208034D01*
X71608017Y-50119503D01*
X71499589Y-50056903D01*
X71499590Y-50056903D01*
X71459277Y-50046101D01*
X71378654Y-50024498D01*
X71253452Y-50024498D01*
X71172828Y-50046101D01*
X71132516Y-50056903D01*
X71024090Y-50119502D01*
X71024087Y-50119504D01*
X70935559Y-50208032D01*
X70935557Y-50208035D01*
X70872958Y-50316461D01*
X70865581Y-50343994D01*
X70840553Y-50437397D01*
X69248242Y-50437397D01*
X69240738Y-50409394D01*
X69178138Y-50300966D01*
X69089607Y-50212435D01*
X69089379Y-50212207D01*
X69055894Y-50150884D01*
X69060878Y-50081192D01*
X69102750Y-50025259D01*
X69168214Y-50000842D01*
X69177060Y-50000526D01*
X69303594Y-50000526D01*
X69303596Y-50000526D01*
X69424531Y-49968121D01*
X69532959Y-49905521D01*
X69621490Y-49816990D01*
X69684090Y-49708562D01*
X69716495Y-49587627D01*
X69716495Y-49497399D01*
X74374500Y-49497399D01*
X74374500Y-49622601D01*
X74406905Y-49743536D01*
X74469505Y-49851964D01*
X74558036Y-49940495D01*
X74666464Y-50003095D01*
X74787399Y-50035500D01*
X74787401Y-50035500D01*
X74912599Y-50035500D01*
X74912601Y-50035500D01*
X75033536Y-50003095D01*
X75124939Y-49950324D01*
X82011575Y-49950324D01*
X82011575Y-50075526D01*
X82043980Y-50196461D01*
X82106580Y-50304889D01*
X82195111Y-50393420D01*
X82303539Y-50456020D01*
X82424474Y-50488425D01*
X82424476Y-50488425D01*
X82549674Y-50488425D01*
X82549676Y-50488425D01*
X82670611Y-50456020D01*
X82702864Y-50437399D01*
X84824500Y-50437399D01*
X84824500Y-50562601D01*
X84856905Y-50683536D01*
X84919505Y-50791964D01*
X85008036Y-50880495D01*
X85116464Y-50943095D01*
X85237399Y-50975500D01*
X85237401Y-50975500D01*
X85362599Y-50975500D01*
X85362601Y-50975500D01*
X85483536Y-50943095D01*
X85591964Y-50880495D01*
X85680495Y-50791964D01*
X85743095Y-50683536D01*
X85775500Y-50562601D01*
X85775500Y-50437399D01*
X85743095Y-50316464D01*
X85680495Y-50208036D01*
X85591964Y-50119505D01*
X85483536Y-50056905D01*
X85483537Y-50056905D01*
X85427769Y-50041962D01*
X85362601Y-50024500D01*
X85237399Y-50024500D01*
X85172231Y-50041962D01*
X85116463Y-50056905D01*
X85008037Y-50119504D01*
X85008034Y-50119506D01*
X84919506Y-50208034D01*
X84919504Y-50208037D01*
X84856905Y-50316463D01*
X84856905Y-50316464D01*
X84824500Y-50437399D01*
X82702864Y-50437399D01*
X82779039Y-50393420D01*
X82867570Y-50304889D01*
X82930170Y-50196461D01*
X82962575Y-50075526D01*
X82962575Y-49950324D01*
X82938738Y-49861364D01*
X82938738Y-49861362D01*
X82932316Y-49837399D01*
X86424500Y-49837399D01*
X86424500Y-49962601D01*
X86456905Y-50083536D01*
X86519505Y-50191964D01*
X86608036Y-50280495D01*
X86716464Y-50343095D01*
X86837399Y-50375500D01*
X86837401Y-50375500D01*
X86962599Y-50375500D01*
X86962601Y-50375500D01*
X87083536Y-50343095D01*
X87145501Y-50307319D01*
X87213400Y-50290847D01*
X87269497Y-50307319D01*
X87331464Y-50343095D01*
X87452399Y-50375500D01*
X87452401Y-50375500D01*
X87577599Y-50375500D01*
X87577601Y-50375500D01*
X87698536Y-50343095D01*
X87806964Y-50280495D01*
X87895495Y-50191964D01*
X87958095Y-50083536D01*
X87990500Y-49962601D01*
X87990500Y-49837399D01*
X87958095Y-49716464D01*
X87941315Y-49687399D01*
X89474500Y-49687399D01*
X89474500Y-49812601D01*
X89506905Y-49933536D01*
X89569505Y-50041964D01*
X89658036Y-50130495D01*
X89766464Y-50193095D01*
X89887399Y-50225500D01*
X89887401Y-50225500D01*
X90012599Y-50225500D01*
X90012601Y-50225500D01*
X90133536Y-50193095D01*
X90241964Y-50130495D01*
X90330495Y-50041964D01*
X90393095Y-49933536D01*
X90425500Y-49812601D01*
X90425500Y-49687399D01*
X90412102Y-49637399D01*
X96624500Y-49637399D01*
X96624500Y-49762601D01*
X96656905Y-49883536D01*
X96705739Y-49968121D01*
X96719504Y-49991962D01*
X96719506Y-49991965D01*
X96724688Y-49997147D01*
X96758173Y-50058470D01*
X96756782Y-50116921D01*
X96727956Y-50224500D01*
X96724500Y-50237399D01*
X96724500Y-50362601D01*
X96756905Y-50483536D01*
X96819505Y-50591964D01*
X96908036Y-50680495D01*
X97016464Y-50743095D01*
X97137399Y-50775500D01*
X97137401Y-50775500D01*
X97262599Y-50775500D01*
X97262601Y-50775500D01*
X97383536Y-50743095D01*
X97491964Y-50680495D01*
X97580495Y-50591964D01*
X97643095Y-50483536D01*
X97675500Y-50362601D01*
X97675500Y-50237399D01*
X97648705Y-50137399D01*
X102924500Y-50137399D01*
X102924500Y-50262601D01*
X102956905Y-50383536D01*
X103019505Y-50491964D01*
X103108036Y-50580495D01*
X103216464Y-50643095D01*
X103337399Y-50675500D01*
X103337401Y-50675500D01*
X103462599Y-50675500D01*
X103462601Y-50675500D01*
X103583536Y-50643095D01*
X103691964Y-50580495D01*
X103780495Y-50491964D01*
X103843095Y-50383536D01*
X103875500Y-50262601D01*
X103875500Y-50137399D01*
X103843095Y-50016464D01*
X103780495Y-49908036D01*
X103691964Y-49819505D01*
X103583536Y-49756905D01*
X103583537Y-49756905D01*
X103531997Y-49743095D01*
X103462601Y-49724500D01*
X103337399Y-49724500D01*
X103268003Y-49743095D01*
X103216463Y-49756905D01*
X103108037Y-49819504D01*
X103108034Y-49819506D01*
X103019506Y-49908034D01*
X103019504Y-49908037D01*
X102956905Y-50016463D01*
X102950073Y-50041962D01*
X102924500Y-50137399D01*
X97648705Y-50137399D01*
X97643095Y-50116464D01*
X97580495Y-50008036D01*
X97561890Y-49989431D01*
X97553099Y-49972612D01*
X97549841Y-49956207D01*
X97541826Y-49941529D01*
X97542371Y-49918595D01*
X97539489Y-49904080D01*
X97542924Y-49895355D01*
X97543216Y-49883081D01*
X97575500Y-49762601D01*
X97575500Y-49637399D01*
X97543095Y-49516464D01*
X97480495Y-49408036D01*
X97391964Y-49319505D01*
X97283536Y-49256905D01*
X97283537Y-49256905D01*
X97243224Y-49246103D01*
X97162601Y-49224500D01*
X97037399Y-49224500D01*
X96956775Y-49246103D01*
X96916463Y-49256905D01*
X96808037Y-49319504D01*
X96808034Y-49319506D01*
X96719506Y-49408034D01*
X96719504Y-49408037D01*
X96656905Y-49516463D01*
X96655585Y-49521389D01*
X96624500Y-49637399D01*
X90412102Y-49637399D01*
X90393095Y-49566464D01*
X90330495Y-49458036D01*
X90241964Y-49369505D01*
X90133536Y-49306905D01*
X90133537Y-49306905D01*
X90093224Y-49296103D01*
X90012601Y-49274500D01*
X89887399Y-49274500D01*
X89806775Y-49296103D01*
X89766463Y-49306905D01*
X89658037Y-49369504D01*
X89658034Y-49369506D01*
X89569506Y-49458034D01*
X89569504Y-49458037D01*
X89506905Y-49566463D01*
X89506905Y-49566464D01*
X89474500Y-49687399D01*
X87941315Y-49687399D01*
X87895495Y-49608036D01*
X87806964Y-49519505D01*
X87698536Y-49456905D01*
X87698537Y-49456905D01*
X87658224Y-49446103D01*
X87577601Y-49424500D01*
X87452399Y-49424500D01*
X87371775Y-49446103D01*
X87331463Y-49456905D01*
X87269499Y-49492680D01*
X87201599Y-49509151D01*
X87145501Y-49492680D01*
X87083536Y-49456905D01*
X87083537Y-49456905D01*
X87043224Y-49446103D01*
X86962601Y-49424500D01*
X86837399Y-49424500D01*
X86756775Y-49446103D01*
X86716463Y-49456905D01*
X86608037Y-49519504D01*
X86608034Y-49519506D01*
X86519506Y-49608034D01*
X86519504Y-49608037D01*
X86456905Y-49716463D01*
X86449769Y-49743094D01*
X86424500Y-49837399D01*
X82932316Y-49837399D01*
X82930171Y-49829393D01*
X82930170Y-49829389D01*
X82867570Y-49720961D01*
X82779039Y-49632430D01*
X82670611Y-49569830D01*
X82670612Y-49569830D01*
X82630299Y-49559028D01*
X82549676Y-49537425D01*
X82424474Y-49537425D01*
X82343850Y-49559028D01*
X82303538Y-49569830D01*
X82195112Y-49632429D01*
X82195109Y-49632431D01*
X82106581Y-49720959D01*
X82106579Y-49720962D01*
X82043980Y-49829388D01*
X82041592Y-49838300D01*
X82011575Y-49950324D01*
X75124939Y-49950324D01*
X75141964Y-49940495D01*
X75230495Y-49851964D01*
X75293095Y-49743536D01*
X75325500Y-49622601D01*
X75325500Y-49497399D01*
X75293095Y-49376464D01*
X75230495Y-49268036D01*
X75141964Y-49179505D01*
X75033536Y-49116905D01*
X75033537Y-49116905D01*
X74993224Y-49106103D01*
X74912601Y-49084500D01*
X74787399Y-49084500D01*
X74706775Y-49106103D01*
X74666463Y-49116905D01*
X74558037Y-49179504D01*
X74558034Y-49179506D01*
X74469506Y-49268034D01*
X74469504Y-49268037D01*
X74406905Y-49376463D01*
X74406905Y-49376464D01*
X74374500Y-49497399D01*
X69716495Y-49497399D01*
X69716495Y-49462425D01*
X69684090Y-49341490D01*
X69621490Y-49233062D01*
X69532959Y-49144531D01*
X69424531Y-49081931D01*
X69424532Y-49081931D01*
X69384219Y-49071129D01*
X69303596Y-49049526D01*
X69178394Y-49049526D01*
X69097770Y-49071129D01*
X69057458Y-49081931D01*
X68949032Y-49144530D01*
X68949029Y-49144532D01*
X68860501Y-49233060D01*
X68860499Y-49233063D01*
X68797900Y-49341489D01*
X68782101Y-49400453D01*
X68765495Y-49462425D01*
X68765495Y-49587627D01*
X68778832Y-49637399D01*
X68797900Y-49708562D01*
X68860499Y-49816988D01*
X68860501Y-49816991D01*
X68949259Y-49905749D01*
X68982744Y-49967072D01*
X68977760Y-50036764D01*
X68935888Y-50092697D01*
X68870424Y-50117114D01*
X68861578Y-50117430D01*
X68860244Y-50117430D01*
X68735042Y-50117430D01*
X68686284Y-50130495D01*
X68614106Y-50149835D01*
X68505680Y-50212434D01*
X68505677Y-50212436D01*
X68417149Y-50300964D01*
X68417147Y-50300967D01*
X68354548Y-50409393D01*
X68354548Y-50409394D01*
X68322143Y-50530329D01*
X66591015Y-50530329D01*
X66563352Y-50482414D01*
X66474821Y-50393883D01*
X66366393Y-50331283D01*
X66366394Y-50331283D01*
X66322434Y-50319504D01*
X66245458Y-50298878D01*
X66120256Y-50298878D01*
X66043280Y-50319504D01*
X65999320Y-50331283D01*
X65912623Y-50381337D01*
X65844722Y-50397808D01*
X65778696Y-50374956D01*
X65735506Y-50320034D01*
X65730849Y-50306042D01*
X65723671Y-50279252D01*
X65661071Y-50170824D01*
X65572540Y-50082293D01*
X65464112Y-50019693D01*
X65464113Y-50019693D01*
X65402168Y-50003095D01*
X65343177Y-49987288D01*
X65217975Y-49987288D01*
X65158984Y-50003095D01*
X65097039Y-50019693D01*
X64988613Y-50082292D01*
X64988610Y-50082294D01*
X64900082Y-50170822D01*
X64900080Y-50170825D01*
X64837481Y-50279251D01*
X64829960Y-50307320D01*
X64805076Y-50400187D01*
X63437584Y-50400187D01*
X63415150Y-50316464D01*
X63352550Y-50208036D01*
X63264019Y-50119505D01*
X63155591Y-50056905D01*
X63155592Y-50056905D01*
X63099824Y-50041962D01*
X63034656Y-50024500D01*
X62909454Y-50024500D01*
X62844286Y-50041962D01*
X62788518Y-50056905D01*
X62680092Y-50119504D01*
X62680089Y-50119506D01*
X62591561Y-50208034D01*
X62591559Y-50208037D01*
X62528960Y-50316463D01*
X62528960Y-50316464D01*
X62496555Y-50437399D01*
X58097447Y-50437399D01*
X58080495Y-50408036D01*
X57991964Y-50319505D01*
X57883536Y-50256905D01*
X57883537Y-50256905D01*
X57843224Y-50246103D01*
X57762601Y-50224500D01*
X57637399Y-50224500D01*
X57556775Y-50246103D01*
X57516463Y-50256905D01*
X57408037Y-50319504D01*
X57408034Y-50319506D01*
X57319506Y-50408034D01*
X57319504Y-50408037D01*
X57256905Y-50516463D01*
X57252556Y-50532693D01*
X57224500Y-50637399D01*
X57224500Y-50762601D01*
X57244430Y-50836979D01*
X57256905Y-50883536D01*
X57312925Y-50980567D01*
X57329396Y-51048467D01*
X57306544Y-51114494D01*
X57293219Y-51130247D01*
X57233822Y-51189644D01*
X57171223Y-51298070D01*
X57164141Y-51324500D01*
X57138818Y-51419006D01*
X51046988Y-51419006D01*
X51047789Y-51416016D01*
X51057767Y-51378783D01*
X51071667Y-51326905D01*
X51075500Y-51312601D01*
X51075500Y-51187399D01*
X51043095Y-51066464D01*
X50981025Y-50958955D01*
X50964554Y-50891056D01*
X50987407Y-50825029D01*
X51042329Y-50781839D01*
X51056320Y-50777182D01*
X51062597Y-50775500D01*
X51062601Y-50775500D01*
X51183536Y-50743095D01*
X51291964Y-50680495D01*
X51380495Y-50591964D01*
X51443095Y-50483536D01*
X51475500Y-50362601D01*
X51475500Y-50237399D01*
X51443095Y-50116464D01*
X51380495Y-50008036D01*
X51291964Y-49919505D01*
X51183536Y-49856905D01*
X51183537Y-49856905D01*
X51114102Y-49838300D01*
X51062601Y-49824500D01*
X50937399Y-49824500D01*
X50885898Y-49838300D01*
X50816463Y-49856905D01*
X50708037Y-49919504D01*
X50708034Y-49919506D01*
X50619506Y-50008034D01*
X50619504Y-50008037D01*
X50556905Y-50116463D01*
X50556090Y-50119504D01*
X50524500Y-50237399D01*
X50524500Y-50362601D01*
X50544543Y-50437400D01*
X50556905Y-50483536D01*
X50618973Y-50591043D01*
X50635444Y-50658943D01*
X50612592Y-50724970D01*
X50557670Y-50768160D01*
X50543680Y-50772816D01*
X50416468Y-50806903D01*
X50416463Y-50806905D01*
X50308037Y-50869504D01*
X50308034Y-50869506D01*
X50219506Y-50958034D01*
X50219504Y-50958037D01*
X50156905Y-51066463D01*
X50146439Y-51105523D01*
X50124500Y-51187399D01*
X40200500Y-51187399D01*
X40200500Y-49838299D01*
X45440757Y-49838299D01*
X45440757Y-49963501D01*
X45473162Y-50084436D01*
X45535762Y-50192864D01*
X45624293Y-50281395D01*
X45732721Y-50343995D01*
X45853656Y-50376400D01*
X45853658Y-50376400D01*
X45978856Y-50376400D01*
X45978858Y-50376400D01*
X46099793Y-50343995D01*
X46208221Y-50281395D01*
X46296752Y-50192864D01*
X46337959Y-50121489D01*
X46388525Y-50073275D01*
X46445346Y-50059490D01*
X46488337Y-50059490D01*
X46488339Y-50059490D01*
X46609274Y-50027085D01*
X46717702Y-49964485D01*
X46806233Y-49875954D01*
X46868833Y-49767526D01*
X46901238Y-49646591D01*
X46901238Y-49521389D01*
X46868833Y-49400454D01*
X46806233Y-49292026D01*
X46717702Y-49203495D01*
X46609274Y-49140895D01*
X46609275Y-49140895D01*
X46568962Y-49130093D01*
X46488339Y-49108490D01*
X46363137Y-49108490D01*
X46282513Y-49130093D01*
X46242201Y-49140895D01*
X46133775Y-49203494D01*
X46133772Y-49203496D01*
X46045242Y-49292026D01*
X46019573Y-49336486D01*
X46004035Y-49363400D01*
X45953470Y-49411615D01*
X45896649Y-49425400D01*
X45853656Y-49425400D01*
X45773032Y-49447003D01*
X45732720Y-49457805D01*
X45624294Y-49520404D01*
X45624291Y-49520406D01*
X45535763Y-49608934D01*
X45535761Y-49608937D01*
X45473162Y-49717363D01*
X45466267Y-49743095D01*
X45440757Y-49838299D01*
X40200500Y-49838299D01*
X40200500Y-48224234D01*
X50924500Y-48224234D01*
X50924500Y-48375766D01*
X50935709Y-48417598D01*
X50963719Y-48522136D01*
X50969621Y-48532358D01*
X51039485Y-48653365D01*
X51146635Y-48760515D01*
X51277865Y-48836281D01*
X51424234Y-48875500D01*
X51424236Y-48875500D01*
X51575764Y-48875500D01*
X51575766Y-48875500D01*
X51722135Y-48836281D01*
X51853365Y-48760515D01*
X51960515Y-48653365D01*
X52036281Y-48522135D01*
X52075500Y-48375766D01*
X52075500Y-48224234D01*
X52052233Y-48137399D01*
X57224500Y-48137399D01*
X57224500Y-48262601D01*
X57256905Y-48383536D01*
X57319505Y-48491964D01*
X57408036Y-48580495D01*
X57408037Y-48580496D01*
X57408039Y-48580497D01*
X57515628Y-48642613D01*
X57563843Y-48693179D01*
X57577067Y-48761786D01*
X57551099Y-48826651D01*
X57515628Y-48857387D01*
X57408039Y-48919502D01*
X57408034Y-48919506D01*
X57319506Y-49008034D01*
X57319504Y-49008037D01*
X57256905Y-49116463D01*
X57249384Y-49144531D01*
X57224500Y-49237399D01*
X57224500Y-49362601D01*
X57256905Y-49483536D01*
X57319505Y-49591964D01*
X57408036Y-49680495D01*
X57516464Y-49743095D01*
X57637399Y-49775500D01*
X57637401Y-49775500D01*
X57762599Y-49775500D01*
X57762601Y-49775500D01*
X57883536Y-49743095D01*
X57991964Y-49680495D01*
X58080495Y-49591964D01*
X58143095Y-49483536D01*
X58175500Y-49362601D01*
X58175500Y-49237399D01*
X58143095Y-49116464D01*
X58080495Y-49008036D01*
X57991964Y-48919505D01*
X57884371Y-48857387D01*
X57836156Y-48806821D01*
X57822932Y-48738214D01*
X57848900Y-48673349D01*
X57884370Y-48642613D01*
X57991964Y-48580495D01*
X58080495Y-48491964D01*
X58123430Y-48417597D01*
X64471536Y-48417597D01*
X64471536Y-48542799D01*
X64503941Y-48663734D01*
X64566541Y-48772162D01*
X64655072Y-48860693D01*
X64763500Y-48923293D01*
X64884435Y-48955698D01*
X64884437Y-48955698D01*
X65009635Y-48955698D01*
X65009637Y-48955698D01*
X65130572Y-48923293D01*
X65239000Y-48860693D01*
X65327531Y-48772162D01*
X65390131Y-48663734D01*
X65397188Y-48637399D01*
X66554500Y-48637399D01*
X66554500Y-48762601D01*
X66586905Y-48883536D01*
X66649505Y-48991964D01*
X66738036Y-49080495D01*
X66846464Y-49143095D01*
X66967399Y-49175500D01*
X66967401Y-49175500D01*
X67092599Y-49175500D01*
X67092601Y-49175500D01*
X67213536Y-49143095D01*
X67321964Y-49080495D01*
X67410495Y-48991964D01*
X67473095Y-48883536D01*
X67505500Y-48762601D01*
X67505500Y-48637399D01*
X67473095Y-48516464D01*
X67468435Y-48508392D01*
X70266970Y-48508392D01*
X70266970Y-48633594D01*
X70299375Y-48754529D01*
X70361975Y-48862957D01*
X70450506Y-48951488D01*
X70558934Y-49014088D01*
X70679869Y-49046493D01*
X70679871Y-49046493D01*
X70805069Y-49046493D01*
X70805071Y-49046493D01*
X70926006Y-49014088D01*
X71034434Y-48951488D01*
X71122965Y-48862957D01*
X71185565Y-48754529D01*
X71217970Y-48633594D01*
X71217970Y-48508392D01*
X71185565Y-48387457D01*
X71122965Y-48279029D01*
X71034434Y-48190498D01*
X70942462Y-48137399D01*
X80324500Y-48137399D01*
X80324500Y-48262601D01*
X80356905Y-48383536D01*
X80419505Y-48491964D01*
X80508036Y-48580495D01*
X80616464Y-48643095D01*
X80737399Y-48675500D01*
X80737401Y-48675500D01*
X80862599Y-48675500D01*
X80862601Y-48675500D01*
X80983536Y-48643095D01*
X81091964Y-48580495D01*
X81180495Y-48491964D01*
X81243095Y-48383536D01*
X81250768Y-48354899D01*
X86444559Y-48354899D01*
X86444559Y-48480101D01*
X86476964Y-48601036D01*
X86539564Y-48709464D01*
X86628095Y-48797995D01*
X86736523Y-48860595D01*
X86857458Y-48893000D01*
X86857460Y-48893000D01*
X86982658Y-48893000D01*
X86982660Y-48893000D01*
X87103595Y-48860595D01*
X87196736Y-48806821D01*
X87213186Y-48797324D01*
X87281086Y-48780851D01*
X87337182Y-48797322D01*
X87416464Y-48843095D01*
X87537399Y-48875500D01*
X87537401Y-48875500D01*
X87662599Y-48875500D01*
X87662601Y-48875500D01*
X87783536Y-48843095D01*
X87891964Y-48780495D01*
X87980495Y-48691964D01*
X88043095Y-48583536D01*
X88075500Y-48462601D01*
X88075500Y-48337399D01*
X88043095Y-48216464D01*
X87980495Y-48108036D01*
X87891964Y-48019505D01*
X87783536Y-47956905D01*
X87783537Y-47956905D01*
X87731997Y-47943095D01*
X87662601Y-47924500D01*
X87537399Y-47924500D01*
X87476931Y-47940702D01*
X87416462Y-47956905D01*
X87416459Y-47956907D01*
X87306871Y-48020176D01*
X87238971Y-48036647D01*
X87182874Y-48020176D01*
X87103595Y-47974405D01*
X87103596Y-47974405D01*
X87063283Y-47963603D01*
X86982660Y-47942000D01*
X86857458Y-47942000D01*
X86776834Y-47963603D01*
X86736522Y-47974405D01*
X86628096Y-48037004D01*
X86628093Y-48037006D01*
X86539565Y-48125534D01*
X86539563Y-48125537D01*
X86476964Y-48233963D01*
X86464889Y-48279027D01*
X86444559Y-48354899D01*
X81250768Y-48354899D01*
X81261547Y-48314676D01*
X81267278Y-48293283D01*
X81275500Y-48262601D01*
X81275500Y-48137399D01*
X81243095Y-48016464D01*
X81180495Y-47908036D01*
X81091964Y-47819505D01*
X80983536Y-47756905D01*
X80983537Y-47756905D01*
X80943224Y-47746103D01*
X80862601Y-47724500D01*
X80737399Y-47724500D01*
X80656775Y-47746103D01*
X80616463Y-47756905D01*
X80508037Y-47819504D01*
X80508034Y-47819506D01*
X80419506Y-47908034D01*
X80419504Y-47908037D01*
X80356905Y-48016463D01*
X80356905Y-48016464D01*
X80324500Y-48137399D01*
X70942462Y-48137399D01*
X70926006Y-48127898D01*
X70926007Y-48127898D01*
X70885694Y-48117096D01*
X70805071Y-48095493D01*
X70679869Y-48095493D01*
X70599245Y-48117096D01*
X70558933Y-48127898D01*
X70450507Y-48190497D01*
X70450504Y-48190499D01*
X70361976Y-48279027D01*
X70361974Y-48279030D01*
X70299375Y-48387456D01*
X70283172Y-48447924D01*
X70266970Y-48508392D01*
X67468435Y-48508392D01*
X67410495Y-48408036D01*
X67321964Y-48319505D01*
X67213536Y-48256905D01*
X67213537Y-48256905D01*
X67173224Y-48246103D01*
X67092601Y-48224500D01*
X66967399Y-48224500D01*
X66886775Y-48246103D01*
X66846463Y-48256905D01*
X66738037Y-48319504D01*
X66738034Y-48319506D01*
X66649506Y-48408034D01*
X66649504Y-48408037D01*
X66586905Y-48516463D01*
X66586905Y-48516464D01*
X66554500Y-48637399D01*
X65397188Y-48637399D01*
X65422536Y-48542799D01*
X65422536Y-48417597D01*
X65390131Y-48296662D01*
X65327531Y-48188234D01*
X65239000Y-48099703D01*
X65130572Y-48037103D01*
X65130573Y-48037103D01*
X65090260Y-48026301D01*
X65009637Y-48004698D01*
X64884435Y-48004698D01*
X64803811Y-48026301D01*
X64763499Y-48037103D01*
X64655073Y-48099702D01*
X64655070Y-48099704D01*
X64566542Y-48188232D01*
X64566540Y-48188235D01*
X64503941Y-48296661D01*
X64503941Y-48296662D01*
X64471536Y-48417597D01*
X58123430Y-48417597D01*
X58143095Y-48383536D01*
X58175500Y-48262601D01*
X58175500Y-48137399D01*
X58143095Y-48016464D01*
X58080495Y-47908036D01*
X57991964Y-47819505D01*
X57883536Y-47756905D01*
X57883537Y-47756905D01*
X57843224Y-47746103D01*
X57762601Y-47724500D01*
X57637399Y-47724500D01*
X57556775Y-47746103D01*
X57516463Y-47756905D01*
X57408037Y-47819504D01*
X57408034Y-47819506D01*
X57319506Y-47908034D01*
X57319504Y-47908037D01*
X57256905Y-48016463D01*
X57256905Y-48016464D01*
X57224500Y-48137399D01*
X52052233Y-48137399D01*
X52036281Y-48077865D01*
X51960515Y-47946635D01*
X51853365Y-47839485D01*
X51787750Y-47801602D01*
X51722136Y-47763719D01*
X51648950Y-47744109D01*
X51575766Y-47724500D01*
X51424234Y-47724500D01*
X51277863Y-47763719D01*
X51146635Y-47839485D01*
X51146632Y-47839487D01*
X51039487Y-47946632D01*
X51039485Y-47946635D01*
X50963719Y-48077863D01*
X50934146Y-48188234D01*
X50924500Y-48224234D01*
X40200500Y-48224234D01*
X40200500Y-47411970D01*
X62508488Y-47411970D01*
X62508488Y-47537172D01*
X62540893Y-47658107D01*
X62603493Y-47766535D01*
X62692024Y-47855066D01*
X62800452Y-47917666D01*
X62921387Y-47950071D01*
X62921389Y-47950071D01*
X63046587Y-47950071D01*
X63046589Y-47950071D01*
X63167524Y-47917666D01*
X63275952Y-47855066D01*
X63364483Y-47766535D01*
X63427083Y-47658107D01*
X63459488Y-47537172D01*
X63459488Y-47411970D01*
X63427083Y-47291035D01*
X63364483Y-47182607D01*
X63275952Y-47094076D01*
X63167524Y-47031476D01*
X63167525Y-47031476D01*
X63109189Y-47015845D01*
X63046589Y-46999071D01*
X62921387Y-46999071D01*
X62858787Y-47015845D01*
X62800451Y-47031476D01*
X62692025Y-47094075D01*
X62692022Y-47094077D01*
X62603494Y-47182605D01*
X62603492Y-47182608D01*
X62540893Y-47291034D01*
X62534079Y-47316463D01*
X62508488Y-47411970D01*
X40200500Y-47411970D01*
X40200500Y-46737399D01*
X57224500Y-46737399D01*
X57224500Y-46862601D01*
X57256905Y-46983536D01*
X57319505Y-47091964D01*
X57408036Y-47180495D01*
X57516464Y-47243095D01*
X57637399Y-47275500D01*
X57637401Y-47275500D01*
X57762599Y-47275500D01*
X57762601Y-47275500D01*
X57883536Y-47243095D01*
X57991964Y-47180495D01*
X58080495Y-47091964D01*
X58143095Y-46983536D01*
X58175500Y-46862601D01*
X58175500Y-46737399D01*
X58143095Y-46616464D01*
X58080495Y-46508036D01*
X57991964Y-46419505D01*
X57883536Y-46356905D01*
X57883537Y-46356905D01*
X57843224Y-46346103D01*
X57762601Y-46324500D01*
X57637399Y-46324500D01*
X57556775Y-46346103D01*
X57516463Y-46356905D01*
X57408037Y-46419504D01*
X57408034Y-46419506D01*
X57319506Y-46508034D01*
X57319504Y-46508037D01*
X57256905Y-46616463D01*
X57251295Y-46637399D01*
X57224500Y-46737399D01*
X40200500Y-46737399D01*
X40200500Y-45174234D01*
X45874500Y-45174234D01*
X45874500Y-45325766D01*
X45881752Y-45352830D01*
X45913719Y-45472136D01*
X45934447Y-45508037D01*
X45989485Y-45603365D01*
X46096635Y-45710515D01*
X46227865Y-45786281D01*
X46374234Y-45825500D01*
X46374236Y-45825500D01*
X46525764Y-45825500D01*
X46525766Y-45825500D01*
X46672135Y-45786281D01*
X46803365Y-45710515D01*
X46910515Y-45603365D01*
X46934168Y-45562397D01*
X64624502Y-45562397D01*
X64624502Y-45687599D01*
X64656907Y-45808534D01*
X64719507Y-45916962D01*
X64808038Y-46005493D01*
X64916466Y-46068093D01*
X65037401Y-46100498D01*
X65037403Y-46100498D01*
X65162601Y-46100498D01*
X65162603Y-46100498D01*
X65283538Y-46068093D01*
X65391966Y-46005493D01*
X65480497Y-45916962D01*
X65543097Y-45808534D01*
X65575502Y-45687599D01*
X65575502Y-45562397D01*
X65543097Y-45441462D01*
X65480497Y-45333034D01*
X65391966Y-45244503D01*
X65283538Y-45181903D01*
X65283539Y-45181903D01*
X65243226Y-45171101D01*
X65162603Y-45149498D01*
X65037401Y-45149498D01*
X64956777Y-45171101D01*
X64916465Y-45181903D01*
X64808039Y-45244502D01*
X64808036Y-45244504D01*
X64719508Y-45333032D01*
X64719506Y-45333035D01*
X64656907Y-45441461D01*
X64656469Y-45443095D01*
X64624502Y-45562397D01*
X46934168Y-45562397D01*
X46986281Y-45472135D01*
X47025500Y-45325766D01*
X47025500Y-45174234D01*
X46986281Y-45027865D01*
X46910515Y-44896635D01*
X46803365Y-44789485D01*
X46737750Y-44751602D01*
X46672136Y-44713719D01*
X46562217Y-44684267D01*
X46525766Y-44674500D01*
X46374234Y-44674500D01*
X46227863Y-44713719D01*
X46096635Y-44789485D01*
X46096632Y-44789487D01*
X45989487Y-44896632D01*
X45989485Y-44896635D01*
X45913719Y-45027863D01*
X45884108Y-45138375D01*
X45874500Y-45174234D01*
X40200500Y-45174234D01*
X40200500Y-43937399D01*
X60524500Y-43937399D01*
X60524500Y-44062601D01*
X60541731Y-44126905D01*
X60556905Y-44183536D01*
X60619504Y-44291962D01*
X60619506Y-44291965D01*
X60708036Y-44380495D01*
X60729025Y-44392613D01*
X60777240Y-44443180D01*
X60790462Y-44511788D01*
X60764494Y-44576652D01*
X60729025Y-44607387D01*
X60708036Y-44619504D01*
X60619506Y-44708034D01*
X60619504Y-44708037D01*
X60556905Y-44816463D01*
X60556905Y-44816464D01*
X60524500Y-44937399D01*
X60524500Y-45062601D01*
X60556905Y-45183536D01*
X60619505Y-45291964D01*
X60708036Y-45380495D01*
X60816464Y-45443095D01*
X60937399Y-45475500D01*
X60937401Y-45475500D01*
X61062599Y-45475500D01*
X61062601Y-45475500D01*
X61183536Y-45443095D01*
X61291964Y-45380495D01*
X61380495Y-45291964D01*
X61443095Y-45183536D01*
X61475500Y-45062601D01*
X61475500Y-44937399D01*
X61443095Y-44816464D01*
X61380495Y-44708036D01*
X61291964Y-44619505D01*
X61291963Y-44619504D01*
X61270976Y-44607388D01*
X61267409Y-44603647D01*
X61267199Y-44603586D01*
X61266638Y-44602938D01*
X61261036Y-44600999D01*
X61242950Y-44577996D01*
X61222760Y-44556821D01*
X61221639Y-44551007D01*
X61221444Y-44550782D01*
X61221419Y-44550610D01*
X61217852Y-44546073D01*
X61215074Y-44516948D01*
X61213234Y-44507399D01*
X66344500Y-44507399D01*
X66344500Y-44632601D01*
X66376905Y-44753536D01*
X66439505Y-44861964D01*
X66528036Y-44950495D01*
X66636464Y-45013095D01*
X66757399Y-45045500D01*
X66757401Y-45045500D01*
X66888758Y-45045500D01*
X66955797Y-45065185D01*
X67001552Y-45117989D01*
X67011496Y-45187147D01*
X66982471Y-45250703D01*
X66976439Y-45257181D01*
X66892025Y-45341594D01*
X66892023Y-45341597D01*
X66829424Y-45450023D01*
X66813880Y-45508034D01*
X66797019Y-45570959D01*
X66797019Y-45696161D01*
X66829424Y-45817096D01*
X66892024Y-45925524D01*
X66980555Y-46014055D01*
X67023412Y-46038798D01*
X67026942Y-46040836D01*
X67075158Y-46091403D01*
X67088382Y-46160010D01*
X67062414Y-46224875D01*
X67005500Y-46265404D01*
X66973580Y-46270771D01*
X66973632Y-46271163D01*
X66965575Y-46272223D01*
X66844637Y-46304629D01*
X66736211Y-46367228D01*
X66736208Y-46367230D01*
X66647680Y-46455758D01*
X66647678Y-46455761D01*
X66585079Y-46564187D01*
X66581673Y-46576899D01*
X66552674Y-46685123D01*
X66552674Y-46810325D01*
X66585079Y-46931260D01*
X66647679Y-47039688D01*
X66736210Y-47128219D01*
X66844638Y-47190819D01*
X66965573Y-47223224D01*
X66965575Y-47223224D01*
X67090773Y-47223224D01*
X67090775Y-47223224D01*
X67211710Y-47190819D01*
X67320138Y-47128219D01*
X67408669Y-47039688D01*
X67471269Y-46931260D01*
X67503674Y-46810325D01*
X67503674Y-46685123D01*
X67471269Y-46564188D01*
X67408669Y-46455760D01*
X67320138Y-46367229D01*
X67273750Y-46340447D01*
X67225535Y-46289881D01*
X67212311Y-46221274D01*
X67238279Y-46156409D01*
X67295193Y-46115880D01*
X67327112Y-46110512D01*
X67327061Y-46110121D01*
X67335117Y-46109060D01*
X67335120Y-46109060D01*
X67456055Y-46076655D01*
X67564483Y-46014055D01*
X67653014Y-45925524D01*
X67715614Y-45817096D01*
X67730751Y-45760603D01*
X67767115Y-45700945D01*
X67829962Y-45670416D01*
X67899337Y-45678711D01*
X67938206Y-45705018D01*
X68013683Y-45780495D01*
X68122111Y-45843095D01*
X68243046Y-45875500D01*
X68243048Y-45875500D01*
X68368246Y-45875500D01*
X68368248Y-45875500D01*
X68489183Y-45843095D01*
X68501847Y-45835783D01*
X68569744Y-45819309D01*
X68635772Y-45842159D01*
X68678964Y-45897079D01*
X68683622Y-45911073D01*
X68685173Y-45916861D01*
X68747773Y-46025289D01*
X68836304Y-46113820D01*
X68944732Y-46176420D01*
X69065667Y-46208825D01*
X69065669Y-46208825D01*
X69190867Y-46208825D01*
X69190869Y-46208825D01*
X69311804Y-46176420D01*
X69362467Y-46147169D01*
X69430368Y-46130697D01*
X69496394Y-46153550D01*
X69539585Y-46208471D01*
X69546226Y-46278025D01*
X69534733Y-46308838D01*
X69535018Y-46308956D01*
X69531907Y-46316464D01*
X69510303Y-46397089D01*
X69499502Y-46437401D01*
X69499502Y-46562603D01*
X69531907Y-46683538D01*
X69594507Y-46791966D01*
X69683038Y-46880497D01*
X69683039Y-46880498D01*
X69683041Y-46880499D01*
X69708129Y-46894983D01*
X69756345Y-46945549D01*
X69769570Y-47014156D01*
X69743603Y-47079021D01*
X69708131Y-47109758D01*
X69639289Y-47149503D01*
X69639284Y-47149507D01*
X69550756Y-47238035D01*
X69550754Y-47238038D01*
X69488155Y-47346464D01*
X69483786Y-47362769D01*
X69455750Y-47467400D01*
X69455750Y-47592602D01*
X69488155Y-47713537D01*
X69550755Y-47821965D01*
X69639286Y-47910496D01*
X69747714Y-47973096D01*
X69868649Y-48005501D01*
X69868651Y-48005501D01*
X69993849Y-48005501D01*
X69993851Y-48005501D01*
X70114786Y-47973096D01*
X70223214Y-47910496D01*
X70311745Y-47821965D01*
X70374345Y-47713537D01*
X70406750Y-47592602D01*
X70406750Y-47467400D01*
X70398711Y-47437399D01*
X73504500Y-47437399D01*
X73504500Y-47562601D01*
X73536905Y-47683536D01*
X73599505Y-47791964D01*
X73688036Y-47880495D01*
X73796464Y-47943095D01*
X73917399Y-47975500D01*
X73917401Y-47975500D01*
X74042599Y-47975500D01*
X74042601Y-47975500D01*
X74163536Y-47943095D01*
X74271964Y-47880495D01*
X74304085Y-47848373D01*
X74365405Y-47814889D01*
X74435097Y-47819873D01*
X74491031Y-47861743D01*
X74499152Y-47874054D01*
X74541091Y-47946696D01*
X74629622Y-48035227D01*
X74738050Y-48097827D01*
X74858985Y-48130232D01*
X74858987Y-48130232D01*
X74984185Y-48130232D01*
X74984187Y-48130232D01*
X75105122Y-48097827D01*
X75213550Y-48035227D01*
X75302081Y-47946696D01*
X75364681Y-47838268D01*
X75397086Y-47717333D01*
X75397086Y-47592131D01*
X75364681Y-47471196D01*
X75302081Y-47362768D01*
X75213550Y-47274237D01*
X75105122Y-47211637D01*
X75105123Y-47211637D01*
X75064810Y-47200835D01*
X74984187Y-47179232D01*
X74858985Y-47179232D01*
X74778361Y-47200835D01*
X74738049Y-47211637D01*
X74629623Y-47274236D01*
X74629620Y-47274238D01*
X74597500Y-47306358D01*
X74578846Y-47316543D01*
X74562992Y-47330697D01*
X74548794Y-47332952D01*
X74536176Y-47339843D01*
X74514975Y-47338326D01*
X74493988Y-47341661D01*
X74480824Y-47335882D01*
X74466485Y-47334857D01*
X74449471Y-47322120D01*
X74430010Y-47313578D01*
X74416451Y-47297401D01*
X74410552Y-47292985D01*
X74406506Y-47287249D01*
X74404369Y-47284030D01*
X74360495Y-47208036D01*
X74340970Y-47188511D01*
X74334111Y-47178177D01*
X74327296Y-47156175D01*
X74316259Y-47135962D01*
X74317154Y-47123433D01*
X74313439Y-47111436D01*
X74319599Y-47089246D01*
X74321243Y-47066270D01*
X74328771Y-47056213D01*
X74332131Y-47044113D01*
X74339651Y-47037399D01*
X78224500Y-47037399D01*
X78224500Y-47162601D01*
X78256905Y-47283536D01*
X78319505Y-47391964D01*
X78408036Y-47480495D01*
X78516464Y-47543095D01*
X78637399Y-47575500D01*
X78637401Y-47575500D01*
X78762599Y-47575500D01*
X78762601Y-47575500D01*
X78883536Y-47543095D01*
X78991964Y-47480495D01*
X79035060Y-47437399D01*
X102724500Y-47437399D01*
X102724500Y-47562601D01*
X102756905Y-47683536D01*
X102819505Y-47791964D01*
X102908036Y-47880495D01*
X103016464Y-47943095D01*
X103137399Y-47975500D01*
X103137401Y-47975500D01*
X103262599Y-47975500D01*
X103262601Y-47975500D01*
X103383536Y-47943095D01*
X103491964Y-47880495D01*
X103580495Y-47791964D01*
X103643095Y-47683536D01*
X103675500Y-47562601D01*
X103675500Y-47437399D01*
X103643095Y-47316464D01*
X103580495Y-47208036D01*
X103491964Y-47119505D01*
X103383536Y-47056905D01*
X103383537Y-47056905D01*
X103319282Y-47039688D01*
X103262601Y-47024500D01*
X103137399Y-47024500D01*
X103080718Y-47039688D01*
X103016463Y-47056905D01*
X102908037Y-47119504D01*
X102908034Y-47119506D01*
X102819506Y-47208034D01*
X102819504Y-47208037D01*
X102756905Y-47316463D01*
X102750153Y-47341661D01*
X102724500Y-47437399D01*
X79035060Y-47437399D01*
X79080495Y-47391964D01*
X79084854Y-47384413D01*
X79094752Y-47367271D01*
X79120819Y-47322120D01*
X79143095Y-47283536D01*
X79175500Y-47162601D01*
X79175500Y-47037399D01*
X79143095Y-46916464D01*
X79080495Y-46808036D01*
X78991964Y-46719505D01*
X78883536Y-46656905D01*
X78883537Y-46656905D01*
X78843224Y-46646103D01*
X78810740Y-46637399D01*
X89424500Y-46637399D01*
X89424500Y-46762601D01*
X89456905Y-46883536D01*
X89519505Y-46991964D01*
X89608036Y-47080495D01*
X89716464Y-47143095D01*
X89837399Y-47175500D01*
X89837401Y-47175500D01*
X89962599Y-47175500D01*
X89962601Y-47175500D01*
X90083536Y-47143095D01*
X90191964Y-47080495D01*
X90280495Y-46991964D01*
X90343095Y-46883536D01*
X90375500Y-46762601D01*
X90375500Y-46637399D01*
X90343095Y-46516464D01*
X90280495Y-46408036D01*
X90191964Y-46319505D01*
X90083536Y-46256905D01*
X90083537Y-46256905D01*
X90031997Y-46243095D01*
X89962601Y-46224500D01*
X89837399Y-46224500D01*
X89768003Y-46243095D01*
X89716463Y-46256905D01*
X89608037Y-46319504D01*
X89608034Y-46319506D01*
X89519506Y-46408034D01*
X89519504Y-46408037D01*
X89456905Y-46516463D01*
X89456905Y-46516464D01*
X89424500Y-46637399D01*
X78810740Y-46637399D01*
X78762601Y-46624500D01*
X78637399Y-46624500D01*
X78556775Y-46646103D01*
X78516463Y-46656905D01*
X78408037Y-46719504D01*
X78408034Y-46719506D01*
X78319506Y-46808034D01*
X78319504Y-46808037D01*
X78256905Y-46916463D01*
X78247656Y-46950980D01*
X78224500Y-47037399D01*
X74339651Y-47037399D01*
X74349311Y-47028775D01*
X74363115Y-47010337D01*
X74378144Y-47003035D01*
X74384253Y-46997583D01*
X74391857Y-46996374D01*
X74405332Y-46989829D01*
X74405448Y-46989798D01*
X74405452Y-46989798D01*
X74526387Y-46957393D01*
X74587893Y-46921882D01*
X74587896Y-46921882D01*
X74634808Y-46894797D01*
X74634807Y-46894797D01*
X74634815Y-46894793D01*
X74723346Y-46806262D01*
X74785946Y-46697834D01*
X74818351Y-46576899D01*
X74818351Y-46451697D01*
X74785946Y-46330762D01*
X74723346Y-46222334D01*
X74634815Y-46133803D01*
X74526387Y-46071203D01*
X74526388Y-46071203D01*
X74473038Y-46056908D01*
X74405452Y-46038798D01*
X74280250Y-46038798D01*
X74212664Y-46056908D01*
X74159314Y-46071203D01*
X74050888Y-46133802D01*
X74050885Y-46133804D01*
X73962357Y-46222332D01*
X73962355Y-46222335D01*
X73899756Y-46330761D01*
X73889984Y-46367230D01*
X73867351Y-46451697D01*
X73867351Y-46576899D01*
X73888789Y-46656905D01*
X73899756Y-46697834D01*
X73962355Y-46806260D01*
X73962357Y-46806263D01*
X73973106Y-46817012D01*
X74006591Y-46878335D01*
X74001607Y-46948027D01*
X73959735Y-47003960D01*
X73917519Y-47024468D01*
X73917400Y-47024500D01*
X73917399Y-47024500D01*
X73901445Y-47028775D01*
X73796463Y-47056905D01*
X73688037Y-47119504D01*
X73688034Y-47119506D01*
X73599506Y-47208034D01*
X73599504Y-47208037D01*
X73536905Y-47316463D01*
X73530153Y-47341661D01*
X73504500Y-47437399D01*
X70398711Y-47437399D01*
X70374345Y-47346465D01*
X70311745Y-47238037D01*
X70223214Y-47149506D01*
X70223213Y-47149505D01*
X70207060Y-47140180D01*
X70198120Y-47135018D01*
X70149905Y-47084452D01*
X70136681Y-47015845D01*
X70162649Y-46950980D01*
X70198120Y-46920244D01*
X70266966Y-46880497D01*
X70355497Y-46791966D01*
X70418097Y-46683538D01*
X70450502Y-46562603D01*
X70450502Y-46437401D01*
X70418097Y-46316466D01*
X70355497Y-46208038D01*
X70266966Y-46119507D01*
X70158538Y-46056907D01*
X70158539Y-46056907D01*
X70090955Y-46038798D01*
X70037603Y-46024502D01*
X69912401Y-46024502D01*
X69859049Y-46038798D01*
X69791464Y-46056907D01*
X69791463Y-46056908D01*
X69740799Y-46086158D01*
X69672899Y-46102628D01*
X69606873Y-46079775D01*
X69563683Y-46024852D01*
X69557043Y-45955299D01*
X69568537Y-45924489D01*
X69568252Y-45924371D01*
X69571362Y-45916862D01*
X69571363Y-45916861D01*
X69603768Y-45795926D01*
X69603768Y-45737399D01*
X80724500Y-45737399D01*
X80724500Y-45862601D01*
X80756905Y-45983536D01*
X80819505Y-46091964D01*
X80908036Y-46180495D01*
X81016464Y-46243095D01*
X81137399Y-46275500D01*
X81137401Y-46275500D01*
X81262599Y-46275500D01*
X81262601Y-46275500D01*
X81383536Y-46243095D01*
X81491964Y-46180495D01*
X81580495Y-46091964D01*
X81643095Y-45983536D01*
X81675500Y-45862601D01*
X81675500Y-45737399D01*
X81643095Y-45616464D01*
X81580495Y-45508036D01*
X81491964Y-45419505D01*
X81383536Y-45356905D01*
X81383537Y-45356905D01*
X81343224Y-45346103D01*
X81262601Y-45324500D01*
X81137399Y-45324500D01*
X81056775Y-45346103D01*
X81016463Y-45356905D01*
X80908037Y-45419504D01*
X80908034Y-45419506D01*
X80819506Y-45508034D01*
X80819504Y-45508037D01*
X80756905Y-45616463D01*
X80756905Y-45616464D01*
X80724500Y-45737399D01*
X69603768Y-45737399D01*
X69603768Y-45670724D01*
X69571363Y-45549789D01*
X69508763Y-45441361D01*
X69420232Y-45352830D01*
X69311804Y-45290230D01*
X69311805Y-45290230D01*
X69271492Y-45279428D01*
X69190869Y-45257825D01*
X69065667Y-45257825D01*
X69009198Y-45272956D01*
X68944730Y-45290230D01*
X68944729Y-45290231D01*
X68932063Y-45297544D01*
X68864163Y-45314014D01*
X68798136Y-45291161D01*
X68754947Y-45236238D01*
X68750295Y-45222261D01*
X68748742Y-45216464D01*
X68686142Y-45108036D01*
X68597611Y-45019505D01*
X68489183Y-44956905D01*
X68489184Y-44956905D01*
X68448871Y-44946103D01*
X68368248Y-44924500D01*
X68243046Y-44924500D01*
X68162422Y-44946103D01*
X68122110Y-44956905D01*
X68013684Y-45019504D01*
X68013681Y-45019506D01*
X67925153Y-45108034D01*
X67925151Y-45108037D01*
X67862552Y-45216463D01*
X67862551Y-45216466D01*
X67847414Y-45272956D01*
X67811048Y-45332615D01*
X67748201Y-45363143D01*
X67678825Y-45354847D01*
X67639959Y-45328541D01*
X67564484Y-45253066D01*
X67564483Y-45253065D01*
X67456055Y-45190465D01*
X67456056Y-45190465D01*
X67415743Y-45179663D01*
X67335120Y-45158060D01*
X67209918Y-45158060D01*
X67203761Y-45158060D01*
X67136722Y-45138375D01*
X67090967Y-45085571D01*
X67081023Y-45016413D01*
X67110048Y-44952857D01*
X67116080Y-44946379D01*
X67137959Y-44924500D01*
X67200495Y-44861964D01*
X67263095Y-44753536D01*
X67295500Y-44632601D01*
X67295500Y-44507399D01*
X67263095Y-44386464D01*
X67200495Y-44278036D01*
X67111964Y-44189505D01*
X67003536Y-44126905D01*
X67003537Y-44126905D01*
X66963224Y-44116103D01*
X66882601Y-44094500D01*
X66757399Y-44094500D01*
X66676775Y-44116103D01*
X66636463Y-44126905D01*
X66528037Y-44189504D01*
X66528034Y-44189506D01*
X66439506Y-44278034D01*
X66439504Y-44278037D01*
X66376905Y-44386463D01*
X66361708Y-44443180D01*
X66344500Y-44507399D01*
X61213234Y-44507399D01*
X61209536Y-44488214D01*
X61211678Y-44482863D01*
X61211500Y-44481624D01*
X61211670Y-44481251D01*
X61211219Y-44476519D01*
X61224627Y-44450517D01*
X61235504Y-44423349D01*
X61239821Y-44419608D01*
X61240525Y-44418068D01*
X61241980Y-44416866D01*
X61243242Y-44414420D01*
X61270987Y-44392606D01*
X61272237Y-44391884D01*
X61272239Y-44391883D01*
X61291964Y-44380495D01*
X61380495Y-44291964D01*
X61443095Y-44183536D01*
X61475500Y-44062601D01*
X61475500Y-43937399D01*
X61443095Y-43816464D01*
X61380495Y-43708036D01*
X61291964Y-43619505D01*
X61183536Y-43556905D01*
X61183537Y-43556905D01*
X61143224Y-43546103D01*
X61062601Y-43524500D01*
X60937399Y-43524500D01*
X60856775Y-43546103D01*
X60816463Y-43556905D01*
X60708037Y-43619504D01*
X60708034Y-43619506D01*
X60619506Y-43708034D01*
X60619504Y-43708037D01*
X60556905Y-43816463D01*
X60549769Y-43843094D01*
X60524500Y-43937399D01*
X40200500Y-43937399D01*
X40200500Y-43003480D01*
X40200695Y-42996527D01*
X40200965Y-42991716D01*
X40217713Y-42693494D01*
X40219267Y-42679700D01*
X40269523Y-42383915D01*
X40272616Y-42370363D01*
X40288841Y-42314047D01*
X40338007Y-42143389D01*
X47269500Y-42143389D01*
X47269500Y-42316611D01*
X47272793Y-42337400D01*
X47295456Y-42480495D01*
X47296598Y-42487701D01*
X47350127Y-42652445D01*
X47428768Y-42806788D01*
X47530586Y-42946928D01*
X47653072Y-43069414D01*
X47793212Y-43171232D01*
X47947555Y-43249873D01*
X48112299Y-43303402D01*
X48283389Y-43330500D01*
X48283390Y-43330500D01*
X48456610Y-43330500D01*
X48456611Y-43330500D01*
X48627701Y-43303402D01*
X48792445Y-43249873D01*
X48946788Y-43171232D01*
X49086928Y-43069414D01*
X49209414Y-42946928D01*
X49311232Y-42806788D01*
X49389873Y-42652445D01*
X49390896Y-42649294D01*
X49391610Y-42648250D01*
X49391734Y-42647952D01*
X49391796Y-42647977D01*
X49430327Y-42591618D01*
X49494683Y-42564415D01*
X49563530Y-42576323D01*
X49615011Y-42623562D01*
X49626760Y-42649287D01*
X49658904Y-42748217D01*
X49755375Y-42937550D01*
X49794728Y-42991716D01*
X50427037Y-42359408D01*
X50444075Y-42422993D01*
X50509901Y-42537007D01*
X50602993Y-42630099D01*
X50717007Y-42695925D01*
X50780590Y-42712962D01*
X50148282Y-43345269D01*
X50148282Y-43345270D01*
X50202449Y-43384624D01*
X50391782Y-43481095D01*
X50593870Y-43546757D01*
X50803754Y-43580000D01*
X51016246Y-43580000D01*
X51226127Y-43546757D01*
X51226130Y-43546757D01*
X51428217Y-43481095D01*
X51617554Y-43384622D01*
X51671716Y-43345270D01*
X51671717Y-43345270D01*
X51039408Y-42712962D01*
X51102993Y-42695925D01*
X51217007Y-42630099D01*
X51310099Y-42537007D01*
X51375925Y-42422993D01*
X51392962Y-42359408D01*
X52025270Y-42991717D01*
X52025270Y-42991716D01*
X52064622Y-42937554D01*
X52161096Y-42748215D01*
X52193239Y-42649288D01*
X52232676Y-42591612D01*
X52297034Y-42564413D01*
X52365880Y-42576327D01*
X52417357Y-42623571D01*
X52429100Y-42649284D01*
X52430127Y-42652446D01*
X52473161Y-42736905D01*
X52508768Y-42806788D01*
X52610586Y-42946928D01*
X52733072Y-43069414D01*
X52873212Y-43171232D01*
X53027555Y-43249873D01*
X53192299Y-43303402D01*
X53363389Y-43330500D01*
X53363390Y-43330500D01*
X53536610Y-43330500D01*
X53536611Y-43330500D01*
X53707701Y-43303402D01*
X53872445Y-43249873D01*
X54026788Y-43171232D01*
X54166928Y-43069414D01*
X54289414Y-42946928D01*
X54391232Y-42806788D01*
X54405515Y-42778756D01*
X54453489Y-42727960D01*
X54521309Y-42711164D01*
X54587445Y-42733701D01*
X54630897Y-42788415D01*
X54640000Y-42835050D01*
X54640000Y-43127844D01*
X54646401Y-43187372D01*
X54646403Y-43187379D01*
X54696645Y-43322086D01*
X54696649Y-43322093D01*
X54782809Y-43437187D01*
X54782812Y-43437190D01*
X54897906Y-43523350D01*
X54897913Y-43523354D01*
X55032620Y-43573596D01*
X55032627Y-43573598D01*
X55092155Y-43579999D01*
X55092172Y-43580000D01*
X55740000Y-43580000D01*
X55740000Y-42663012D01*
X55797007Y-42695925D01*
X55924174Y-42730000D01*
X56055826Y-42730000D01*
X56182993Y-42695925D01*
X56240000Y-42663012D01*
X56240000Y-43580000D01*
X56887828Y-43580000D01*
X56887844Y-43579999D01*
X56947372Y-43573598D01*
X56947379Y-43573596D01*
X57082086Y-43523354D01*
X57082093Y-43523350D01*
X57197187Y-43437190D01*
X57197190Y-43437187D01*
X57283350Y-43322093D01*
X57283354Y-43322086D01*
X57333596Y-43187379D01*
X57333598Y-43187372D01*
X57339999Y-43127844D01*
X57340000Y-43127827D01*
X57340000Y-43117399D01*
X73567879Y-43117399D01*
X73567879Y-43242601D01*
X73600284Y-43363536D01*
X73662884Y-43471964D01*
X73751415Y-43560495D01*
X73845197Y-43614639D01*
X73893411Y-43665203D01*
X73906635Y-43733810D01*
X73880668Y-43798675D01*
X73849883Y-43825352D01*
X73849952Y-43825442D01*
X73848453Y-43826592D01*
X73845205Y-43829407D01*
X73843507Y-43830387D01*
X73843499Y-43830393D01*
X73754971Y-43918921D01*
X73754969Y-43918924D01*
X73692370Y-44027350D01*
X73692370Y-44027351D01*
X73659965Y-44148286D01*
X73659965Y-44273488D01*
X73692370Y-44394423D01*
X73754970Y-44502851D01*
X73843501Y-44591382D01*
X73843503Y-44591383D01*
X73844265Y-44591968D01*
X73844746Y-44592627D01*
X73849248Y-44597129D01*
X73848545Y-44597831D01*
X73885465Y-44648399D01*
X73889615Y-44718145D01*
X73856455Y-44778021D01*
X73773849Y-44860626D01*
X73711251Y-44969052D01*
X73711251Y-44969053D01*
X73678846Y-45089988D01*
X73678846Y-45215190D01*
X73711251Y-45336125D01*
X73773851Y-45444553D01*
X73862382Y-45533084D01*
X73970810Y-45595684D01*
X74091745Y-45628089D01*
X74091747Y-45628089D01*
X74216945Y-45628089D01*
X74216947Y-45628089D01*
X74337882Y-45595684D01*
X74446310Y-45533084D01*
X74534841Y-45444553D01*
X74597441Y-45336125D01*
X74629846Y-45215190D01*
X74629846Y-45089988D01*
X74597441Y-44969053D01*
X74534841Y-44860625D01*
X74446310Y-44772094D01*
X74446308Y-44772092D01*
X74445543Y-44771505D01*
X74445061Y-44770845D01*
X74440563Y-44766347D01*
X74441264Y-44765645D01*
X74404345Y-44715074D01*
X74400195Y-44645328D01*
X74433353Y-44585457D01*
X74515960Y-44502851D01*
X74578560Y-44394423D01*
X74610965Y-44273488D01*
X74610965Y-44148286D01*
X74578560Y-44027351D01*
X74515960Y-43918923D01*
X74427429Y-43830392D01*
X74427428Y-43830391D01*
X74391380Y-43809579D01*
X74333646Y-43776247D01*
X74285432Y-43725682D01*
X74272208Y-43657075D01*
X74298176Y-43592210D01*
X74328961Y-43565535D01*
X74328892Y-43565445D01*
X74330409Y-43564280D01*
X74333652Y-43561471D01*
X74335343Y-43560495D01*
X74423874Y-43471964D01*
X74486474Y-43363536D01*
X74512163Y-43267662D01*
X74548527Y-43208004D01*
X74611374Y-43177475D01*
X74680749Y-43185770D01*
X74719618Y-43212077D01*
X74768036Y-43260495D01*
X74876464Y-43323095D01*
X74997399Y-43355500D01*
X74997401Y-43355500D01*
X75122599Y-43355500D01*
X75122601Y-43355500D01*
X75190154Y-43337399D01*
X78424500Y-43337399D01*
X78424500Y-43462601D01*
X78456905Y-43583536D01*
X78519505Y-43691964D01*
X78608036Y-43780495D01*
X78716464Y-43843095D01*
X78837399Y-43875500D01*
X78837401Y-43875500D01*
X78962599Y-43875500D01*
X78962601Y-43875500D01*
X79083536Y-43843095D01*
X79191964Y-43780495D01*
X79280495Y-43691964D01*
X79343095Y-43583536D01*
X79375500Y-43462601D01*
X79375500Y-43337399D01*
X79343095Y-43216464D01*
X79280495Y-43108036D01*
X79191964Y-43019505D01*
X79083536Y-42956905D01*
X79083537Y-42956905D01*
X79043224Y-42946103D01*
X78962601Y-42924500D01*
X78837399Y-42924500D01*
X78756775Y-42946103D01*
X78716463Y-42956905D01*
X78608037Y-43019504D01*
X78608034Y-43019506D01*
X78519506Y-43108034D01*
X78519504Y-43108037D01*
X78456905Y-43216463D01*
X78456905Y-43216464D01*
X78424500Y-43337399D01*
X75190154Y-43337399D01*
X75243536Y-43323095D01*
X75351964Y-43260495D01*
X75440495Y-43171964D01*
X75503095Y-43063536D01*
X75535500Y-42942601D01*
X75535500Y-42817399D01*
X75503095Y-42696464D01*
X75440495Y-42588036D01*
X75351964Y-42499505D01*
X75243536Y-42436905D01*
X75243537Y-42436905D01*
X75203224Y-42426103D01*
X75122601Y-42404500D01*
X74997399Y-42404500D01*
X74916775Y-42426103D01*
X74876463Y-42436905D01*
X74768037Y-42499504D01*
X74768034Y-42499506D01*
X74679506Y-42588034D01*
X74679504Y-42588037D01*
X74644136Y-42649297D01*
X74616905Y-42696464D01*
X74591216Y-42792336D01*
X74554850Y-42851996D01*
X74492003Y-42882524D01*
X74422627Y-42874229D01*
X74383760Y-42847922D01*
X74335344Y-42799506D01*
X74335343Y-42799505D01*
X74226915Y-42736905D01*
X74226916Y-42736905D01*
X74176574Y-42723416D01*
X74105980Y-42704500D01*
X73980778Y-42704500D01*
X73910184Y-42723416D01*
X73859842Y-42736905D01*
X73751416Y-42799504D01*
X73751413Y-42799506D01*
X73662885Y-42888034D01*
X73662883Y-42888037D01*
X73600284Y-42996463D01*
X73598832Y-43001883D01*
X73567879Y-43117399D01*
X57340000Y-43117399D01*
X57340000Y-42480000D01*
X56423012Y-42480000D01*
X56455925Y-42422993D01*
X56470433Y-42368850D01*
X69980590Y-42368850D01*
X69980590Y-42494052D01*
X70012995Y-42614987D01*
X70075595Y-42723415D01*
X70164126Y-42811946D01*
X70272554Y-42874546D01*
X70393489Y-42906951D01*
X70393491Y-42906951D01*
X70518690Y-42906951D01*
X70518691Y-42906951D01*
X70605563Y-42883673D01*
X70675410Y-42885334D01*
X70725337Y-42915766D01*
X70777688Y-42968117D01*
X70886116Y-43030717D01*
X71007051Y-43063122D01*
X71007053Y-43063122D01*
X71132251Y-43063122D01*
X71132253Y-43063122D01*
X71253188Y-43030717D01*
X71361616Y-42968117D01*
X71450147Y-42879586D01*
X71512747Y-42771158D01*
X71545152Y-42650223D01*
X71545152Y-42525021D01*
X71512747Y-42404086D01*
X71450147Y-42295658D01*
X71361616Y-42207127D01*
X71253188Y-42144527D01*
X71253189Y-42144527D01*
X71212876Y-42133725D01*
X71132253Y-42112122D01*
X71007051Y-42112122D01*
X70920177Y-42135399D01*
X70850329Y-42133737D01*
X70800404Y-42103306D01*
X70748055Y-42050957D01*
X70748054Y-42050956D01*
X70639626Y-41988356D01*
X70639627Y-41988356D01*
X70599314Y-41977554D01*
X70518691Y-41955951D01*
X70393489Y-41955951D01*
X70312865Y-41977554D01*
X70272553Y-41988356D01*
X70164127Y-42050955D01*
X70164124Y-42050957D01*
X70075596Y-42139485D01*
X70075594Y-42139488D01*
X70012995Y-42247914D01*
X70012995Y-42247915D01*
X69980590Y-42368850D01*
X56470433Y-42368850D01*
X56490000Y-42295826D01*
X56490000Y-42164174D01*
X56455925Y-42037007D01*
X56423012Y-41980000D01*
X57340000Y-41980000D01*
X57340000Y-41657889D01*
X66683519Y-41657889D01*
X66683519Y-41783091D01*
X66715924Y-41904026D01*
X66778524Y-42012454D01*
X66867055Y-42100985D01*
X66975483Y-42163585D01*
X67096418Y-42195990D01*
X67096420Y-42195990D01*
X67221618Y-42195990D01*
X67221620Y-42195990D01*
X67342555Y-42163585D01*
X67450983Y-42100985D01*
X67539514Y-42012454D01*
X67602114Y-41904026D01*
X67634519Y-41783091D01*
X67634519Y-41657889D01*
X67629029Y-41637399D01*
X72724500Y-41637399D01*
X72724500Y-41762601D01*
X72756905Y-41883536D01*
X72819505Y-41991964D01*
X72908036Y-42080495D01*
X73016464Y-42143095D01*
X73137399Y-42175500D01*
X73137401Y-42175500D01*
X73262599Y-42175500D01*
X73262601Y-42175500D01*
X73383536Y-42143095D01*
X73491964Y-42080495D01*
X73580495Y-41991964D01*
X73643095Y-41883536D01*
X73675500Y-41762601D01*
X73675500Y-41637399D01*
X73643095Y-41516464D01*
X73608480Y-41456508D01*
X73584344Y-41414702D01*
X73584342Y-41414700D01*
X73580495Y-41408036D01*
X73533290Y-41360831D01*
X75445177Y-41360831D01*
X75445177Y-41486033D01*
X75477582Y-41606968D01*
X75540182Y-41715396D01*
X75628713Y-41803927D01*
X75737141Y-41866527D01*
X75858076Y-41898932D01*
X75858078Y-41898932D01*
X75983276Y-41898932D01*
X75983278Y-41898932D01*
X76104213Y-41866527D01*
X76212641Y-41803927D01*
X76301172Y-41715396D01*
X76363772Y-41606968D01*
X76396177Y-41486033D01*
X76396177Y-41360831D01*
X76363772Y-41239896D01*
X76362330Y-41237399D01*
X78424500Y-41237399D01*
X78424500Y-41362601D01*
X78456905Y-41483536D01*
X78487745Y-41536954D01*
X78519504Y-41591962D01*
X78519506Y-41591965D01*
X78580505Y-41652964D01*
X78613990Y-41714287D01*
X78612599Y-41772738D01*
X78587468Y-41866527D01*
X78587436Y-41866648D01*
X78587436Y-41991850D01*
X78619841Y-42112785D01*
X78682441Y-42221213D01*
X78770972Y-42309744D01*
X78879400Y-42372344D01*
X79000335Y-42404749D01*
X79000337Y-42404749D01*
X79125535Y-42404749D01*
X79125537Y-42404749D01*
X79246472Y-42372344D01*
X79306999Y-42337399D01*
X80824500Y-42337399D01*
X80824500Y-42462601D01*
X80856905Y-42583536D01*
X80919505Y-42691964D01*
X81008036Y-42780495D01*
X81116464Y-42843095D01*
X81237399Y-42875500D01*
X81237401Y-42875500D01*
X81362599Y-42875500D01*
X81362601Y-42875500D01*
X81483536Y-42843095D01*
X81591964Y-42780495D01*
X81680495Y-42691964D01*
X81743095Y-42583536D01*
X81775500Y-42462601D01*
X81775500Y-42337399D01*
X81743095Y-42216464D01*
X81697447Y-42137399D01*
X84624500Y-42137399D01*
X84624500Y-42262601D01*
X84656905Y-42383536D01*
X84719505Y-42491964D01*
X84808036Y-42580495D01*
X84916464Y-42643095D01*
X85037399Y-42675500D01*
X85037401Y-42675500D01*
X85162599Y-42675500D01*
X85162601Y-42675500D01*
X85283536Y-42643095D01*
X85391964Y-42580495D01*
X85480495Y-42491964D01*
X85543095Y-42383536D01*
X85551691Y-42351454D01*
X85588055Y-42291796D01*
X85650901Y-42261267D01*
X85720277Y-42269561D01*
X85774155Y-42314047D01*
X85778848Y-42321543D01*
X85788003Y-42337400D01*
X85819503Y-42391962D01*
X85819505Y-42391964D01*
X85908036Y-42480495D01*
X86016464Y-42543095D01*
X86137399Y-42575500D01*
X86137401Y-42575500D01*
X86262599Y-42575500D01*
X86262601Y-42575500D01*
X86383536Y-42543095D01*
X86491964Y-42480495D01*
X86580495Y-42391964D01*
X86643095Y-42283536D01*
X86675500Y-42162601D01*
X86675500Y-42143389D01*
X87909500Y-42143389D01*
X87909500Y-42316611D01*
X87912793Y-42337400D01*
X87935456Y-42480495D01*
X87936598Y-42487701D01*
X87990127Y-42652445D01*
X88068768Y-42806788D01*
X88170586Y-42946928D01*
X88293072Y-43069414D01*
X88433212Y-43171232D01*
X88587555Y-43249873D01*
X88752299Y-43303402D01*
X88923389Y-43330500D01*
X88923390Y-43330500D01*
X89096610Y-43330500D01*
X89096611Y-43330500D01*
X89267701Y-43303402D01*
X89432445Y-43249873D01*
X89586788Y-43171232D01*
X89726928Y-43069414D01*
X89849414Y-42946928D01*
X89951232Y-42806788D01*
X90029873Y-42652445D01*
X90030896Y-42649294D01*
X90031610Y-42648250D01*
X90031734Y-42647952D01*
X90031796Y-42647977D01*
X90070327Y-42591618D01*
X90134683Y-42564415D01*
X90203530Y-42576323D01*
X90255011Y-42623562D01*
X90266760Y-42649287D01*
X90298904Y-42748217D01*
X90395375Y-42937550D01*
X90434728Y-42991716D01*
X91067037Y-42359408D01*
X91084075Y-42422993D01*
X91149901Y-42537007D01*
X91242993Y-42630099D01*
X91357007Y-42695925D01*
X91420590Y-42712962D01*
X90788282Y-43345269D01*
X90788282Y-43345270D01*
X90842449Y-43384624D01*
X91031782Y-43481095D01*
X91233870Y-43546757D01*
X91443754Y-43580000D01*
X91656246Y-43580000D01*
X91866127Y-43546757D01*
X91866130Y-43546757D01*
X92068217Y-43481095D01*
X92257554Y-43384622D01*
X92311716Y-43345270D01*
X92311717Y-43345270D01*
X91679408Y-42712962D01*
X91742993Y-42695925D01*
X91857007Y-42630099D01*
X91950099Y-42537007D01*
X92015925Y-42422993D01*
X92032962Y-42359408D01*
X92665270Y-42991717D01*
X92665270Y-42991716D01*
X92704622Y-42937554D01*
X92801096Y-42748215D01*
X92833239Y-42649288D01*
X92872676Y-42591612D01*
X92937034Y-42564413D01*
X93005880Y-42576327D01*
X93057357Y-42623571D01*
X93069100Y-42649284D01*
X93070127Y-42652446D01*
X93113161Y-42736905D01*
X93148768Y-42806788D01*
X93250586Y-42946928D01*
X93373072Y-43069414D01*
X93513212Y-43171232D01*
X93667555Y-43249873D01*
X93832299Y-43303402D01*
X94003389Y-43330500D01*
X94003390Y-43330500D01*
X94176610Y-43330500D01*
X94176611Y-43330500D01*
X94347701Y-43303402D01*
X94512445Y-43249873D01*
X94666788Y-43171232D01*
X94806928Y-43069414D01*
X94929414Y-42946928D01*
X95031232Y-42806788D01*
X95045515Y-42778756D01*
X95093489Y-42727960D01*
X95161309Y-42711164D01*
X95227445Y-42733701D01*
X95270897Y-42788415D01*
X95280000Y-42835050D01*
X95280000Y-43127844D01*
X95286401Y-43187372D01*
X95286403Y-43187379D01*
X95336645Y-43322086D01*
X95336649Y-43322093D01*
X95422809Y-43437187D01*
X95422812Y-43437190D01*
X95537906Y-43523350D01*
X95537913Y-43523354D01*
X95672620Y-43573596D01*
X95672627Y-43573598D01*
X95732155Y-43579999D01*
X95732172Y-43580000D01*
X96380000Y-43580000D01*
X96380000Y-42663012D01*
X96437007Y-42695925D01*
X96564174Y-42730000D01*
X96695826Y-42730000D01*
X96822993Y-42695925D01*
X96880000Y-42663012D01*
X96880000Y-43580000D01*
X97527828Y-43580000D01*
X97527844Y-43579999D01*
X97587372Y-43573598D01*
X97587379Y-43573596D01*
X97722086Y-43523354D01*
X97722093Y-43523350D01*
X97837187Y-43437190D01*
X97837190Y-43437187D01*
X97923350Y-43322093D01*
X97923354Y-43322086D01*
X97973596Y-43187379D01*
X97973598Y-43187372D01*
X97979999Y-43127844D01*
X97980000Y-43127827D01*
X97980000Y-42480000D01*
X97063012Y-42480000D01*
X97095925Y-42422993D01*
X97130000Y-42295826D01*
X97130000Y-42164174D01*
X97095925Y-42037007D01*
X97063012Y-41980000D01*
X97980000Y-41980000D01*
X97980000Y-41332172D01*
X97979999Y-41332155D01*
X97973598Y-41272627D01*
X97973596Y-41272620D01*
X97923354Y-41137913D01*
X97923350Y-41137906D01*
X97837190Y-41022812D01*
X97837187Y-41022809D01*
X97722093Y-40936649D01*
X97722086Y-40936645D01*
X97587379Y-40886403D01*
X97587372Y-40886401D01*
X97527844Y-40880000D01*
X96880000Y-40880000D01*
X96880000Y-41796988D01*
X96822993Y-41764075D01*
X96695826Y-41730000D01*
X96564174Y-41730000D01*
X96437007Y-41764075D01*
X96380000Y-41796988D01*
X96380000Y-40880000D01*
X95732155Y-40880000D01*
X95672627Y-40886401D01*
X95672620Y-40886403D01*
X95537913Y-40936645D01*
X95537906Y-40936649D01*
X95422812Y-41022809D01*
X95422809Y-41022812D01*
X95336649Y-41137906D01*
X95336645Y-41137913D01*
X95286403Y-41272620D01*
X95286401Y-41272627D01*
X95280000Y-41332155D01*
X95280000Y-41624949D01*
X95260315Y-41691988D01*
X95207511Y-41737743D01*
X95138353Y-41747687D01*
X95074797Y-41718662D01*
X95045515Y-41681244D01*
X95042951Y-41676213D01*
X95031232Y-41653212D01*
X94929414Y-41513072D01*
X94806928Y-41390586D01*
X94666788Y-41288768D01*
X94570870Y-41239896D01*
X94512447Y-41210128D01*
X94512446Y-41210127D01*
X94512445Y-41210127D01*
X94347701Y-41156598D01*
X94347699Y-41156597D01*
X94347698Y-41156597D01*
X94216271Y-41135781D01*
X94176611Y-41129500D01*
X94003389Y-41129500D01*
X93963728Y-41135781D01*
X93832302Y-41156597D01*
X93667552Y-41210128D01*
X93513211Y-41288768D01*
X93442706Y-41339994D01*
X93373072Y-41390586D01*
X93373070Y-41390588D01*
X93373069Y-41390588D01*
X93250588Y-41513069D01*
X93250588Y-41513070D01*
X93250586Y-41513072D01*
X93206859Y-41573256D01*
X93148768Y-41653211D01*
X93070128Y-41807550D01*
X93069970Y-41808037D01*
X93069102Y-41810712D01*
X93069099Y-41810720D01*
X93068381Y-41811769D01*
X93068266Y-41812048D01*
X93068207Y-41812023D01*
X93029657Y-41868393D01*
X92965297Y-41895587D01*
X92896451Y-41883668D01*
X92844979Y-41836420D01*
X92833239Y-41810711D01*
X92801096Y-41711784D01*
X92704624Y-41522449D01*
X92665270Y-41468282D01*
X92665269Y-41468282D01*
X92032962Y-42100590D01*
X92015925Y-42037007D01*
X91950099Y-41922993D01*
X91857007Y-41829901D01*
X91742993Y-41764075D01*
X91679409Y-41747037D01*
X92311716Y-41114728D01*
X92257550Y-41075375D01*
X92068217Y-40978904D01*
X91866129Y-40913242D01*
X91656246Y-40880000D01*
X91443754Y-40880000D01*
X91233872Y-40913242D01*
X91233869Y-40913242D01*
X91031782Y-40978904D01*
X90842439Y-41075380D01*
X90788282Y-41114727D01*
X90788282Y-41114728D01*
X91420591Y-41747037D01*
X91357007Y-41764075D01*
X91242993Y-41829901D01*
X91149901Y-41922993D01*
X91084075Y-42037007D01*
X91067037Y-42100591D01*
X90434728Y-41468282D01*
X90434727Y-41468282D01*
X90395380Y-41522439D01*
X90298904Y-41711783D01*
X90266760Y-41810712D01*
X90227322Y-41868388D01*
X90162964Y-41895586D01*
X90094117Y-41883671D01*
X90042642Y-41836427D01*
X90030898Y-41810711D01*
X90029873Y-41807555D01*
X89951232Y-41653212D01*
X89849414Y-41513072D01*
X89726928Y-41390586D01*
X89586788Y-41288768D01*
X89490870Y-41239896D01*
X89432447Y-41210128D01*
X89432446Y-41210127D01*
X89432445Y-41210127D01*
X89267701Y-41156598D01*
X89267699Y-41156597D01*
X89267698Y-41156597D01*
X89136271Y-41135781D01*
X89096611Y-41129500D01*
X88923389Y-41129500D01*
X88883728Y-41135781D01*
X88752302Y-41156597D01*
X88587552Y-41210128D01*
X88433211Y-41288768D01*
X88362706Y-41339994D01*
X88293072Y-41390586D01*
X88293070Y-41390588D01*
X88293069Y-41390588D01*
X88170588Y-41513069D01*
X88170588Y-41513070D01*
X88170586Y-41513072D01*
X88126859Y-41573256D01*
X88068768Y-41653211D01*
X87990128Y-41807552D01*
X87936597Y-41972302D01*
X87915709Y-42104188D01*
X87909500Y-42143389D01*
X86675500Y-42143389D01*
X86675500Y-42037399D01*
X86643095Y-41916464D01*
X86580495Y-41808036D01*
X86491964Y-41719505D01*
X86383536Y-41656905D01*
X86383537Y-41656905D01*
X86343224Y-41646103D01*
X86262601Y-41624500D01*
X86137399Y-41624500D01*
X86056775Y-41646103D01*
X86016463Y-41656905D01*
X85908037Y-41719504D01*
X85908034Y-41719506D01*
X85819506Y-41808034D01*
X85819504Y-41808037D01*
X85756905Y-41916463D01*
X85756904Y-41916465D01*
X85748308Y-41948546D01*
X85711942Y-42008205D01*
X85649094Y-42038733D01*
X85579719Y-42030436D01*
X85525842Y-41985949D01*
X85521156Y-41978464D01*
X85480495Y-41908036D01*
X85391964Y-41819505D01*
X85283536Y-41756905D01*
X85283537Y-41756905D01*
X85241764Y-41745712D01*
X85162601Y-41724500D01*
X85037399Y-41724500D01*
X84958236Y-41745712D01*
X84916463Y-41756905D01*
X84808037Y-41819504D01*
X84808034Y-41819506D01*
X84719506Y-41908034D01*
X84719504Y-41908037D01*
X84656905Y-42016463D01*
X84656905Y-42016464D01*
X84624500Y-42137399D01*
X81697447Y-42137399D01*
X81680495Y-42108036D01*
X81591964Y-42019505D01*
X81591963Y-42019504D01*
X81554727Y-41998007D01*
X81483536Y-41956905D01*
X81362601Y-41924500D01*
X81237399Y-41924500D01*
X81156775Y-41946103D01*
X81116463Y-41956905D01*
X81008037Y-42019504D01*
X81008034Y-42019506D01*
X80919506Y-42108034D01*
X80919504Y-42108037D01*
X80856905Y-42216463D01*
X80844900Y-42261267D01*
X80824500Y-42337399D01*
X79306999Y-42337399D01*
X79354900Y-42309744D01*
X79443431Y-42221213D01*
X79506031Y-42112785D01*
X79538436Y-41991850D01*
X79538436Y-41866648D01*
X79506031Y-41745713D01*
X79443431Y-41637285D01*
X79382430Y-41576284D01*
X79348945Y-41514961D01*
X79350335Y-41456513D01*
X79375500Y-41362601D01*
X79375500Y-41243331D01*
X81312171Y-41243331D01*
X81312171Y-41368533D01*
X81344576Y-41489468D01*
X81407176Y-41597896D01*
X81495707Y-41686427D01*
X81604135Y-41749027D01*
X81725070Y-41781432D01*
X81725072Y-41781432D01*
X81850270Y-41781432D01*
X81850272Y-41781432D01*
X81971207Y-41749027D01*
X82079635Y-41686427D01*
X82168166Y-41597896D01*
X82230766Y-41489468D01*
X82263171Y-41368533D01*
X82263171Y-41243331D01*
X82230766Y-41122396D01*
X82168166Y-41013968D01*
X82079635Y-40925437D01*
X81971207Y-40862837D01*
X81971208Y-40862837D01*
X81930895Y-40852035D01*
X81850272Y-40830432D01*
X81725070Y-40830432D01*
X81644446Y-40852035D01*
X81604134Y-40862837D01*
X81495708Y-40925436D01*
X81495705Y-40925438D01*
X81407177Y-41013966D01*
X81407175Y-41013969D01*
X81344576Y-41122395D01*
X81342145Y-41131468D01*
X81312171Y-41243331D01*
X79375500Y-41243331D01*
X79375500Y-41237399D01*
X79343095Y-41116464D01*
X79280495Y-41008036D01*
X79191964Y-40919505D01*
X79083536Y-40856905D01*
X79083537Y-40856905D01*
X79043224Y-40846103D01*
X78962601Y-40824500D01*
X78837399Y-40824500D01*
X78756775Y-40846103D01*
X78716463Y-40856905D01*
X78608037Y-40919504D01*
X78608034Y-40919506D01*
X78519506Y-41008034D01*
X78519504Y-41008037D01*
X78456905Y-41116463D01*
X78446151Y-41156597D01*
X78424500Y-41237399D01*
X76362330Y-41237399D01*
X76301172Y-41131468D01*
X76212641Y-41042937D01*
X76104213Y-40980337D01*
X76104214Y-40980337D01*
X76063901Y-40969535D01*
X75983278Y-40947932D01*
X75858076Y-40947932D01*
X75777452Y-40969535D01*
X75737140Y-40980337D01*
X75628714Y-41042936D01*
X75628711Y-41042938D01*
X75540183Y-41131466D01*
X75540181Y-41131469D01*
X75477582Y-41239895D01*
X75468042Y-41275500D01*
X75445177Y-41360831D01*
X73533290Y-41360831D01*
X73491965Y-41319506D01*
X73491964Y-41319505D01*
X73383536Y-41256905D01*
X73383537Y-41256905D01*
X73331997Y-41243095D01*
X73262601Y-41224500D01*
X73137399Y-41224500D01*
X73068003Y-41243095D01*
X73016463Y-41256905D01*
X72908037Y-41319504D01*
X72908034Y-41319506D01*
X72819506Y-41408034D01*
X72819504Y-41408037D01*
X72756905Y-41516463D01*
X72749256Y-41545009D01*
X72724500Y-41637399D01*
X67629029Y-41637399D01*
X67602114Y-41536954D01*
X67539514Y-41428526D01*
X67450983Y-41339995D01*
X67342555Y-41277395D01*
X67342556Y-41277395D01*
X67282731Y-41261365D01*
X67221620Y-41244990D01*
X67096418Y-41244990D01*
X67035307Y-41261365D01*
X66975482Y-41277395D01*
X66867056Y-41339994D01*
X66867053Y-41339996D01*
X66778525Y-41428524D01*
X66778523Y-41428527D01*
X66715924Y-41536953D01*
X66712762Y-41548754D01*
X66683519Y-41657889D01*
X57340000Y-41657889D01*
X57340000Y-41332172D01*
X57339999Y-41332155D01*
X57333598Y-41272627D01*
X57333596Y-41272620D01*
X57283354Y-41137913D01*
X57283350Y-41137906D01*
X57197190Y-41022812D01*
X57197187Y-41022809D01*
X57082093Y-40936649D01*
X57082086Y-40936645D01*
X56947379Y-40886403D01*
X56947372Y-40886401D01*
X56887844Y-40880000D01*
X56240000Y-40880000D01*
X56240000Y-41796988D01*
X56182993Y-41764075D01*
X56055826Y-41730000D01*
X55924174Y-41730000D01*
X55797007Y-41764075D01*
X55740000Y-41796988D01*
X55740000Y-40880000D01*
X55092155Y-40880000D01*
X55032627Y-40886401D01*
X55032620Y-40886403D01*
X54897913Y-40936645D01*
X54897906Y-40936649D01*
X54782812Y-41022809D01*
X54782809Y-41022812D01*
X54696649Y-41137906D01*
X54696645Y-41137913D01*
X54646403Y-41272620D01*
X54646401Y-41272627D01*
X54640000Y-41332155D01*
X54640000Y-41624949D01*
X54620315Y-41691988D01*
X54567511Y-41737743D01*
X54498353Y-41747687D01*
X54434797Y-41718662D01*
X54405515Y-41681244D01*
X54402951Y-41676213D01*
X54391232Y-41653212D01*
X54289414Y-41513072D01*
X54166928Y-41390586D01*
X54026788Y-41288768D01*
X53930870Y-41239896D01*
X53872447Y-41210128D01*
X53872446Y-41210127D01*
X53872445Y-41210127D01*
X53707701Y-41156598D01*
X53707699Y-41156597D01*
X53707698Y-41156597D01*
X53576271Y-41135781D01*
X53536611Y-41129500D01*
X53363389Y-41129500D01*
X53323728Y-41135781D01*
X53192302Y-41156597D01*
X53027552Y-41210128D01*
X52873211Y-41288768D01*
X52802706Y-41339994D01*
X52733072Y-41390586D01*
X52733070Y-41390588D01*
X52733069Y-41390588D01*
X52610588Y-41513069D01*
X52610588Y-41513070D01*
X52610586Y-41513072D01*
X52566859Y-41573256D01*
X52508768Y-41653211D01*
X52430128Y-41807550D01*
X52429970Y-41808037D01*
X52429102Y-41810712D01*
X52429099Y-41810720D01*
X52428381Y-41811769D01*
X52428266Y-41812048D01*
X52428207Y-41812023D01*
X52389657Y-41868393D01*
X52325297Y-41895587D01*
X52256451Y-41883668D01*
X52204979Y-41836420D01*
X52193239Y-41810711D01*
X52161096Y-41711784D01*
X52064624Y-41522449D01*
X52025270Y-41468282D01*
X52025269Y-41468282D01*
X51392962Y-42100590D01*
X51375925Y-42037007D01*
X51310099Y-41922993D01*
X51217007Y-41829901D01*
X51102993Y-41764075D01*
X51039409Y-41747037D01*
X51671716Y-41114728D01*
X51617550Y-41075375D01*
X51428217Y-40978904D01*
X51226129Y-40913242D01*
X51016246Y-40880000D01*
X50803754Y-40880000D01*
X50593872Y-40913242D01*
X50593869Y-40913242D01*
X50391782Y-40978904D01*
X50202439Y-41075380D01*
X50148282Y-41114727D01*
X50148282Y-41114728D01*
X50780591Y-41747037D01*
X50717007Y-41764075D01*
X50602993Y-41829901D01*
X50509901Y-41922993D01*
X50444075Y-42037007D01*
X50427037Y-42100591D01*
X49794728Y-41468282D01*
X49794727Y-41468282D01*
X49755380Y-41522439D01*
X49658904Y-41711783D01*
X49626760Y-41810712D01*
X49587322Y-41868388D01*
X49522964Y-41895586D01*
X49454117Y-41883671D01*
X49402642Y-41836427D01*
X49390898Y-41810711D01*
X49389873Y-41807555D01*
X49311232Y-41653212D01*
X49209414Y-41513072D01*
X49086928Y-41390586D01*
X48946788Y-41288768D01*
X48850870Y-41239896D01*
X48792447Y-41210128D01*
X48792446Y-41210127D01*
X48792445Y-41210127D01*
X48627701Y-41156598D01*
X48627699Y-41156597D01*
X48627698Y-41156597D01*
X48496271Y-41135781D01*
X48456611Y-41129500D01*
X48283389Y-41129500D01*
X48243728Y-41135781D01*
X48112302Y-41156597D01*
X47947552Y-41210128D01*
X47793211Y-41288768D01*
X47722706Y-41339994D01*
X47653072Y-41390586D01*
X47653070Y-41390588D01*
X47653069Y-41390588D01*
X47530588Y-41513069D01*
X47530588Y-41513070D01*
X47530586Y-41513072D01*
X47486859Y-41573256D01*
X47428768Y-41653211D01*
X47350128Y-41807552D01*
X47296597Y-41972302D01*
X47275709Y-42104188D01*
X47269500Y-42143389D01*
X40338007Y-42143389D01*
X40349555Y-42103306D01*
X40355673Y-42082071D01*
X40360265Y-42068948D01*
X40406674Y-41956905D01*
X40475075Y-41791768D01*
X40481097Y-41779262D01*
X40626230Y-41516665D01*
X40633625Y-41504897D01*
X40807245Y-41260201D01*
X40815896Y-41249354D01*
X41015816Y-41025645D01*
X41025647Y-41015815D01*
X41061767Y-40983536D01*
X41249354Y-40815896D01*
X41260201Y-40807245D01*
X41504902Y-40633621D01*
X41516665Y-40626230D01*
X41779262Y-40481097D01*
X41791768Y-40475075D01*
X42068948Y-40360265D01*
X42082068Y-40355673D01*
X42370369Y-40272614D01*
X42383915Y-40269523D01*
X42679700Y-40219267D01*
X42693494Y-40217713D01*
X42996528Y-40200695D01*
X43003481Y-40200500D01*
X43039882Y-40200500D01*
X84728157Y-40200500D01*
X84795196Y-40220185D01*
G37*
%TD.AperFunction*%
%TD*%
M02*
