%TF.GenerationSoftware,KiCad,Pcbnew,9.0.5*%
%TF.CreationDate,2025-11-30T19:44:02-05:00*%
%TF.ProjectId,composite_vr,636f6d70-6f73-4697-9465-5f76722e6b69,0*%
%TF.SameCoordinates,Original*%
%TF.FileFunction,Paste,Bot*%
%TF.FilePolarity,Positive*%
%FSLAX46Y46*%
G04 Gerber Fmt 4.6, Leading zero omitted, Abs format (unit mm)*
G04 Created by KiCad (PCBNEW 9.0.5) date 2025-11-30 19:44:02*
%MOMM*%
%LPD*%
G01*
G04 APERTURE LIST*
G04 Aperture macros list*
%AMRoundRect*
0 Rectangle with rounded corners*
0 $1 Rounding radius*
0 $2 $3 $4 $5 $6 $7 $8 $9 X,Y pos of 4 corners*
0 Add a 4 corners polygon primitive as box body*
4,1,4,$2,$3,$4,$5,$6,$7,$8,$9,$2,$3,0*
0 Add four circle primitives for the rounded corners*
1,1,$1+$1,$2,$3*
1,1,$1+$1,$4,$5*
1,1,$1+$1,$6,$7*
1,1,$1+$1,$8,$9*
0 Add four rect primitives between the rounded corners*
20,1,$1+$1,$2,$3,$4,$5,0*
20,1,$1+$1,$4,$5,$6,$7,0*
20,1,$1+$1,$6,$7,$8,$9,0*
20,1,$1+$1,$8,$9,$2,$3,0*%
G04 Aperture macros list end*
%ADD10RoundRect,0.250000X0.475000X-0.250000X0.475000X0.250000X-0.475000X0.250000X-0.475000X-0.250000X0*%
%ADD11RoundRect,0.140000X-0.170000X0.140000X-0.170000X-0.140000X0.170000X-0.140000X0.170000X0.140000X0*%
%ADD12RoundRect,0.140000X0.140000X0.170000X-0.140000X0.170000X-0.140000X-0.170000X0.140000X-0.170000X0*%
%ADD13RoundRect,0.140000X-0.140000X-0.170000X0.140000X-0.170000X0.140000X0.170000X-0.140000X0.170000X0*%
%ADD14RoundRect,0.100000X-0.225000X-0.100000X0.225000X-0.100000X0.225000X0.100000X-0.225000X0.100000X0*%
%ADD15RoundRect,0.140000X0.170000X-0.140000X0.170000X0.140000X-0.170000X0.140000X-0.170000X-0.140000X0*%
%ADD16RoundRect,0.250000X-0.250000X-0.475000X0.250000X-0.475000X0.250000X0.475000X-0.250000X0.475000X0*%
%ADD17RoundRect,0.250000X-0.475000X0.250000X-0.475000X-0.250000X0.475000X-0.250000X0.475000X0.250000X0*%
%ADD18RoundRect,0.225000X0.250000X-0.225000X0.250000X0.225000X-0.250000X0.225000X-0.250000X-0.225000X0*%
%ADD19RoundRect,0.250000X-0.325000X-0.650000X0.325000X-0.650000X0.325000X0.650000X-0.325000X0.650000X0*%
%ADD20RoundRect,0.087500X-0.537500X-0.087500X0.537500X-0.087500X0.537500X0.087500X-0.537500X0.087500X0*%
%ADD21RoundRect,0.250000X0.250000X0.475000X-0.250000X0.475000X-0.250000X-0.475000X0.250000X-0.475000X0*%
%ADD22RoundRect,0.087500X0.537500X0.087500X-0.537500X0.087500X-0.537500X-0.087500X0.537500X-0.087500X0*%
%ADD23RoundRect,0.250000X-0.650000X0.325000X-0.650000X-0.325000X0.650000X-0.325000X0.650000X0.325000X0*%
G04 APERTURE END LIST*
D10*
%TO.C,C38*%
X71050000Y-45050000D03*
X71050000Y-46950000D03*
%TD*%
D11*
%TO.C,C49*%
X70701414Y-49080000D03*
X70701414Y-50080000D03*
%TD*%
D12*
%TO.C,R102*%
X87400000Y-69200000D03*
X88400000Y-69200000D03*
%TD*%
D13*
%TO.C,R101*%
X91200000Y-69200000D03*
X90200000Y-69200000D03*
%TD*%
%TO.C,R100*%
X88400000Y-68400000D03*
X87400000Y-68400000D03*
%TD*%
D12*
%TO.C,R99*%
X91100000Y-65300000D03*
X92100000Y-65300000D03*
%TD*%
%TO.C,C70*%
X90200000Y-68400000D03*
X91200000Y-68400000D03*
%TD*%
D13*
%TO.C,R65*%
X82300000Y-48700000D03*
X83300000Y-48700000D03*
%TD*%
%TO.C,R57*%
X89000000Y-44400000D03*
X90000000Y-44400000D03*
%TD*%
%TO.C,R52*%
X82300000Y-43900000D03*
X83300000Y-43900000D03*
%TD*%
%TO.C,R56*%
X94100000Y-44400000D03*
X95100000Y-44400000D03*
%TD*%
%TO.C,R80*%
X78200000Y-52900000D03*
X79200000Y-52900000D03*
%TD*%
%TO.C,R76*%
X78200000Y-52100000D03*
X79200000Y-52100000D03*
%TD*%
D14*
%TO.C,U15*%
X79350707Y-50049293D03*
X79350707Y-49399293D03*
X79350707Y-48749293D03*
X81250707Y-48749293D03*
X81250707Y-49399293D03*
X81250707Y-50049293D03*
%TD*%
D13*
%TO.C,R92*%
X69900000Y-56900000D03*
X68900000Y-56900000D03*
%TD*%
%TO.C,R89*%
X75300000Y-56900000D03*
X74300000Y-56900000D03*
%TD*%
%TO.C,R90*%
X73500000Y-56900000D03*
X72500000Y-56900000D03*
%TD*%
%TO.C,R91*%
X71700000Y-56900000D03*
X70700000Y-56900000D03*
%TD*%
D11*
%TO.C,R87*%
X70000000Y-56100000D03*
X70000000Y-55100000D03*
%TD*%
D12*
%TO.C,C46*%
X73600000Y-48000000D03*
X72600000Y-48000000D03*
%TD*%
D13*
%TO.C,R82*%
X74600000Y-54200000D03*
X75600000Y-54200000D03*
%TD*%
%TO.C,C47*%
X62600000Y-48000000D03*
X63600000Y-48000000D03*
%TD*%
%TO.C,C44*%
X62600000Y-47000000D03*
X63600000Y-47000000D03*
%TD*%
D11*
%TO.C,R49*%
X80400000Y-41600000D03*
X80400000Y-42600000D03*
%TD*%
%TO.C,C41*%
X83655000Y-45645000D03*
X83655000Y-46645000D03*
%TD*%
D15*
%TO.C,R45*%
X74100000Y-42600000D03*
X74100000Y-41600000D03*
%TD*%
D11*
%TO.C,R51*%
X76400000Y-42400000D03*
X76400000Y-43400000D03*
%TD*%
D13*
%TO.C,R39*%
X72500000Y-40800000D03*
X73500000Y-40800000D03*
%TD*%
%TO.C,R53*%
X74600000Y-44000000D03*
X75600000Y-44000000D03*
%TD*%
D12*
%TO.C,C62*%
X73600000Y-53000000D03*
X72600000Y-53000000D03*
%TD*%
%TO.C,R98*%
X71800000Y-62500000D03*
X70800000Y-62500000D03*
%TD*%
D13*
%TO.C,C52*%
X62600000Y-50000000D03*
X63600000Y-50000000D03*
%TD*%
%TO.C,R66*%
X75400000Y-49800000D03*
X76400000Y-49800000D03*
%TD*%
D15*
%TO.C,R60*%
X78200000Y-45600000D03*
X78200000Y-44600000D03*
%TD*%
D11*
%TO.C,C59*%
X47900000Y-51000000D03*
X47900000Y-52000000D03*
%TD*%
D12*
%TO.C,R70*%
X86300000Y-49900000D03*
X85300000Y-49900000D03*
%TD*%
D15*
%TO.C,R72*%
X76400000Y-51600000D03*
X76400000Y-50600000D03*
%TD*%
D11*
%TO.C,R95*%
X68100000Y-56700000D03*
X68100000Y-57700000D03*
%TD*%
D15*
%TO.C,R75*%
X75600000Y-52000000D03*
X75600000Y-51000000D03*
%TD*%
D16*
%TO.C,C61*%
X62750000Y-52600000D03*
X64650000Y-52600000D03*
%TD*%
D12*
%TO.C,C63*%
X73600000Y-54000000D03*
X72600000Y-54000000D03*
%TD*%
D17*
%TO.C,C68*%
X95000000Y-60600000D03*
X95000000Y-62500000D03*
%TD*%
D12*
%TO.C,R73*%
X79200000Y-51300000D03*
X78200000Y-51300000D03*
%TD*%
D13*
%TO.C,R63*%
X74600000Y-47000000D03*
X75600000Y-47000000D03*
%TD*%
D15*
%TO.C,R81*%
X76400000Y-53400000D03*
X76400000Y-52400000D03*
%TD*%
%TO.C,R47*%
X71700707Y-42600000D03*
X71700707Y-41600000D03*
%TD*%
D13*
%TO.C,R40*%
X70699293Y-40800000D03*
X71699293Y-40800000D03*
%TD*%
D11*
%TO.C,C34*%
X82400000Y-40800000D03*
X82400000Y-41800000D03*
%TD*%
%TO.C,C48*%
X69900000Y-48100000D03*
X69900000Y-49100000D03*
%TD*%
D13*
%TO.C,R88*%
X74300000Y-56100000D03*
X75300000Y-56100000D03*
%TD*%
D11*
%TO.C,R85*%
X71600000Y-55100000D03*
X71600000Y-56100000D03*
%TD*%
D13*
%TO.C,R41*%
X68899293Y-40800000D03*
X69899293Y-40800000D03*
%TD*%
D18*
%TO.C,C67*%
X88300000Y-57280000D03*
X88300000Y-55720000D03*
%TD*%
D11*
%TO.C,R84*%
X72400000Y-55100000D03*
X72400000Y-56100000D03*
%TD*%
D12*
%TO.C,R42*%
X68100000Y-40800000D03*
X67100000Y-40800000D03*
%TD*%
D13*
%TO.C,R38*%
X74300000Y-40800000D03*
X75300000Y-40800000D03*
%TD*%
%TO.C,C55*%
X62600000Y-51000000D03*
X63600000Y-51000000D03*
%TD*%
D14*
%TO.C,U13*%
X79350000Y-45250000D03*
X79350000Y-44600000D03*
X79350000Y-43950000D03*
X81250000Y-43950000D03*
X81250000Y-44600000D03*
X81250000Y-45250000D03*
%TD*%
D13*
%TO.C,R64*%
X75400000Y-47800000D03*
X76400000Y-47800000D03*
%TD*%
%TO.C,R97*%
X68900000Y-57700000D03*
X69900000Y-57700000D03*
%TD*%
D19*
%TO.C,C45*%
X65720000Y-47600000D03*
X68680000Y-47600000D03*
%TD*%
D12*
%TO.C,C60*%
X69600000Y-52100000D03*
X68600000Y-52100000D03*
%TD*%
D13*
%TO.C,C36*%
X68600000Y-44900000D03*
X69600000Y-44900000D03*
%TD*%
D12*
%TO.C,R43*%
X80400000Y-40800000D03*
X79400000Y-40800000D03*
%TD*%
D11*
%TO.C,R44*%
X81200000Y-40800000D03*
X81200000Y-41800000D03*
%TD*%
D20*
%TO.C,U16*%
X49200000Y-52250000D03*
X49200000Y-51750000D03*
X49200000Y-51250000D03*
X49200000Y-50750000D03*
X52000000Y-50750000D03*
X52000000Y-51250000D03*
X52000000Y-51750000D03*
X52000000Y-52250000D03*
%TD*%
D11*
%TO.C,R58*%
X76400000Y-44200000D03*
X76400000Y-45200000D03*
%TD*%
%TO.C,R77*%
X67400000Y-52100000D03*
X67400000Y-53100000D03*
%TD*%
D15*
%TO.C,C40*%
X89055000Y-46645000D03*
X89055000Y-45645000D03*
%TD*%
D12*
%TO.C,C51*%
X73600000Y-50000000D03*
X72600000Y-50000000D03*
%TD*%
D13*
%TO.C,R78*%
X81800000Y-52800000D03*
X82800000Y-52800000D03*
%TD*%
D12*
%TO.C,C42*%
X81250000Y-46400000D03*
X80250000Y-46400000D03*
%TD*%
D13*
%TO.C,R79*%
X74600000Y-52800000D03*
X75600000Y-52800000D03*
%TD*%
%TO.C,R69*%
X88200000Y-49900000D03*
X89200000Y-49900000D03*
%TD*%
D12*
%TO.C,R61*%
X78700000Y-46500000D03*
X77700000Y-46500000D03*
%TD*%
%TO.C,R67*%
X52000000Y-49800000D03*
X51000000Y-49800000D03*
%TD*%
%TO.C,C54*%
X73600000Y-51000000D03*
X72600000Y-51000000D03*
%TD*%
D13*
%TO.C,C64*%
X62600000Y-54000000D03*
X63600000Y-54000000D03*
%TD*%
D21*
%TO.C,C53*%
X69550000Y-50500000D03*
X67650000Y-50500000D03*
%TD*%
D12*
%TO.C,C56*%
X81200000Y-51200000D03*
X80200000Y-51200000D03*
%TD*%
D13*
%TO.C,R68*%
X49200000Y-49800000D03*
X50200000Y-49800000D03*
%TD*%
D15*
%TO.C,R46*%
X72499293Y-42600000D03*
X72499293Y-41600000D03*
%TD*%
D22*
%TO.C,U14*%
X87755000Y-45395000D03*
X87755000Y-45895000D03*
X87755000Y-46395000D03*
X87755000Y-46895000D03*
X84955000Y-46895000D03*
X84955000Y-46395000D03*
X84955000Y-45895000D03*
X84955000Y-45395000D03*
%TD*%
D23*
%TO.C,C69*%
X92800000Y-60600000D03*
X92800000Y-63560000D03*
%TD*%
D15*
%TO.C,R83*%
X76400000Y-55200000D03*
X76400000Y-54200000D03*
%TD*%
D12*
%TO.C,C43*%
X73600000Y-47000000D03*
X72600000Y-47000000D03*
%TD*%
D15*
%TO.C,R71*%
X78200000Y-50400000D03*
X78200000Y-49400000D03*
%TD*%
D12*
%TO.C,R54*%
X87800000Y-44300000D03*
X86800000Y-44300000D03*
%TD*%
D13*
%TO.C,C35*%
X85100000Y-41400000D03*
X86100000Y-41400000D03*
%TD*%
D11*
%TO.C,C57*%
X70700000Y-51000000D03*
X70700000Y-52000000D03*
%TD*%
D13*
%TO.C,C66*%
X62600000Y-55000000D03*
X63600000Y-55000000D03*
%TD*%
%TO.C,R94*%
X97400000Y-57000000D03*
X98400000Y-57000000D03*
%TD*%
%TO.C,C50*%
X65500000Y-49900000D03*
X66500000Y-49900000D03*
%TD*%
D11*
%TO.C,R62*%
X76400000Y-46000000D03*
X76400000Y-47000000D03*
%TD*%
D15*
%TO.C,R50*%
X75600000Y-43200000D03*
X75600000Y-42200000D03*
%TD*%
D11*
%TO.C,R86*%
X70800000Y-55100000D03*
X70800000Y-56100000D03*
%TD*%
D13*
%TO.C,R59*%
X74600000Y-45000000D03*
X75600000Y-45000000D03*
%TD*%
D15*
%TO.C,R48*%
X69899000Y-42600000D03*
X69899000Y-41600000D03*
%TD*%
%TO.C,C58*%
X53300000Y-52000000D03*
X53300000Y-51000000D03*
%TD*%
D19*
%TO.C,C37*%
X47420000Y-45200000D03*
X50380000Y-45200000D03*
%TD*%
D13*
%TO.C,R55*%
X85000000Y-44300000D03*
X86000000Y-44300000D03*
%TD*%
%TO.C,C39*%
X65600000Y-46000000D03*
X66600000Y-46000000D03*
%TD*%
%TO.C,R74*%
X44850000Y-51300000D03*
X45850000Y-51300000D03*
%TD*%
%TO.C,R93*%
X44850000Y-56900000D03*
X45850000Y-56900000D03*
%TD*%
D16*
%TO.C,C65*%
X66650000Y-54500000D03*
X68550000Y-54500000D03*
%TD*%
D11*
%TO.C,R96*%
X67300000Y-56700000D03*
X67300000Y-57700000D03*
%TD*%
M02*
