M48
; DRILL file {KiCad 9.0.5} date 2025-11-30T19:44:04-0500
; FORMAT={-:-/ absolute / metric / decimal}
; #@! TF.CreationDate,2025-11-30T19:44:04-05:00
; #@! TF.GenerationSoftware,Kicad,Pcbnew,9.0.5
; #@! TF.FileFunction,Plated,1,4,PTH
FMAT,2
METRIC
; #@! TA.AperFunction,Plated,PTH,ViaDrill
T1C0.300
; #@! TA.AperFunction,Plated,PTH,ComponentDrill
T2C0.300
; #@! TA.AperFunction,Plated,PTH,ViaDrill
T3C0.500
; #@! TA.AperFunction,Plated,PTH,ComponentDrill
T4C0.600
; #@! TA.AperFunction,Plated,PTH,ComponentDrill
T5C0.900
; #@! TA.AperFunction,Plated,PTH,ComponentDrill
T6C1.000
; #@! TA.AperFunction,Plated,PTH,ComponentDrill
T7C2.700
%
G90
G05
T1
X45.9Y-55.5
X45.916Y-49.901
X46.426Y-49.584
X46.6Y-53.45
X46.65Y-59.2
X47.2Y-48.9
X47.2Y-54.5
X47.2Y-60.2
X47.4Y-51.7
X49.4Y-45.5
X49.4Y-47.0
X50.4Y-53.8
X50.6Y-51.25
X51.0Y-50.3
X52.8Y-53.9
X53.013Y-61.42
X53.3Y-50.5
X53.3Y-52.7
X53.4Y-57.8
X53.59Y-56.91
X57.614Y-51.482
X57.7Y-46.8
X57.7Y-48.2
X57.7Y-49.3
X57.7Y-50.7
X57.874Y-61.271
X58.6Y-53.7
X59.6Y-61.5
X59.6Y-64.1
X61.0Y-42.074
X61.0Y-44.0
X61.0Y-45.0
X61.92Y-55.343
X61.943Y-51.405
X62.02Y-46.232
X62.2Y-54.5
X62.3Y-43.593
X62.972Y-50.5
X62.984Y-47.475
X62.997Y-53.599
X63.2Y-54.5
X63.9Y-53.5
X64.0Y-50.5
X64.022Y-45.763
X64.1Y-47.5
X64.368Y-42.58
X64.922Y-51.536
X64.947Y-46.508
X64.947Y-48.48
X65.1Y-45.625
X65.124Y-54.66
X65.184Y-49.191
X65.2Y-44.625
X65.223Y-53.685
X65.281Y-50.463
X66.1Y-51.53
X66.15Y-52.81
X66.158Y-45.442
X66.183Y-50.774
X66.2Y-40.425
X66.2Y-58.0
X66.218Y-53.495
X66.304Y-43.55
X66.377Y-42.416
X66.801Y-50.408
X66.82Y-44.57
X67.02Y-47.768
X67.028Y-46.748
X67.03Y-48.7
X67.044Y-51.549
X67.159Y-41.72
X67.26Y-42.66
X67.273Y-45.634
X67.44Y-43.54
X67.6Y-55.47
X67.85Y-44.559
X67.947Y-49.52
X68.112Y-53.426
X68.127Y-46.336
X68.145Y-51.605
X68.306Y-45.4
X68.774Y-58.435
X68.798Y-50.593
X68.829Y-43.581
X68.964Y-55.673
X69.128Y-45.733
X69.176Y-48.756
X69.18Y-42.35
X69.206Y-53.7
X69.241Y-49.525
X69.279Y-51.643
X69.368Y-46.58
X69.431Y-54.556
X69.6Y-43.51
X69.759Y-45.447
X69.931Y-47.53
X69.975Y-46.5
X70.1Y-54.5
X70.11Y-51.52
X70.456Y-42.431
X70.62Y-57.71
X70.742Y-48.571
X70.966Y-41.546
X71.07Y-42.588
X71.097Y-51.605
X71.1Y-54.4
X71.316Y-50.5
X71.864Y-54.527
X72.0Y-51.7
X72.038Y-44.852
X72.2Y-53.5
X72.316Y-50.5
X72.9Y-55.5
X73.0Y-47.5
X73.162Y-43.852
X73.2Y-41.7
X73.21Y-53.484
X73.3Y-50.5
X73.4Y-61.9
X73.493Y-63.196
X73.9Y-55.4
X73.9Y-62.25
X73.98Y-47.5
X74.043Y-43.18
X74.135Y-44.211
X74.154Y-45.153
X74.24Y-51.5
X74.25Y-53.54
X74.343Y-46.514
X74.418Y-63.152
X74.85Y-49.56
X74.9Y-41.6
X74.922Y-47.655
X75.033Y-53.343
X75.04Y-51.77
X75.06Y-42.88
X75.13Y-54.87
X75.143Y-45.696
X75.921Y-41.423
X77.473Y-52.537
X77.5Y-57.525
X77.515Y-45.5
X77.6Y-51.9
X78.2Y-54.2
X78.212Y-53.585
X78.374Y-56.253
X78.7Y-47.1
X78.7Y-58.2
X78.8Y-44.6
X78.9Y-41.3
X78.9Y-43.4
X79.063Y-41.929
X79.3Y-50.7
X79.815Y-65.575
X79.9Y-49.4
X80.2Y-50.6
X80.367Y-45.336
X80.46Y-59.105
X80.688Y-53.243
X80.8Y-48.2
X80.905Y-52.683
X81.117Y-50.595
X81.13Y-61.266
X81.2Y-45.8
X81.3Y-42.4
X81.425Y-52.297
X81.788Y-41.306
X81.8Y-45.8
X81.966Y-42.735
X82.1Y-53.8
X82.1Y-55.0
X82.1Y-56.2
X82.4Y-49.4
X82.487Y-50.013
X82.6Y-47.2
X82.7Y-45.6
X82.81Y-69.01
X83.112Y-59.1
X83.177Y-52.34
X83.3Y-53.8
X83.3Y-56.2
X83.3Y-62.046
X83.3Y-62.646
X83.312Y-55.0
X84.0Y-66.5
X84.3Y-52.3
X84.5Y-53.8
X84.5Y-55.0
X84.5Y-56.2
X84.7Y-60.7
X84.8Y-63.4
X84.854Y-69.575
X84.876Y-68.4
X85.1Y-40.8
X85.1Y-42.2
X85.3Y-50.5
X85.949Y-65.191
X85.953Y-55.813
X86.006Y-55.165
X86.1Y-40.8
X86.2Y-42.1
X86.2Y-66.0
X86.337Y-63.9
X86.35Y-48.85
X86.695Y-68.544
X86.9Y-49.9
X86.92Y-48.417
X87.1Y-64.4
X87.5Y-57.5
X87.515Y-49.9
X87.532Y-54.189
X87.562Y-55.562
X87.6Y-48.4
X87.6Y-51.0
X88.1Y-65.2
X88.1Y-66.2
X88.5Y-52.8
X89.0Y-65.2
X89.025Y-66.175
X89.05Y-68.875
X89.514Y-69.375
X89.7Y-45.7
X89.9Y-46.7
X89.95Y-49.75
X90.0Y-65.2
X90.0Y-66.2
X90.3Y-62.046
X90.3Y-62.646
X90.5Y-63.5
X90.8Y-64.4
X91.423Y-64.388
X91.7Y-62.5
X91.8Y-68.4
X92.0Y-67.075
X92.0Y-67.675
X93.11Y-68.55
X93.2Y-53.8
X93.369Y-69.421
X96.0Y-64.4
X96.5Y-49.0
X96.6Y-47.0
X96.705Y-58.01
X96.893Y-58.963
X97.1Y-49.7
X97.2Y-50.3
X97.31Y-58.45
X98.163Y-57.874
X98.17Y-58.869
X98.5Y-46.9
X98.9Y-51.5
X102.7Y-48.1
X102.711Y-49.105
X103.2Y-47.5
X103.4Y-50.2
X104.2Y-47.5
X104.4Y-48.2
X104.4Y-50.2
T2
X81.5Y-64.08
X81.5Y-65.8
X81.98Y-64.94
X82.46Y-64.08
X82.46Y-65.8
T3
X42.3Y-51.9
X42.306Y-63.206
X42.4Y-57.4
X42.5Y-50.8
X42.55Y-56.4
X42.55Y-62.0
X45.077Y-49.668
X45.2Y-55.2
X45.2Y-60.95
X46.45Y-45.25
X48.448Y-52.86
X48.45Y-58.4
X51.5Y-48.3
X70.573Y-61.7
X71.822Y-61.035
X75.2Y-60.6
X76.9Y-61.6
X78.8Y-64.4
X80.1Y-63.5
X84.331Y-64.172
X86.7Y-60.6
X95.6Y-63.5
X96.4Y-60.18
X96.5Y-57.0
X96.674Y-55.597
X96.7Y-61.6
T6
X48.37Y-42.23
X50.91Y-42.23
X53.45Y-42.23
X55.99Y-42.23
X89.01Y-42.23
X91.55Y-42.23
X94.09Y-42.23
X96.63Y-42.23
T7
X43.5Y-43.5
X43.5Y-66.5
X101.5Y-43.5
X101.5Y-66.5
T4
X69.4Y-62.34G85X69.4Y-63.34
G05
X69.4Y-67.45G85X69.4Y-68.95
G05
X78.04Y-62.34G85X78.04Y-63.34
G05
X78.04Y-67.45G85X78.04Y-68.95
G05
X97.34Y-54.26G85X98.34Y-54.26
G05
X97.34Y-62.9G85X98.34Y-62.9
G05
X102.45Y-54.26G85X103.95Y-54.26
G05
X102.45Y-62.9G85X103.95Y-62.9
G05
T5
X49.65Y-59.555G85X49.65Y-61.355
G05
X49.65Y-66.015G85X49.65Y-66.815
G05
X64.15Y-59.555G85X64.15Y-61.355
G05
X64.15Y-66.015G85X64.15Y-66.815
G05
M30
